<mxfile host="app.diagrams.net" agent="Mozilla/5.0 (Macintosh; Intel Mac OS X 10_15_7) AppleWebKit/537.36 (KHTML, like Gecko) Chrome/131.0.0.0 Safari/537.36" version="26.0.4">
  <diagram name="Page-1" id="MMcqrZWOJNTe3mnmgAxF">
    <mxGraphModel dx="954" dy="517" grid="1" gridSize="10" guides="1" tooltips="1" connect="1" arrows="1" fold="1" page="1" pageScale="1" pageWidth="827" pageHeight="1169" math="0" shadow="0">
      <root>
        <mxCell id="0" />
        <mxCell id="1" parent="0" />
        <mxCell id="IikVc3j5TeiNAf-yOBVd-1" value="" style="shape=flexArrow;endArrow=classic;html=1;rounded=0;fillColor=#dae8fc;strokeColor=#6c8ebf;" edge="1" parent="1">
          <mxGeometry width="50" height="50" relative="1" as="geometry">
            <mxPoint x="50" y="190" as="sourcePoint" />
            <mxPoint x="110" y="190" as="targetPoint" />
          </mxGeometry>
        </mxCell>
        <mxCell id="IikVc3j5TeiNAf-yOBVd-25" value="" style="shape=flexArrow;endArrow=classic;html=1;rounded=0;fillColor=#dae8fc;strokeColor=#6c8ebf;" edge="1" parent="1">
          <mxGeometry width="50" height="50" relative="1" as="geometry">
            <mxPoint x="50" y="1290" as="sourcePoint" />
            <mxPoint x="110" y="1290" as="targetPoint" />
          </mxGeometry>
        </mxCell>
        <mxCell id="IikVc3j5TeiNAf-yOBVd-31" value="" style="shape=flexArrow;endArrow=classic;html=1;rounded=0;fillColor=#dae8fc;strokeColor=#6c8ebf;" edge="1" parent="1">
          <mxGeometry width="50" height="50" relative="1" as="geometry">
            <mxPoint x="40" y="1960" as="sourcePoint" />
            <mxPoint x="100" y="1960" as="targetPoint" />
          </mxGeometry>
        </mxCell>
        <mxCell id="IikVc3j5TeiNAf-yOBVd-2" value="Shiksha Skills Institute" style="text;html=1;align=center;verticalAlign=middle;resizable=0;points=[];autosize=1;strokeColor=none;fillColor=none;fontFamily=Comic Sans MS;fontSize=34;" vertex="1" parent="1">
          <mxGeometry x="214" y="10" width="400" height="50" as="geometry" />
        </mxCell>
        <mxCell id="IikVc3j5TeiNAf-yOBVd-3" value="&lt;font style=&quot;font-size: 22px;&quot;&gt;CSS Tutorial - 1&lt;/font&gt;" style="text;html=1;align=center;verticalAlign=middle;resizable=0;points=[];autosize=1;strokeColor=#b85450;fillColor=#f8cecc;fontFamily=Comic Sans MS;fontSize=34;gradientColor=none;rounded=1;glass=0;sketch=1;curveFitting=1;jiggle=2;" vertex="1" parent="1">
          <mxGeometry x="319" y="80" width="190" height="50" as="geometry" />
        </mxCell>
        <mxCell id="IikVc3j5TeiNAf-yOBVd-24" value="&lt;font style=&quot;font-size: 22px;&quot;&gt;CSS Tutorial - 2&lt;/font&gt;" style="text;html=1;align=center;verticalAlign=middle;resizable=0;points=[];autosize=1;strokeColor=#b85450;fillColor=#f8cecc;fontFamily=Comic Sans MS;fontSize=34;gradientColor=none;rounded=1;glass=0;sketch=1;curveFitting=1;jiggle=2;" vertex="1" parent="1">
          <mxGeometry x="319" y="1180" width="190" height="50" as="geometry" />
        </mxCell>
        <mxCell id="IikVc3j5TeiNAf-yOBVd-4" value="Box Model" style="text;html=1;align=center;verticalAlign=middle;resizable=0;points=[];autosize=1;strokeColor=none;fillColor=none;fontFamily=Comic Sans MS;fontSize=22;" vertex="1" parent="1">
          <mxGeometry x="110" y="170" width="130" height="40" as="geometry" />
        </mxCell>
        <mxCell id="IikVc3j5TeiNAf-yOBVd-26" value="Selectors" style="text;html=1;align=center;verticalAlign=middle;resizable=0;points=[];autosize=1;strokeColor=none;fillColor=none;fontFamily=Comic Sans MS;fontSize=22;" vertex="1" parent="1">
          <mxGeometry x="115" y="1270" width="120" height="40" as="geometry" />
        </mxCell>
        <mxCell id="IikVc3j5TeiNAf-yOBVd-32" value="Selectors" style="text;html=1;align=center;verticalAlign=middle;resizable=0;points=[];autosize=1;strokeColor=none;fillColor=none;fontFamily=Comic Sans MS;fontSize=22;" vertex="1" parent="1">
          <mxGeometry x="105" y="1940" width="120" height="40" as="geometry" />
        </mxCell>
        <mxCell id="IikVc3j5TeiNAf-yOBVd-23" value="Box Sizing" style="text;html=1;align=center;verticalAlign=middle;resizable=0;points=[];autosize=1;strokeColor=none;fillColor=none;fontFamily=Comic Sans MS;fontSize=22;" vertex="1" parent="1">
          <mxGeometry x="60" y="910" width="130" height="40" as="geometry" />
        </mxCell>
        <mxCell id="IikVc3j5TeiNAf-yOBVd-5" value="&lt;pre&gt;&lt;br&gt;&amp;lt;p&amp;gt;I am a paragraph of text that has a few words in it.&amp;lt;/p&amp;gt;&lt;/pre&gt;&lt;div&gt;&lt;br&gt;&lt;/div&gt;" style="text;html=1;align=center;verticalAlign=middle;resizable=0;points=[];autosize=1;strokeColor=none;fillColor=none;fontFamily=Comic Sans MS;fontStyle=1;labelBackgroundColor=#1A1A1A;fontColor=#FFFFFF;spacing=2;spacingTop=0;" vertex="1" parent="1">
          <mxGeometry x="40" y="220" width="450" height="80" as="geometry" />
        </mxCell>
        <mxCell id="IikVc3j5TeiNAf-yOBVd-27" value="&lt;pre&gt;&amp;lt;article&amp;gt;&lt;br&gt;  &amp;lt;p&amp;gt;I want to be red and larger than the other text.&amp;lt;/p&amp;gt;&lt;br&gt;  &amp;lt;p&amp;gt;I want to be normal sized and the default color.&amp;lt;/p&amp;gt;&lt;br&gt;&amp;lt;/article&amp;gt;&lt;/pre&gt;" style="text;html=1;align=left;verticalAlign=middle;resizable=0;points=[];autosize=1;strokeColor=#82b366;fillColor=#d5e8d4;fontFamily=Comic Sans MS;fontStyle=1;labelBackgroundColor=none;spacing=2;spacingTop=0;glass=0;" vertex="1" parent="1">
          <mxGeometry x="45" y="1315" width="440" height="90" as="geometry" />
        </mxCell>
        <mxCell id="IikVc3j5TeiNAf-yOBVd-34" value="&lt;pre&gt;&amp;lt;article&amp;gt;&lt;br&gt;  &amp;lt;p&amp;gt;I want to be red and larger than the other text.&amp;lt;/p&amp;gt;&lt;br&gt;  &amp;lt;p&amp;gt;I want to be normal sized and the default color.&amp;lt;/p&amp;gt;&lt;br&gt;&amp;lt;/article&amp;gt;&lt;/pre&gt;" style="text;html=1;align=left;verticalAlign=middle;resizable=0;points=[];autosize=1;strokeColor=#82b366;fillColor=#d5e8d4;fontFamily=Comic Sans MS;fontStyle=1;labelBackgroundColor=none;spacing=2;spacingTop=0;glass=0;" vertex="1" parent="1">
          <mxGeometry x="40" y="2000" width="440" height="90" as="geometry" />
        </mxCell>
        <mxCell id="IikVc3j5TeiNAf-yOBVd-6" value="&lt;pre&gt;p {&lt;br&gt;  width: 100px;&lt;br&gt;  height: 50px;&lt;br&gt;  padding: 20px;&lt;br&gt;  border: 1px solid;&lt;br&gt;}&lt;/pre&gt;" style="text;html=1;align=left;verticalAlign=middle;resizable=0;points=[];autosize=1;strokeColor=#6c8ebf;fillColor=#dae8fc;fontFamily=Comic Sans MS;fontStyle=1;labelBackgroundColor=none;spacing=2;spacingTop=0;spacingLeft=2;" vertex="1" parent="1">
          <mxGeometry x="50" y="318" width="170" height="120" as="geometry" />
        </mxCell>
        <mxCell id="IikVc3j5TeiNAf-yOBVd-28" value="&lt;pre&gt;article p:first-of-type {&lt;br/&gt;  color: red;&lt;br/&gt;  font-size: 1.5em;&lt;br/&gt;}&lt;/pre&gt;" style="text;html=1;align=left;verticalAlign=middle;resizable=0;points=[];autosize=1;strokeColor=#6c8ebf;fillColor=#dae8fc;fontFamily=Comic Sans MS;fontStyle=1;labelBackgroundColor=none;spacing=2;spacingTop=0;spacingLeft=2;" vertex="1" parent="1">
          <mxGeometry x="50" y="1433" width="200" height="90" as="geometry" />
        </mxCell>
        <mxCell id="IikVc3j5TeiNAf-yOBVd-33" value="&lt;pre&gt;article p:first-of-type {&lt;br/&gt;  color: red;&lt;br/&gt;  font-size: 1.5em;&lt;br/&gt;}&lt;/pre&gt;" style="text;html=1;align=left;verticalAlign=middle;resizable=0;points=[];autosize=1;strokeColor=#6c8ebf;fillColor=#dae8fc;fontFamily=Comic Sans MS;fontStyle=1;labelBackgroundColor=none;spacing=2;spacingTop=0;spacingLeft=2;" vertex="1" parent="1">
          <mxGeometry x="40" y="2103" width="200" height="90" as="geometry" />
        </mxCell>
        <mxCell id="IikVc3j5TeiNAf-yOBVd-22" value="&lt;pre&gt;.my-box {&lt;br&gt;    box-sizing: border-box;&lt;br&gt;    width: 200px;&lt;br&gt;    border: 10px solid;&lt;br&gt;    padding: 20px;&lt;br&gt;}&lt;/pre&gt;" style="text;html=1;align=left;verticalAlign=middle;resizable=0;points=[];autosize=1;strokeColor=#6c8ebf;fillColor=#dae8fc;fontFamily=Comic Sans MS;fontStyle=1;labelBackgroundColor=none;spacing=2;spacingTop=0;spacingLeft=2;" vertex="1" parent="1">
          <mxGeometry x="50" y="960" width="220" height="120" as="geometry" />
        </mxCell>
        <mxCell id="IikVc3j5TeiNAf-yOBVd-8" value="" style="swimlane;startSize=0;glass=0;shadow=0;rounded=1;labelBackgroundColor=default;textShadow=0;labelBorderColor=none;" vertex="1" parent="1">
          <mxGeometry x="230" y="510" width="340" height="350" as="geometry" />
        </mxCell>
        <mxCell id="IikVc3j5TeiNAf-yOBVd-9" value="" style="swimlane;startSize=0;" vertex="1" parent="IikVc3j5TeiNAf-yOBVd-8">
          <mxGeometry x="25" y="35" width="285" height="285" as="geometry" />
        </mxCell>
        <mxCell id="IikVc3j5TeiNAf-yOBVd-10" value="" style="swimlane;startSize=0;" vertex="1" parent="IikVc3j5TeiNAf-yOBVd-9">
          <mxGeometry x="25" y="30" width="240" height="220" as="geometry">
            <mxRectangle x="35" y="45" width="50" height="40" as="alternateBounds" />
          </mxGeometry>
        </mxCell>
        <mxCell id="IikVc3j5TeiNAf-yOBVd-11" value="" style="swimlane;startSize=0;" vertex="1" parent="IikVc3j5TeiNAf-yOBVd-10">
          <mxGeometry x="30" y="30" width="180" height="160" as="geometry" />
        </mxCell>
        <mxCell id="IikVc3j5TeiNAf-yOBVd-15" value="Element" style="text;html=1;align=center;verticalAlign=middle;resizable=0;points=[];autosize=1;strokeColor=none;fillColor=none;fontFamily=Comic Sans MS;" vertex="1" parent="IikVc3j5TeiNAf-yOBVd-11">
          <mxGeometry x="52.5" y="65" width="70" height="30" as="geometry" />
        </mxCell>
        <mxCell id="IikVc3j5TeiNAf-yOBVd-16" value="" style="swimlane;startSize=0;" vertex="1" parent="IikVc3j5TeiNAf-yOBVd-11">
          <mxGeometry x="30" y="30" width="130" height="110" as="geometry">
            <mxRectangle x="40" y="40" width="50" height="40" as="alternateBounds" />
          </mxGeometry>
        </mxCell>
        <mxCell id="IikVc3j5TeiNAf-yOBVd-14" value="Padding" style="text;html=1;align=center;verticalAlign=middle;resizable=0;points=[];autosize=1;strokeColor=none;fillColor=none;fontFamily=Comic Sans MS;" vertex="1" parent="IikVc3j5TeiNAf-yOBVd-11">
          <mxGeometry x="60" width="70" height="30" as="geometry" />
        </mxCell>
        <mxCell id="IikVc3j5TeiNAf-yOBVd-13" value="Border box" style="text;html=1;align=center;verticalAlign=middle;resizable=0;points=[];autosize=1;strokeColor=none;fillColor=none;fontFamily=Comic Sans MS;" vertex="1" parent="IikVc3j5TeiNAf-yOBVd-10">
          <mxGeometry x="75" width="90" height="30" as="geometry" />
        </mxCell>
        <mxCell id="IikVc3j5TeiNAf-yOBVd-20" value="Outline &amp;amp; Box Shadow" style="text;html=1;align=center;verticalAlign=middle;resizable=0;points=[];autosize=1;strokeColor=none;fillColor=none;fontFamily=Comic Sans MS;" vertex="1" parent="IikVc3j5TeiNAf-yOBVd-9">
          <mxGeometry x="70" width="150" height="30" as="geometry" />
        </mxCell>
        <mxCell id="IikVc3j5TeiNAf-yOBVd-12" value="Margin Box" style="text;html=1;align=center;verticalAlign=middle;resizable=0;points=[];autosize=1;strokeColor=none;fillColor=none;fontFamily=Comic Sans MS;" vertex="1" parent="IikVc3j5TeiNAf-yOBVd-8">
          <mxGeometry x="125" width="90" height="30" as="geometry" />
        </mxCell>
        <mxCell id="IikVc3j5TeiNAf-yOBVd-29" value="" style="shape=image;verticalLabelPosition=bottom;labelBackgroundColor=default;verticalAlign=top;aspect=fixed;imageAspect=0;image=data:image/svg+xml,PHN2ZyB4bWxucz0iaHR0cDovL3d3dy53My5vcmcvMjAwMC9zdmciIGZpbGw9Im5vbmUiIHZpZXdCb3g9IjAgMCA3NjAgNDA2IiBoZWlnaHQ9IjQwNiIgd2lkdGg9Ijc2MCI+JiN4YTs8cmVjdCBmaWxsPSJ3aGl0ZSIgaGVpZ2h0PSI0MDYiIHdpZHRoPSI3NjAiLz4mI3hhOzxyZWN0IHN0cm9rZT0iI0RBRENFMCIgZmlsbD0iI0U4RjBGRSIgaGVpZ2h0PSI0NiIgd2lkdGg9IjI3NyIgeT0iODQuNSIgeD0iMTg0LjUiLz4mI3hhOzxyZWN0IHN0cm9rZT0iI0M0QzRDNCIgZmlsbD0iI0YzRjRGNCIgaGVpZ2h0PSI2MSIgd2lkdGg9IjMxMyIgeT0iMTc2LjUiIHg9IjIxNi41Ii8+JiN4YTs8cmVjdCBzdHJva2U9IiNEQURDRTAiIGZpbGw9IiNEQkZDRkYiIGhlaWdodD0iNDciIHdpZHRoPSIxNDYiIHk9IjE4My41IiB4PSIyMjMuNSIvPiYjeGE7PHJlY3Qgc3Ryb2tlPSIjREFEQ0UwIiBmaWxsPSIjRUZFMUZGIiBoZWlnaHQ9IjQ3IiB3aWR0aD0iMTQ3IiB5PSIxODMuNSIgeD0iMzc1LjUiLz4mI3hhOzxwYXRoIGZpbGw9IiMyNDI1MjYiIGQ9Ik0xOTkuOCAxMTguNDMyQzE5OC43NjggMTE4LjQzMiAxOTcuOTE2IDExOC4wOTYgMTk3LjI0NCAxMTcuNDI0QzE5Ni41NzIgMTE2LjcyOCAxOTYuMjM2IDExNS44NTIgMTk2LjIzNiAxMTQuNzk2QzE5Ni4yMzYgMTEzLjc0IDE5Ni41NzIgMTEyLjg3NiAxOTcuMjQ0IDExMi4yMDRDMTk3LjkxNiAxMTEuNTA4IDE5OC43NjggMTExLjE2IDE5OS44IDExMS4xNkMyMDAuODMyIDExMS4xNiAyMDEuNjg0IDExMS41MDggMjAyLjM1NiAxMTIuMjA0QzIwMy4wMjggMTEyLjg3NiAyMDMuMzY0IDExMy43NCAyMDMuMzY0IDExNC43OTZDMjAzLjM2NCAxMTUuODUyIDIwMy4wMjggMTE2LjcyOCAyMDIuMzU2IDExNy40MjRDMjAxLjY4NCAxMTguMDk2IDIwMC44MzIgMTE4LjQzMiAxOTkuOCAxMTguNDMyWiIvPiYjeGE7PHBhdGggZmlsbD0iIzI0MjUyNiIgZD0iTTIxMi41NDIgMTE4VjEwMC4zMjRIMjE1Ljc0NkwyMTYuMDcgMTAyLjU1NkgyMTYuMTc4QzIxNi41NjIgMTAxLjc4OCAyMTcuMDU0IDEwMS4xNTIgMjE3LjY1NCAxMDAuNjQ4QzIxOC4yNTQgMTAwLjE0NCAyMTkuMDcgOTkuODkyIDIyMC4xMDIgOTkuODkyQzIyMS43NTggOTkuODkyIDIyMi44MjYgMTAwLjg3NiAyMjMuMzA2IDEwMi44NDRDMjIzLjcxNCAxMDEuOTggMjI0LjIzIDEwMS4yNzIgMjI0Ljg1NCAxMDAuNzJDMjI1LjQ3OCAxMDAuMTY4IDIyNi4zMDYgOTkuODkyIDIyNy4zMzggOTkuODkyQzIyOC41ODYgOTkuODkyIDIyOS41NDYgMTAwLjM4NCAyMzAuMjE4IDEwMS4zNjhDMjMwLjkxNCAxMDIuMzI4IDIzMS4yNjIgMTAzLjY5NiAyMzEuMjYyIDEwNS40NzJWMTE4SDIyNy4yNjZWMTA1Ljc2QzIyNy4yNjYgMTA0LjIgMjI2Ljc5OCAxMDMuNDIgMjI1Ljg2MiAxMDMuNDJDMjI1LjM4MiAxMDMuNDIgMjI0Ljk3NCAxMDMuNjEyIDIyNC42MzggMTAzLjk5NkMyMjQuMzI2IDEwNC4zNTYgMjIzLjk5IDEwNC45MDggMjIzLjYzIDEwNS42NTJWMTE4SDIyMC4xNzRWMTA1Ljc2QzIyMC4xNzQgMTA0Ljk5MiAyMjAuMDY2IDEwNC40MTYgMjE5Ljg1IDEwNC4wMzJDMjE5LjYzNCAxMDMuNjI0IDIxOS4yNzQgMTAzLjQyIDIxOC43NyAxMDMuNDJDMjE4LjI5IDEwMy40MiAyMTcuODgyIDEwMy42MTIgMjE3LjU0NiAxMDMuOTk2QzIxNy4yMzQgMTA0LjM1NiAyMTYuOTEgMTA0LjkwOCAyMTYuNTc0IDEwNS42NTJWMTE4SDIxMi41NDJaIi8+JiN4YTs8cGF0aCBmaWxsPSIjMjQyNTI2IiBkPSJNMjM3LjcwNCAxMjUuMjcyQzIzNy4yMjQgMTI1LjI3MiAyMzYuNzY4IDEyNS4yMzYgMjM2LjMzNiAxMjUuMTY0QzIzNS45MDQgMTI1LjExNiAyMzUuNTIgMTI1LjAzMiAyMzUuMTg0IDEyNC45MTJMMjM1Ljk3NiAxMjEuNjcyQzIzNi4yMTYgMTIxLjc0NCAyMzYuNDU2IDEyMS44MDQgMjM2LjY5NiAxMjEuODUyQzIzNi45MzYgMTIxLjkgMjM3LjE4OCAxMjEuOTI0IDIzNy40NTIgMTIxLjkyNEMyMzguNTggMTIxLjkyNCAyMzkuNDggMTIxLjYzNiAyNDAuMTUyIDEyMS4wNkMyNDAuODI0IDEyMC41MDggMjQxLjM0IDExOS43ODggMjQxLjcgMTE4LjlMMjQyLjEzMiAxMTcuNzg0TDIzNC4yMTIgMTAwLjMyNEgyMzguMzUyTDI0MS45ODggMTA5QzI0Mi4zMjQgMTA5Ljc5MiAyNDIuNjQ4IDExMC42MzIgMjQyLjk2IDExMS41MkMyNDMuMjcyIDExMi40MDggMjQzLjU5NiAxMTMuMjk2IDI0My45MzIgMTE0LjE4NEgyNDQuMDc2QzI0NC4zNCAxMTMuMzQ0IDI0NC42MjggMTEyLjQ4IDI0NC45NCAxMTEuNTkyQzI0NS4yNTIgMTEwLjcwNCAyNDUuNTUyIDEwOS44NCAyNDUuODQgMTA5TDI0OS4wNDQgMTAwLjMyNEgyNTIuOTY4TDI0NS41ODggMTE4Ljc5MkMyNDUuMjA0IDExOS44IDI0NC43NzIgMTIwLjcgMjQ0LjI5MiAxMjEuNDkyQzI0My44MzYgMTIyLjI4NCAyNDMuMjk2IDEyMi45NTYgMjQyLjY3MiAxMjMuNTA4QzI0Mi4wNDggMTI0LjA4NCAyNDEuMzI4IDEyNC41MTYgMjQwLjUxMiAxMjQuODA0QzIzOS42OTYgMTI1LjExNiAyMzguNzYgMTI1LjI3MiAyMzcuNzA0IDEyNS4yNzJaIi8+JiN4YTs8cGF0aCBmaWxsPSIjMjQyNTI2IiBkPSJNMjU3LjQ2NiAxMDcuNjMyVjEwNC42MDhIMjczLjQ1VjEwNy42MzJIMjU3LjQ2NloiLz4mI3hhOzxwYXRoIGZpbGw9IiMyNDI1MjYiIGQ9Ik0yODguOTI4IDExOC40MzJDMjg3LjUzNiAxMTguNDMyIDI4Ni4yNCAxMTguMjI4IDI4NS4wNCAxMTcuODJDMjgzLjg2NCAxMTcuNDEyIDI4Mi44MzIgMTE2LjgxMiAyODEuOTQ0IDExNi4wMkMyODEuMDggMTE1LjIyOCAyODAuMzk2IDExNC4yNTYgMjc5Ljg5MiAxMTMuMTA0QzI3OS40MTIgMTExLjk1MiAyNzkuMTcyIDExMC42NDQgMjc5LjE3MiAxMDkuMThDMjc5LjE3MiAxMDcuNzE2IDI3OS40MzYgMTA2LjQwOCAyNzkuOTY0IDEwNS4yNTZDMjgwLjUxNiAxMDQuMTA0IDI4MS4yNDggMTAzLjEzMiAyODIuMTYgMTAyLjM0QzI4My4wNzIgMTAxLjU0OCAyODQuMTQgMTAwLjk0OCAyODUuMzY0IDEwMC41NEMyODYuNTg4IDEwMC4xMDggMjg3Ljg3MiA5OS44OTIgMjg5LjIxNiA5OS44OTJDMjkwLjY1NiA5OS44OTIgMjkxLjkxNiAxMDAuMTMyIDI5Mi45OTYgMTAwLjYxMkMyOTQuMSAxMDEuMDkyIDI5NS4wMjQgMTAxLjY4IDI5NS43NjggMTAyLjM3NkwyOTMuNzg4IDEwNC45NjhDMjkzLjA5MiAxMDQuNDE2IDI5Mi4zODQgMTAzLjk5NiAyOTEuNjY0IDEwMy43MDhDMjkwLjk2OCAxMDMuNDIgMjkwLjIyNCAxMDMuMjc2IDI4OS40MzIgMTAzLjI3NkMyODcuNjU2IDEwMy4yNzYgMjg2LjIxNiAxMDMuODE2IDI4NS4xMTIgMTA0Ljg5NkMyODQuMDA4IDEwNS45NTIgMjgzLjQ1NiAxMDcuMzggMjgzLjQ1NiAxMDkuMThDMjgzLjQ1NiAxMTAuMDY4IDI4My42IDExMC44NzIgMjgzLjg4OCAxMTEuNTkyQzI4NC4xNzYgMTEyLjMxMiAyODQuNTcyIDExMi45MzYgMjg1LjA3NiAxMTMuNDY0QzI4NS42MDQgMTEzLjk2OCAyODYuMjI4IDExNC4zNjQgMjg2Ljk0OCAxMTQuNjUyQzI4Ny42NjggMTE0LjkxNiAyODguNDYgMTE1LjA0OCAyODkuMzI0IDExNS4wNDhDMjkwLjMzMiAxMTUuMDQ4IDI5MS4yNDQgMTE0Ljg1NiAyOTIuMDYgMTE0LjQ3MkMyOTIuOSAxMTQuMDg4IDI5My42NjggMTEzLjYzMiAyOTQuMzY0IDExMy4xMDRMMjk2LjA5MiAxMTUuNzY4QzI5NS4wNiAxMTYuNjU2IDI5My45MiAxMTcuMzI4IDI5Mi42NzIgMTE3Ljc4NEMyOTEuNDQ4IDExOC4yMTYgMjkwLjIgMTE4LjQzMiAyODguOTI4IDExOC40MzJaIi8+JiN4YTs8cGF0aCBmaWxsPSIjMjQyNTI2IiBkPSJNMzA5LjMzOCAxMTguNDMyQzMwNy42ODIgMTE4LjQzMiAzMDYuMDk4IDExOC4xNjggMzA0LjU4NiAxMTcuNjRDMzAzLjA3NCAxMTcuMDg4IDMwMS43NjYgMTE2LjQ0IDMwMC42NjIgMTE1LjY5NkwzMDIuNDYyIDExMy4wNjhDMzAzLjU0MiAxMTMuNzY0IDMwNC42ODIgMTE0LjMxNiAzMDUuODgyIDExNC43MjRDMzA3LjEwNiAxMTUuMTA4IDMwOC40MzggMTE1LjMgMzA5Ljg3OCAxMTUuM0MzMTEuMTAyIDExNS4zIDMxMi4wMDIgMTE1LjA5NiAzMTIuNTc4IDExNC42ODhDMzEzLjE3OCAxMTQuMjggMzEzLjQ3OCAxMTMuNzc2IDMxMy40NzggMTEzLjE3NkMzMTMuNDc4IDExMi44ODggMzEzLjQxOCAxMTIuNjM2IDMxMy4yOTggMTEyLjQyQzMxMy4xNzggMTEyLjE4IDMxMi45MzggMTExLjk1MiAzMTIuNTc4IDExMS43MzZDMzEyLjIxOCAxMTEuNTIgMzExLjcxNCAxMTEuMzE2IDMxMS4wNjYgMTExLjEyNEMzMTAuNDQyIDExMC45MzIgMzA5LjYxNCAxMTAuNzI4IDMwOC41ODIgMTEwLjUxMkMzMDYuMjA2IDExMC4wMzIgMzA0LjQ2NiAxMDkuMzYgMzAzLjM2MiAxMDguNDk2QzMwMi4yODIgMTA3LjYzMiAzMDEuNzQyIDEwNi41MjggMzAxLjc0MiAxMDUuMTg0QzMwMS43NDIgMTAzLjYyNCAzMDIuNDE0IDEwMi4zNTIgMzAzLjc1OCAxMDEuMzY4QzMwNS4xMDIgMTAwLjM4NCAzMDcuMDIyIDk5Ljg5MiAzMDkuNTE4IDk5Ljg5MkMzMTAuOTgyIDk5Ljg5MiAzMTIuMzUgMTAwLjEzMiAzMTMuNjIyIDEwMC42MTJDMzE0Ljg5NCAxMDEuMDkyIDMxNS45ODYgMTAxLjYzMiAzMTYuODk4IDEwMi4yMzJMMzE0Ljk5IDEwNC43ODhDMzE0LjEyNiAxMDQuMjM2IDMxMy4yMDIgMTAzLjgwNCAzMTIuMjE4IDEwMy40OTJDMzExLjIzNCAxMDMuMTggMzEwLjIxNCAxMDMuMDI0IDMwOS4xNTggMTAzLjAyNEMzMDcuOTgyIDEwMy4wMjQgMzA3LjE0MiAxMDMuMjE2IDMwNi42MzggMTAzLjZDMzA2LjEzNCAxMDMuOTYgMzA1Ljg4MiAxMDQuNDE2IDMwNS44ODIgMTA0Ljk2OEMzMDUuODgyIDEwNS41OTIgMzA2LjI0MiAxMDYuMDYgMzA2Ljk2MiAxMDYuMzcyQzMwNy42ODIgMTA2LjY4NCAzMDguODU4IDEwNy4wMiAzMTAuNDkgMTA3LjM4QzMxMS45MDYgMTA3LjY5MiAzMTMuMDcgMTA4LjAyOCAzMTMuOTgyIDEwOC4zODhDMzE0Ljg5NCAxMDguNzQ4IDMxNS42MTQgMTA5LjE1NiAzMTYuMTQyIDEwOS42MTJDMzE2LjY5NCAxMTAuMDQ0IDMxNy4wNzggMTEwLjUzNiAzMTcuMjk0IDExMS4wODhDMzE3LjUxIDExMS42NCAzMTcuNjE4IDExMi4yNjQgMzE3LjYxOCAxMTIuOTZDMzE3LjYxOCAxMTMuNzI4IDMxNy40MzggMTE0LjQ0OCAzMTcuMDc4IDExNS4xMkMzMTYuNzE4IDExNS43NjggMzE2LjE5IDExNi4zNDQgMzE1LjQ5NCAxMTYuODQ4QzMxNC43OTggMTE3LjMyOCAzMTMuOTM0IDExNy43MTIgMzEyLjkwMiAxMThDMzExLjg3IDExOC4yODggMzEwLjY4MiAxMTguNDMyIDMwOS4zMzggMTE4LjQzMloiLz4mI3hhOzxwYXRoIGZpbGw9IiMyNDI1MjYiIGQ9Ik0zMzEuMjI0IDExOC40MzJDMzI5LjU2OCAxMTguNDMyIDMyNy45ODQgMTE4LjE2OCAzMjYuNDcyIDExNy42NEMzMjQuOTYgMTE3LjA4OCAzMjMuNjUyIDExNi40NCAzMjIuNTQ4IDExNS42OTZMMzI0LjM0OCAxMTMuMDY4QzMyNS40MjggMTEzLjc2NCAzMjYuNTY4IDExNC4zMTYgMzI3Ljc2OCAxMTQuNzI0QzMyOC45OTIgMTE1LjEwOCAzMzAuMzI0IDExNS4zIDMzMS43NjQgMTE1LjNDMzMyLjk4OCAxMTUuMyAzMzMuODg4IDExNS4wOTYgMzM0LjQ2NCAxMTQuNjg4QzMzNS4wNjQgMTE0LjI4IDMzNS4zNjQgMTEzLjc3NiAzMzUuMzY0IDExMy4xNzZDMzM1LjM2NCAxMTIuODg4IDMzNS4zMDQgMTEyLjYzNiAzMzUuMTg0IDExMi40MkMzMzUuMDY0IDExMi4xOCAzMzQuODI0IDExMS45NTIgMzM0LjQ2NCAxMTEuNzM2QzMzNC4xMDQgMTExLjUyIDMzMy42IDExMS4zMTYgMzMyLjk1MiAxMTEuMTI0QzMzMi4zMjggMTEwLjkzMiAzMzEuNSAxMTAuNzI4IDMzMC40NjggMTEwLjUxMkMzMjguMDkyIDExMC4wMzIgMzI2LjM1MiAxMDkuMzYgMzI1LjI0OCAxMDguNDk2QzMyNC4xNjggMTA3LjYzMiAzMjMuNjI4IDEwNi41MjggMzIzLjYyOCAxMDUuMTg0QzMyMy42MjggMTAzLjYyNCAzMjQuMyAxMDIuMzUyIDMyNS42NDQgMTAxLjM2OEMzMjYuOTg4IDEwMC4zODQgMzI4LjkwOCA5OS44OTIgMzMxLjQwNCA5OS44OTJDMzMyLjg2OCA5OS44OTIgMzM0LjIzNiAxMDAuMTMyIDMzNS41MDggMTAwLjYxMkMzMzYuNzggMTAxLjA5MiAzMzcuODcyIDEwMS42MzIgMzM4Ljc4NCAxMDIuMjMyTDMzNi44NzYgMTA0Ljc4OEMzMzYuMDEyIDEwNC4yMzYgMzM1LjA4OCAxMDMuODA0IDMzNC4xMDQgMTAzLjQ5MkMzMzMuMTIgMTAzLjE4IDMzMi4xIDEwMy4wMjQgMzMxLjA0NCAxMDMuMDI0QzMyOS44NjggMTAzLjAyNCAzMjkuMDI4IDEwMy4yMTYgMzI4LjUyNCAxMDMuNkMzMjguMDIgMTAzLjk2IDMyNy43NjggMTA0LjQxNiAzMjcuNzY4IDEwNC45NjhDMzI3Ljc2OCAxMDUuNTkyIDMyOC4xMjggMTA2LjA2IDMyOC44NDggMTA2LjM3MkMzMjkuNTY4IDEwNi42ODQgMzMwLjc0NCAxMDcuMDIgMzMyLjM3NiAxMDcuMzhDMzMzLjc5MiAxMDcuNjkyIDMzNC45NTYgMTA4LjAyOCAzMzUuODY4IDEwOC4zODhDMzM2Ljc4IDEwOC43NDggMzM3LjUgMTA5LjE1NiAzMzguMDI4IDEwOS42MTJDMzM4LjU4IDExMC4wNDQgMzM4Ljk2NCAxMTAuNTM2IDMzOS4xOCAxMTEuMDg4QzMzOS4zOTYgMTExLjY0IDMzOS41MDQgMTEyLjI2NCAzMzkuNTA0IDExMi45NkMzMzkuNTA0IDExMy43MjggMzM5LjMyNCAxMTQuNDQ4IDMzOC45NjQgMTE1LjEyQzMzOC42MDQgMTE1Ljc2OCAzMzguMDc2IDExNi4zNDQgMzM3LjM4IDExNi44NDhDMzM2LjY4NCAxMTcuMzI4IDMzNS44MiAxMTcuNzEyIDMzNC43ODggMTE4QzMzMy43NTYgMTE4LjI4OCAzMzIuNTY4IDExOC40MzIgMzMxLjIyNCAxMTguNDMyWiIvPiYjeGE7PHBhdGggZmlsbD0iIzI0MjUyNiIgZD0iTTM0NS4wMSAxMDcuNjMyVjEwNC42MDhIMzYwLjk5NFYxMDcuNjMySDM0NS4wMVoiLz4mI3hhOzxwYXRoIGZpbGw9IiMyNDI1MjYiIGQ9Ik0zNjguNzY3IDExOFYxMDAuMzI0SDM3Mi4xODdMMzcyLjU0NyAxMDQuMzJIMzcyLjY1NUMzNzMuNTY3IDEwMi44OCAzNzQuNjU5IDEwMS43ODggMzc1LjkzMSAxMDEuMDQ0QzM3Ny4yMjcgMTAwLjI3NiAzNzguNjQzIDk5Ljg5MiAzODAuMTc5IDk5Ljg5MkMzODAuODk5IDk5Ljg5MiAzODEuNTExIDk5Ljk1MiAzODIuMDE1IDEwMC4wNzJDMzgyLjU0MyAxMDAuMTY4IDM4My4wNzEgMTAwLjM0OCAzODMuNTk5IDEwMC42MTJMMzgyLjczNSAxMDQuMTA0QzM4Mi4xNTkgMTAzLjkxMiAzODEuNjQzIDEwMy43OCAzODEuMTg3IDEwMy43MDhDMzgwLjc1NSAxMDMuNjEyIDM4MC4yMDMgMTAzLjU2NCAzNzkuNTMxIDEwMy41NjRDMzc4LjMwNyAxMDMuNTY0IDM3Ny4xMzEgMTAzLjkxMiAzNzYuMDAzIDEwNC42MDhDMzc0Ljg3NSAxMDUuMzA0IDM3My44NTUgMTA2LjUxNiAzNzIuOTQzIDEwOC4yNDRWMTE4SDM2OC43NjdaIi8+JiN4YTs8cGF0aCBmaWxsPSIjMjQyNTI2IiBkPSJNMzk0LjM5NyAxMTguNDMyQzM5Mi4zMzMgMTE4LjQzMiAzOTAuODMzIDExNy44MiAzODkuODk3IDExNi41OTZDMzg4Ljk2MSAxMTUuMzQ4IDM4OC40OTMgMTEzLjU3MiAzODguNDkzIDExMS4yNjhWMTAwLjMyNEgzOTIuNjMzVjExMC43MjhDMzkyLjYzMyAxMTIuMTY4IDM5Mi44NzMgMTEzLjIyNCAzOTMuMzUzIDExMy44OTZDMzkzLjg1NyAxMTQuNTQ0IDM5NC43MjEgMTE0Ljg2OCAzOTUuOTQ1IDExNC44NjhDMzk2Ljc4NSAxMTQuODY4IDM5Ny41MjkgMTE0LjY3NiAzOTguMTc3IDExNC4yOTJDMzk4Ljg0OSAxMTMuOTA4IDM5OS41ODEgMTEzLjIyNCA0MDAuMzczIDExMi4yNFYxMDAuMzI0SDQwNC41MTNWMTE4SDQwMS4xMjlMNDAwLjgwNSAxMTUuMTkySDQwMC42NjFDMzk5LjgyMSAxMTYuMTc2IDM5OC44OTcgMTE2Ljk2OCAzOTcuODg5IDExNy41NjhDMzk2Ljg4MSAxMTguMTQ0IDM5NS43MTcgMTE4LjQzMiAzOTQuMzk3IDExOC40MzJaIi8+JiN4YTs8cGF0aCBmaWxsPSIjMjQyNTI2IiBkPSJNNDIyLjI5NSAxMTguNDMyQzQyMC4yMzEgMTE4LjQzMiA0MTguNjU5IDExNy44MzIgNDE3LjU3OSAxMTYuNjMyQzQxNi41MjMgMTE1LjQzMiA0MTUuOTk1IDExMy43NCA0MTUuOTk1IDExMS41NTZWOTUuODZINDEwLjA5MVY5Mi41ODRINDIwLjEzNVYxMTEuNzcyQzQyMC4xMzUgMTEyLjk3MiA0MjAuNDM1IDExMy44MjQgNDIxLjAzNSAxMTQuMzI4QzQyMS42NTkgMTE0LjgwOCA0MjIuNDE1IDExNS4wNDggNDIzLjMwMyAxMTUuMDQ4QzQyNC4yMzkgMTE1LjA0OCA0MjUuMjQ3IDExNC44MiA0MjYuMzI3IDExNC4zNjRMNDI3LjI5OSAxMTcuNDI0QzQyNi40MzUgMTE3Ljc2IDQyNS42NDMgMTE4LjAxMiA0MjQuOTIzIDExOC4xOEM0MjQuMjAzIDExOC4zNDggNDIzLjMyNyAxMTguNDMyIDQyMi4yOTUgMTE4LjQzMloiLz4mI3hhOzxwYXRoIGZpbGw9IiMyNDI1MjYiIGQ9Ik00NDEuNjI1IDExOC40MzJDNDQwLjI4MSAxMTguNDMyIDQzOS4wMjEgMTE4LjIyOCA0MzcuODQ1IDExNy44MkM0MzYuNjY5IDExNy4zODggNDM1LjYzNyAxMTYuNzc2IDQzNC43NDkgMTE1Ljk4NEM0MzMuODg1IDExNS4xOTIgNDMzLjIwMSAxMTQuMjIgNDMyLjY5NyAxMTMuMDY4QzQzMi4xOTMgMTExLjkxNiA0MzEuOTQxIDExMC42MDggNDMxLjk0MSAxMDkuMTQ0QzQzMS45NDEgMTA3LjcwNCA0MzIuMTkzIDEwNi40MiA0MzIuNjk3IDEwNS4yOTJDNDMzLjIwMSAxMDQuMTQgNDMzLjg3MyAxMDMuMTY4IDQzNC43MTMgMTAyLjM3NkM0MzUuNTc3IDEwMS41NiA0MzYuNTQ5IDEwMC45NDggNDM3LjYyOSAxMDAuNTRDNDM4LjczMyAxMDAuMTA4IDQzOS44ODUgOTkuODkyIDQ0MS4wODUgOTkuODkyQzQ0Mi40MDUgOTkuODkyIDQ0My41NjkgMTAwLjEwOCA0NDQuNTc3IDEwMC41NEM0NDUuNTg1IDEwMC45NDggNDQ2LjQzNyAxMDEuNTI0IDQ0Ny4xMzMgMTAyLjI2OEM0NDcuODI5IDEwMi45ODggNDQ4LjM1NyAxMDMuODY0IDQ0OC43MTcgMTA0Ljg5NkM0NDkuMDc3IDEwNS45MjggNDQ5LjI1NyAxMDcuMDU2IDQ0OS4yNTcgMTA4LjI4QzQ0OS4yNTcgMTA4LjY4OCA0NDkuMjMzIDEwOS4wODQgNDQ5LjE4NSAxMDkuNDY4QzQ0OS4xNjEgMTA5LjgyOCA0NDkuMTI1IDExMC4xMjggNDQ5LjA3NyAxMTAuMzY4SDQzNi4wODFDNDM2LjMyMSAxMTIuMDI0IDQzNi45ODEgMTEzLjI0OCA0MzguMDYxIDExNC4wNEM0MzkuMTQxIDExNC44MzIgNDQwLjUwOSAxMTUuMjI4IDQ0Mi4xNjUgMTE1LjIyOEM0NDMuMTAxIDExNS4yMjggNDQzLjk2NSAxMTUuMDk2IDQ0NC43NTcgMTE0LjgzMkM0NDUuNTQ5IDExNC41NjggNDQ2LjM0MSAxMTQuMjA4IDQ0Ny4xMzMgMTEzLjc1Mkw0NDguNTM3IDExNi4zNDRDNDQ3LjYwMSAxMTYuOTY4IDQ0Ni41MzMgMTE3LjQ3MiA0NDUuMzMzIDExNy44NTZDNDQ0LjE1NyAxMTguMjQgNDQyLjkyMSAxMTguNDMyIDQ0MS42MjUgMTE4LjQzMlpNNDQxLjE5MyAxMDMuMDk2QzQzOS45NjkgMTAzLjA5NiA0MzguODg5IDEwMy40NTYgNDM3Ljk1MyAxMDQuMTc2QzQzNy4wNDEgMTA0Ljg5NiA0MzYuNDUzIDEwNS45NzYgNDM2LjE4OSAxMDcuNDE2SDQ0NS41ODVDNDQ1LjQ0MSAxMDUuOTc2IDQ0NC45ODUgMTA0Ljg5NiA0NDQuMjE3IDEwNC4xNzZDNDQzLjQ3MyAxMDMuNDU2IDQ0Mi40NjUgMTAzLjA5NiA0NDEuMTkzIDEwMy4wOTZaIi8+JiN4YTs8cGF0aCBmaWxsPSIjMjQyNTI2IiBkPSJNNDg4Ljk5NyAxMjMuNDcyQzQ4Ny44NDUgMTIzLjQ3MiA0ODYuODQ5IDEyMy4zODggNDg2LjAwOSAxMjMuMjJDNDg1LjE2OSAxMjMuMDc2IDQ4NC40NzMgMTIyLjgxMiA0ODMuOTIxIDEyMi40MjhDNDgzLjM2OSAxMjIuMDQ0IDQ4Mi45NjEgMTIxLjUyOCA0ODIuNjk3IDEyMC44OEM0ODIuNDMzIDEyMC4yNTYgNDgyLjMwMSAxMTkuNDY0IDQ4Mi4zMDEgMTE4LjUwNEM0ODIuMzAxIDExNy44NTYgNDgyLjMxMyAxMTcuMjY4IDQ4Mi4zMzcgMTE2Ljc0QzQ4Mi4zODUgMTE2LjE4OCA0ODIuNDMzIDExNS42NiA0ODIuNDgxIDExNS4xNTZDNDgyLjUyOSAxMTQuNjUyIDQ4Mi41NjUgMTE0LjE0OCA0ODIuNTg5IDExMy42NDRDNDgyLjYzNyAxMTMuMTE2IDQ4Mi42NjEgMTEyLjU1MiA0ODIuNjYxIDExMS45NTJDNDgyLjY2MSAxMTEuNjQgNDgyLjU4OSAxMTEuMzI4IDQ4Mi40NDUgMTExLjAxNkM0ODIuMzAxIDExMC42OCA0ODIuMDM3IDExMC4zOTIgNDgxLjY1MyAxMTAuMTUyQzQ4MS4yNjkgMTA5Ljg4OCA0ODAuNzQxIDEwOS42NzIgNDgwLjA2OSAxMDkuNTA0QzQ3OS40MjEgMTA5LjMzNiA0NzguNTkzIDEwOS4yNTIgNDc3LjU4NSAxMDkuMjUyVjEwNi43MzJDNDc4LjU5MyAxMDYuNzMyIDQ3OS40MjEgMTA2LjY0OCA0ODAuMDY5IDEwNi40OEM0ODAuNzQxIDEwNi4zMTIgNDgxLjI2OSAxMDYuMTA4IDQ4MS42NTMgMTA1Ljg2OEM0ODIuMDM3IDEwNS42MDQgNDgyLjMwMSAxMDUuMzE2IDQ4Mi40NDUgMTA1LjAwNEM0ODIuNTg5IDEwNC42OTIgNDgyLjY2MSAxMDQuMzY4IDQ4Mi42NjEgMTA0LjAzMkM0ODIuNjYxIDEwMi45MDQgNDgyLjYwMSAxMDEuODQ4IDQ4Mi40ODEgMTAwLjg2NEM0ODIuMzYxIDk5Ljg1NiA0ODIuMzAxIDk4LjcyOCA0ODIuMzAxIDk3LjQ4QzQ4Mi4zMDEgOTYuNTIgNDgyLjQzMyA5NS43MjggNDgyLjY5NyA5NS4xMDRDNDgyLjk2MSA5NC40NTYgNDgzLjM2OSA5My45NCA0ODMuOTIxIDkzLjU1NkM0ODQuNDczIDkzLjE3MiA0ODUuMTY5IDkyLjkwOCA0ODYuMDA5IDkyLjc2NEM0ODYuODQ5IDkyLjU5NiA0ODcuODQ1IDkyLjUxMiA0ODguOTk3IDkyLjUxMkg0OTEuNDgxVjk0Ljc4SDQ4OS44MjVDNDg4Ljk4NSA5NC43OCA0ODguMzAxIDk0LjgyOCA0ODcuNzczIDk0LjkyNEM0ODcuMjQ1IDk1LjAyIDQ4Ni44MjUgOTUuMTg4IDQ4Ni41MTMgOTUuNDI4QzQ4Ni4yMjUgOTUuNjQ0IDQ4Ni4wMjEgOTUuOTQ0IDQ4NS45MDEgOTYuMzI4QzQ4NS44MDUgOTYuNjg4IDQ4NS43NTcgOTcuMTMyIDQ4NS43NTcgOTcuNjZDNDg1Ljc1NyA5OC42NjggNDg1Ljc4MSA5OS42NzYgNDg1LjgyOSAxMDAuNjg0QzQ4NS45MDEgMTAxLjY5MiA0ODUuOTM3IDEwMi43NDggNDg1LjkzNyAxMDMuODUyQzQ4NS45MzcgMTA1LjEyNCA0ODUuNjg1IDEwNi4wNzIgNDg1LjE4MSAxMDYuNjk2QzQ4NC42NzcgMTA3LjI5NiA0ODMuNzg5IDEwNy43MDQgNDgyLjUxNyAxMDcuOTJWMTA4LjA2NEM0ODMuNzg5IDEwOC4yOCA0ODQuNjc3IDEwOC43IDQ4NS4xODEgMTA5LjMyNEM0ODUuNjg1IDEwOS45MjQgNDg1LjkzNyAxMTAuODYgNDg1LjkzNyAxMTIuMTMyQzQ4NS45MzcgMTEzLjI4NCA0ODUuOTAxIDExNC4zNCA0ODUuODI5IDExNS4zQzQ4NS43ODEgMTE2LjI2IDQ4NS43NTcgMTE3LjI2OCA0ODUuNzU3IDExOC4zMjRDNDg1Ljc1NyAxMTguODc2IDQ4NS44MDUgMTE5LjMzMiA0ODUuOTAxIDExOS42OTJDNDg2LjAyMSAxMjAuMDUyIDQ4Ni4yMjUgMTIwLjM0IDQ4Ni41MTMgMTIwLjU1NkM0ODYuODI1IDEyMC43OTYgNDg3LjI0NSAxMjAuOTY0IDQ4Ny43NzMgMTIxLjA2QzQ4OC4zMDEgMTIxLjE1NiA0ODguOTg1IDEyMS4yMDQgNDg5LjgyNSAxMjEuMjA0SDQ5MS40ODFWMTIzLjQ3Mkg0ODguOTk3WiIvPiYjeGE7PHBhdGggZmlsbD0iIzI0MjUyNiIgZD0iTTI0NC42MTYgMTY4LjQzMkMyNDMuNzc2IDE2OC40MzIgMjQyLjkgMTY4LjIyOCAyNDEuOTg4IDE2Ny44MkMyNDEuMDc2IDE2Ny40MTIgMjQwLjIzNiAxNjYuODI0IDIzOS40NjggMTY2LjA1NkgyMzkuMzZMMjM5IDE2OEgyMzUuNzI0VjE0Mi41ODRIMjM5LjlWMTQ5LjEzNkwyMzkuNzIgMTUyLjIzMkgyMzkuODI4QzI0MC41NzIgMTUxLjUxMiAyNDEuNDEyIDE1MC45NDggMjQyLjM0OCAxNTAuNTRDMjQzLjMwOCAxNTAuMTA4IDI0NC4yNjggMTQ5Ljg5MiAyNDUuMjI4IDE0OS44OTJDMjQ2LjM4IDE0OS44OTIgMjQ3LjQgMTUwLjEwOCAyNDguMjg4IDE1MC41NEMyNDkuMTc2IDE1MC45NDggMjQ5LjkzMiAxNTEuNTQ4IDI1MC41NTYgMTUyLjM0QzI1MS4xOCAxNTMuMTA4IDI1MS42NDggMTU0LjA0NCAyNTEuOTYgMTU1LjE0OEMyNTIuMjk2IDE1Ni4yNTIgMjUyLjQ2NCAxNTcuNDg4IDI1Mi40NjQgMTU4Ljg1NkMyNTIuNDY0IDE2MC4zNjggMjUyLjI0OCAxNjEuNzI0IDI1MS44MTYgMTYyLjkyNEMyNTEuMzg0IDE2NC4xIDI1MC43OTYgMTY1LjA5NiAyNTAuMDUyIDE2NS45MTJDMjQ5LjMzMiAxNjYuNzI4IDI0OC40OTIgMTY3LjM1MiAyNDcuNTMyIDE2Ny43ODRDMjQ2LjU5NiAxNjguMjE2IDI0NS42MjQgMTY4LjQzMiAyNDQuNjE2IDE2OC40MzJaTTI0My43ODggMTY1LjAxMkMyNDUuMDM2IDE2NS4wMTIgMjQ2LjA4IDE2NC41MDggMjQ2LjkyIDE2My41QzI0Ny43NiAxNjIuNDY4IDI0OC4xOCAxNjAuOTQ0IDI0OC4xOCAxNTguOTI4QzI0OC4xOCAxNTcuMTUyIDI0Ny44NTYgMTU1Ljc3MiAyNDcuMjA4IDE1NC43ODhDMjQ2LjU2IDE1My44MDQgMjQ1LjUxNiAxNTMuMzEyIDI0NC4wNzYgMTUzLjMxMkMyNDMuNDA0IDE1My4zMTIgMjQyLjcyIDE1My40OCAyNDIuMDI0IDE1My44MTZDMjQxLjMyOCAxNTQuMTUyIDI0MC42MiAxNTQuNjkyIDIzOS45IDE1NS40MzZWMTYzLjM5MkMyNDAuNTQ4IDE2My45OTIgMjQxLjIyIDE2NC40MTIgMjQxLjkxNiAxNjQuNjUyQzI0Mi42MTIgMTY0Ljg5MiAyNDMuMjM2IDE2NS4wMTIgMjQzLjc4OCAxNjUuMDEyWiIvPiYjeGE7PHBhdGggZmlsbD0iIzI0MjUyNiIgZD0iTTI2My4xMTggMTY4LjQzMkMyNjIuMjU0IDE2OC40MzIgMjYxLjQ2MiAxNjguMyAyNjAuNzQyIDE2OC4wMzZDMjYwLjAyMiAxNjcuNzk2IDI1OS4zOTggMTY3LjQ0OCAyNTguODcgMTY2Ljk5MkMyNTguMzQyIDE2Ni41MzYgMjU3LjkzNCAxNjUuOTk2IDI1Ny42NDYgMTY1LjM3MkMyNTcuMzU4IDE2NC43MjQgMjU3LjIxNCAxNjQuMDE2IDI1Ny4yMTQgMTYzLjI0OEMyNTcuMjE0IDE2Mi4yNjQgMjU3LjQ0MiAxNjEuNCAyNTcuODk4IDE2MC42NTZDMjU4LjM1NCAxNTkuODg4IDI1OS4wNzQgMTU5LjI0IDI2MC4wNTggMTU4LjcxMkMyNjEuMDQyIDE1OC4xODQgMjYyLjMwMiAxNTcuNzUyIDI2My44MzggMTU3LjQxNkMyNjUuMzc0IDE1Ny4wOCAyNjcuMjM0IDE1Ni44NCAyNjkuNDE4IDE1Ni42OTZDMjY5LjM0NiAxNTUuNjg4IDI2OC45ODYgMTU0Ljg2IDI2OC4zMzggMTU0LjIxMkMyNjcuNjkgMTUzLjU2NCAyNjYuNjQ2IDE1My4yNCAyNjUuMjA2IDE1My4yNEMyNjQuMTk4IDE1My4yNCAyNjMuMjAyIDE1My40MzIgMjYyLjIxOCAxNTMuODE2QzI2MS4yNTggMTU0LjE3NiAyNjAuMzIyIDE1NC42MDggMjU5LjQxIDE1NS4xMTJMMjU3Ljg5OCAxNTIuMzRDMjU4Ljk3OCAxNTEuNzE2IDI2MC4yMTQgMTUxLjE1MiAyNjEuNjA2IDE1MC42NDhDMjYyLjk5OCAxNTAuMTQ0IDI2NC40NSAxNDkuODkyIDI2NS45NjIgMTQ5Ljg5MkMyNjguNDM0IDE0OS44OTIgMjcwLjMxOCAxNTAuNTUyIDI3MS42MTQgMTUxLjg3MkMyNzIuOTEgMTUzLjE2OCAyNzMuNTU4IDE1NS4wNTIgMjczLjU1OCAxNTcuNTI0VjE2OEgyNzAuMTc0TDI2OS44NSAxNjUuODA0SDI2OS43NDJDMjY4LjgwNiAxNjYuNTI0IDI2Ny43NjIgMTY3LjE0OCAyNjYuNjEgMTY3LjY3NkMyNjUuNDgyIDE2OC4xOCAyNjQuMzE4IDE2OC40MzIgMjYzLjExOCAxNjguNDMyWk0yNjQuMzc4IDE2NS4xOTJDMjY1LjI2NiAxNjUuMTkyIDI2Ni4xMTggMTY1IDI2Ni45MzQgMTY0LjYxNkMyNjcuNzc0IDE2NC4yMDggMjY4LjYwMiAxNjMuNjggMjY5LjQxOCAxNjMuMDMyVjE1OS4yODhDMjY3LjgzNCAxNTkuNDA4IDI2Ni41MTQgMTU5LjU3NiAyNjUuNDU4IDE1OS43OTJDMjY0LjQwMiAxNTkuOTg0IDI2My41NjIgMTYwLjIzNiAyNjIuOTM4IDE2MC41NDhDMjYyLjMxNCAxNjAuODYgMjYxLjg3IDE2MS4yMiAyNjEuNjA2IDE2MS42MjhDMjYxLjM0MiAxNjIuMDEyIDI2MS4yMSAxNjIuNDQ0IDI2MS4yMSAxNjIuOTI0QzI2MS4yMSAxNjMuNzE2IDI2MS41MSAxNjQuMjkyIDI2Mi4xMSAxNjQuNjUyQzI2Mi43MzQgMTY1LjAxMiAyNjMuNDkgMTY1LjE5MiAyNjQuMzc4IDE2NS4xOTJaIi8+JiN4YTs8cGF0aCBmaWxsPSIjMjQyNTI2IiBkPSJNMjg4LjkyOCAxNjguNDMyQzI4Ny41MzYgMTY4LjQzMiAyODYuMjQgMTY4LjIyOCAyODUuMDQgMTY3LjgyQzI4My44NjQgMTY3LjQxMiAyODIuODMyIDE2Ni44MTIgMjgxLjk0NCAxNjYuMDJDMjgxLjA4IDE2NS4yMjggMjgwLjM5NiAxNjQuMjU2IDI3OS44OTIgMTYzLjEwNEMyNzkuNDEyIDE2MS45NTIgMjc5LjE3MiAxNjAuNjQ0IDI3OS4xNzIgMTU5LjE4QzI3OS4xNzIgMTU3LjcxNiAyNzkuNDM2IDE1Ni40MDggMjc5Ljk2NCAxNTUuMjU2QzI4MC41MTYgMTU0LjEwNCAyODEuMjQ4IDE1My4xMzIgMjgyLjE2IDE1Mi4zNEMyODMuMDcyIDE1MS41NDggMjg0LjE0IDE1MC45NDggMjg1LjM2NCAxNTAuNTRDMjg2LjU4OCAxNTAuMTA4IDI4Ny44NzIgMTQ5Ljg5MiAyODkuMjE2IDE0OS44OTJDMjkwLjY1NiAxNDkuODkyIDI5MS45MTYgMTUwLjEzMiAyOTIuOTk2IDE1MC42MTJDMjk0LjEgMTUxLjA5MiAyOTUuMDI0IDE1MS42OCAyOTUuNzY4IDE1Mi4zNzZMMjkzLjc4OCAxNTQuOTY4QzI5My4wOTIgMTU0LjQxNiAyOTIuMzg0IDE1My45OTYgMjkxLjY2NCAxNTMuNzA4QzI5MC45NjggMTUzLjQyIDI5MC4yMjQgMTUzLjI3NiAyODkuNDMyIDE1My4yNzZDMjg3LjY1NiAxNTMuMjc2IDI4Ni4yMTYgMTUzLjgxNiAyODUuMTEyIDE1NC44OTZDMjg0LjAwOCAxNTUuOTUyIDI4My40NTYgMTU3LjM4IDI4My40NTYgMTU5LjE4QzI4My40NTYgMTYwLjA2OCAyODMuNiAxNjAuODcyIDI4My44ODggMTYxLjU5MkMyODQuMTc2IDE2Mi4zMTIgMjg0LjU3MiAxNjIuOTM2IDI4NS4wNzYgMTYzLjQ2NEMyODUuNjA0IDE2My45NjggMjg2LjIyOCAxNjQuMzY0IDI4Ni45NDggMTY0LjY1MkMyODcuNjY4IDE2NC45MTYgMjg4LjQ2IDE2NS4wNDggMjg5LjMyNCAxNjUuMDQ4QzI5MC4zMzIgMTY1LjA0OCAyOTEuMjQ0IDE2NC44NTYgMjkyLjA2IDE2NC40NzJDMjkyLjkgMTY0LjA4OCAyOTMuNjY4IDE2My42MzIgMjk0LjM2NCAxNjMuMTA0TDI5Ni4wOTIgMTY1Ljc2OEMyOTUuMDYgMTY2LjY1NiAyOTMuOTIgMTY3LjMyOCAyOTIuNjcyIDE2Ny43ODRDMjkxLjQ0OCAxNjguMjE2IDI5MC4yIDE2OC40MzIgMjg4LjkyOCAxNjguNDMyWiIvPiYjeGE7PHBhdGggZmlsbD0iIzI0MjUyNiIgZD0iTTMwMS42NyAxNjhWMTQyLjU4NEgzMDUuODQ2VjE1OC40OTZIMzA1Ljk5TDMxMy45NDYgMTUwLjMyNEgzMTguNTU0TDMxMS42NzggMTU3LjM4TDMxOS4zMSAxNjhIMzE0Ljc3NEwzMDkuMTk0IDE1OS45MzZMMzA1Ljg0NiAxNjMuMzkyVjE2OEgzMDEuNjdaIi8+JiN4YTs8cGF0aCBmaWxsPSIjMjQyNTI2IiBkPSJNMzMwLjYxMiAxNzUuODEyQzMyOS4zODggMTc1LjgxMiAzMjguMjg0IDE3NS43MTYgMzI3LjMgMTc1LjUyNEMzMjYuMzE2IDE3NS4zMzIgMzI1LjQ2NCAxNzUuMDMyIDMyNC43NDQgMTc0LjYyNEMzMjQuMDQ4IDE3NC4yNCAzMjMuNTA4IDE3My43NDggMzIzLjEyNCAxNzMuMTQ4QzMyMi43NCAxNzIuNTcyIDMyMi41NDggMTcxLjg4OCAzMjIuNTQ4IDE3MS4wOTZDMzIyLjU0OCAxNjkuNjU2IDMyMy40ODQgMTY4LjQyIDMyNS4zNTYgMTY3LjM4OFYxNjcuMjQ0QzMyNC44NzYgMTY2Ljk1NiAzMjQuNDU2IDE2Ni41ODQgMzI0LjA5NiAxNjYuMTI4QzMyMy43MzYgMTY1LjY0OCAzMjMuNTU2IDE2NS4wMzYgMzIzLjU1NiAxNjQuMjkyQzMyMy41NTYgMTYzLjcxNiAzMjMuNzQ4IDE2My4xMjggMzI0LjEzMiAxNjIuNTI4QzMyNC41MTYgMTYxLjkyOCAzMjUuMDMyIDE2MS40MTIgMzI1LjY4IDE2MC45OFYxNjAuODM2QzMyNS4wNTYgMTYwLjM4IDMyNC41MTYgMTU5Ljc2OCAzMjQuMDYgMTU5QzMyMy42MjggMTU4LjIzMiAzMjMuNDEyIDE1Ny4zMiAzMjMuNDEyIDE1Ni4yNjRDMzIzLjQxMiAxNTUuMjU2IDMyMy42MDQgMTU0LjM1NiAzMjMuOTg4IDE1My41NjRDMzI0LjM5NiAxNTIuNzcyIDMyNC45MjQgMTUyLjExMiAzMjUuNTcyIDE1MS41ODRDMzI2LjI0NCAxNTEuMDMyIDMyNy4wMTIgMTUwLjYxMiAzMjcuODc2IDE1MC4zMjRDMzI4Ljc2NCAxNTAuMDM2IDMyOS43IDE0OS44OTIgMzMwLjY4NCAxNDkuODkyQzMzMS42OTIgMTQ5Ljg5MiAzMzIuNjE2IDE1MC4wMzYgMzMzLjQ1NiAxNTAuMzI0SDM0MC42OTJWMTUzLjQ5MkgzMzYuNjI0QzMzNi45MzYgMTUzLjgyOCAzMzcuMiAxNTQuMjYgMzM3LjQxNiAxNTQuNzg4QzMzNy42NTYgMTU1LjI5MiAzMzcuNzc2IDE1NS44MzIgMzM3Ljc3NiAxNTYuNDA4QzMzNy43NzYgMTU3LjM5MiAzMzcuNTg0IDE1OC4yNTYgMzM3LjIgMTU5QzMzNi44NCAxNTkuNzQ0IDMzNi4zMzYgMTYwLjM2OCAzMzUuNjg4IDE2MC44NzJDMzM1LjA2NCAxNjEuMzc2IDMzNC4zMiAxNjEuNzYgMzMzLjQ1NiAxNjIuMDI0QzMzMi41OTIgMTYyLjI4OCAzMzEuNjY4IDE2Mi40MiAzMzAuNjg0IDE2Mi40MkMzMjkuODQ0IDE2Mi40MiAzMjguOTQ0IDE2Mi4yNTIgMzI3Ljk4NCAxNjEuOTE2QzMyNy4yNjQgMTYyLjM0OCAzMjYuOTA0IDE2Mi45IDMyNi45MDQgMTYzLjU3MkMzMjYuOTA0IDE2NC42NzYgMzI4LjAyIDE2NS4yMjggMzMwLjI1MiAxNjUuMjI4SDMzMy44NTJDMzM2LjE1NiAxNjUuMjI4IDMzNy44ODQgMTY1LjU2NCAzMzkuMDM2IDE2Ni4yMzZDMzQwLjIxMiAxNjYuODg0IDM0MC44IDE2Ny45ODggMzQwLjggMTY5LjU0OEMzNDAuOCAxNzAuNDEyIDM0MC41NiAxNzEuMjI4IDM0MC4wOCAxNzEuOTk2QzMzOS42IDE3Mi43NjQgMzM4LjkxNiAxNzMuNDI0IDMzOC4wMjggMTczLjk3NkMzMzcuMTY0IDE3NC41NTIgMzM2LjA5NiAxNzQuOTk2IDMzNC44MjQgMTc1LjMwOEMzMzMuNTc2IDE3NS42NDQgMzMyLjE3MiAxNzUuODEyIDMzMC42MTIgMTc1LjgxMlpNMzMwLjY4NCAxNTkuNzkyQzMzMS41OTYgMTU5Ljc5MiAzMzIuMzc2IDE1OS40OTIgMzMzLjAyNCAxNTguODkyQzMzMy42OTYgMTU4LjI2OCAzMzQuMDMyIDE1Ny4zOTIgMzM0LjAzMiAxNTYuMjY0QzMzNC4wMzIgMTU1LjE4NCAzMzMuNjk2IDE1NC4zMzIgMzMzLjAyNCAxNTMuNzA4QzMzMi4zNzYgMTUzLjA4NCAzMzEuNTk2IDE1Mi43NzIgMzMwLjY4NCAxNTIuNzcyQzMyOS43NzIgMTUyLjc3MiAzMjguOTggMTUzLjA4NCAzMjguMzA4IDE1My43MDhDMzI3LjY2IDE1NC4zMzIgMzI3LjMzNiAxNTUuMTg0IDMyNy4zMzYgMTU2LjI2NEMzMjcuMzM2IDE1Ny4zOTIgMzI3LjY2IDE1OC4yNjggMzI4LjMwOCAxNTguODkyQzMyOC45OCAxNTkuNDkyIDMyOS43NzIgMTU5Ljc5MiAzMzAuNjg0IDE1OS43OTJaTTMzMS4xMTYgMTczLjA3NkMzMzEuOTggMTczLjA3NiAzMzIuNzYgMTcyLjk5MiAzMzMuNDU2IDE3Mi44MjRDMzM0LjE1MiAxNzIuNjggMzM0Ljc1MiAxNzIuNDc2IDMzNS4yNTYgMTcyLjIxMkMzMzUuNzYgMTcxLjk0OCAzMzYuMTQ0IDE3MS42NDggMzM2LjQwOCAxNzEuMzEyQzMzNi42NzIgMTcwLjk3NiAzMzYuODA0IDE3MC42MTYgMzM2LjgwNCAxNzAuMjMyQzMzNi44MDQgMTY5LjUzNiAzMzYuNTA0IDE2OS4wNjggMzM1LjkwNCAxNjguODI4QzMzNS4zMjggMTY4LjYxMiAzMzQuNDQgMTY4LjUwNCAzMzMuMjQgMTY4LjUwNEgzMzAuNDMyQzMyOS4zMDQgMTY4LjUwNCAzMjguNDA0IDE2OC40MiAzMjcuNzMyIDE2OC4yNTJDMzI3LjEwOCAxNjguNjEyIDMyNi42NjQgMTY4Ljk4NCAzMjYuNCAxNjkuMzY4QzMyNi4xMzYgMTY5Ljc1MiAzMjYuMDA0IDE3MC4xNDggMzI2LjAwNCAxNzAuNTU2QzMyNi4wMDQgMTcxLjM0OCAzMjYuNDM2IDE3MS45NiAzMjcuMyAxNzIuMzkyQzMyOC4xODggMTcyLjg0OCAzMjkuNDYgMTczLjA3NiAzMzEuMTE2IDE3My4wNzZaIi8+JiN4YTs8cGF0aCBmaWxsPSIjMjQyNTI2IiBkPSJNMzQ2Ljg4MiAxNjhWMTUwLjMyNEgzNTAuMzAyTDM1MC42NjIgMTU0LjMySDM1MC43N0MzNTEuNjgyIDE1Mi44OCAzNTIuNzc0IDE1MS43ODggMzU0LjA0NiAxNTEuMDQ0QzM1NS4zNDIgMTUwLjI3NiAzNTYuNzU4IDE0OS44OTIgMzU4LjI5NCAxNDkuODkyQzM1OS4wMTQgMTQ5Ljg5MiAzNTkuNjI2IDE0OS45NTIgMzYwLjEzIDE1MC4wNzJDMzYwLjY1OCAxNTAuMTY4IDM2MS4xODYgMTUwLjM0OCAzNjEuNzE0IDE1MC42MTJMMzYwLjg1IDE1NC4xMDRDMzYwLjI3NCAxNTMuOTEyIDM1OS43NTggMTUzLjc4IDM1OS4zMDIgMTUzLjcwOEMzNTguODcgMTUzLjYxMiAzNTguMzE4IDE1My41NjQgMzU3LjY0NiAxNTMuNTY0QzM1Ni40MjIgMTUzLjU2NCAzNTUuMjQ2IDE1My45MTIgMzU0LjExOCAxNTQuNjA4QzM1Mi45OSAxNTUuMzA0IDM1MS45NyAxNTYuNTE2IDM1MS4wNTggMTU4LjI0NFYxNjhIMzQ2Ljg4MloiLz4mI3hhOzxwYXRoIGZpbGw9IiMyNDI1MjYiIGQ9Ik0zNzQuODg3IDE2OC40MzJDMzczLjczNSAxNjguNDMyIDM3Mi42MTkgMTY4LjIyOCAzNzEuNTM5IDE2Ny44MkMzNzAuNDU5IDE2Ny40MTIgMzY5LjUxMSAxNjYuODEyIDM2OC42OTUgMTY2LjAyQzM2Ny44NzkgMTY1LjIyOCAzNjcuMjE5IDE2NC4yNTYgMzY2LjcxNSAxNjMuMTA0QzM2Ni4yMzUgMTYxLjk1MiAzNjUuOTk1IDE2MC42NDQgMzY1Ljk5NSAxNTkuMThDMzY1Ljk5NSAxNTcuNzE2IDM2Ni4yMzUgMTU2LjQwOCAzNjYuNzE1IDE1NS4yNTZDMzY3LjIxOSAxNTQuMTA0IDM2Ny44NzkgMTUzLjEzMiAzNjguNjk1IDE1Mi4zNEMzNjkuNTExIDE1MS41NDggMzcwLjQ1OSAxNTAuOTQ4IDM3MS41MzkgMTUwLjU0QzM3Mi42MTkgMTUwLjEwOCAzNzMuNzM1IDE0OS44OTIgMzc0Ljg4NyAxNDkuODkyQzM3Ni4wMzkgMTQ5Ljg5MiAzNzcuMTU1IDE1MC4xMDggMzc4LjIzNSAxNTAuNTRDMzc5LjMxNSAxNTAuOTQ4IDM4MC4yNjMgMTUxLjU0OCAzODEuMDc5IDE1Mi4zNEMzODEuODk1IDE1My4xMzIgMzgyLjU0MyAxNTQuMTA0IDM4My4wMjMgMTU1LjI1NkMzODMuNTI3IDE1Ni40MDggMzgzLjc3OSAxNTcuNzE2IDM4My43NzkgMTU5LjE4QzM4My43NzkgMTYwLjY0NCAzODMuNTI3IDE2MS45NTIgMzgzLjAyMyAxNjMuMTA0QzM4Mi41NDMgMTY0LjI1NiAzODEuODk1IDE2NS4yMjggMzgxLjA3OSAxNjYuMDJDMzgwLjI2MyAxNjYuODEyIDM3OS4zMTUgMTY3LjQxMiAzNzguMjM1IDE2Ny44MkMzNzcuMTU1IDE2OC4yMjggMzc2LjAzOSAxNjguNDMyIDM3NC44ODcgMTY4LjQzMlpNMzc0Ljg4NyAxNjUuMDQ4QzM3Ni4zMjcgMTY1LjA0OCAzNzcuNDU1IDE2NC41MiAzNzguMjcxIDE2My40NjRDMzc5LjA4NyAxNjIuMzg0IDM3OS40OTUgMTYwLjk1NiAzNzkuNDk1IDE1OS4xOEMzNzkuNDk1IDE1Ny4zOCAzNzkuMDg3IDE1NS45NTIgMzc4LjI3MSAxNTQuODk2QzM3Ny40NTUgMTUzLjgxNiAzNzYuMzI3IDE1My4yNzYgMzc0Ljg4NyAxNTMuMjc2QzM3My40NDcgMTUzLjI3NiAzNzIuMzE5IDE1My44MTYgMzcxLjUwMyAxNTQuODk2QzM3MC42ODcgMTU1Ljk1MiAzNzAuMjc5IDE1Ny4zOCAzNzAuMjc5IDE1OS4xOEMzNzAuMjc5IDE2MC45NTYgMzcwLjY4NyAxNjIuMzg0IDM3MS41MDMgMTYzLjQ2NEMzNzIuMzE5IDE2NC41MiAzNzMuNDQ3IDE2NS4wNDggMzc0Ljg4NyAxNjUuMDQ4WiIvPiYjeGE7PHBhdGggZmlsbD0iIzI0MjUyNiIgZD0iTTM5NC4zOTcgMTY4LjQzMkMzOTIuMzMzIDE2OC40MzIgMzkwLjgzMyAxNjcuODIgMzg5Ljg5NyAxNjYuNTk2QzM4OC45NjEgMTY1LjM0OCAzODguNDkzIDE2My41NzIgMzg4LjQ5MyAxNjEuMjY4VjE1MC4zMjRIMzkyLjYzM1YxNjAuNzI4QzM5Mi42MzMgMTYyLjE2OCAzOTIuODczIDE2My4yMjQgMzkzLjM1MyAxNjMuODk2QzM5My44NTcgMTY0LjU0NCAzOTQuNzIxIDE2NC44NjggMzk1Ljk0NSAxNjQuODY4QzM5Ni43ODUgMTY0Ljg2OCAzOTcuNTI5IDE2NC42NzYgMzk4LjE3NyAxNjQuMjkyQzM5OC44NDkgMTYzLjkwOCAzOTkuNTgxIDE2My4yMjQgNDAwLjM3MyAxNjIuMjRWMTUwLjMyNEg0MDQuNTEzVjE2OEg0MDEuMTI5TDQwMC44MDUgMTY1LjE5Mkg0MDAuNjYxQzM5OS44MjEgMTY2LjE3NiAzOTguODk3IDE2Ni45NjggMzk3Ljg4OSAxNjcuNTY4QzM5Ni44ODEgMTY4LjE0NCAzOTUuNzE3IDE2OC40MzIgMzk0LjM5NyAxNjguNDMyWiIvPiYjeGE7PHBhdGggZmlsbD0iIzI0MjUyNiIgZD0iTTQxMC44MTEgMTY4VjE1MC4zMjRINDE0LjIzMUw0MTQuNTU1IDE1Mi45ODhINDE0LjY5OUM0MTUuNTM5IDE1Mi4xNDggNDE2LjQ2MyAxNTEuNDI4IDQxNy40NzEgMTUwLjgyOEM0MTguNTAzIDE1MC4yMDQgNDE5LjcwMyAxNDkuODkyIDQyMS4wNzEgMTQ5Ljg5MkM0MjMuMTExIDE0OS44OTIgNDI0LjYxMSAxNTAuNTE2IDQyNS41NzEgMTUxLjc2NEM0MjYuNTMxIDE1Mi45ODggNDI3LjAxMSAxNTQuNzUyIDQyNy4wMTEgMTU3LjA1NlYxNjhINDIyLjgzNVYxNTcuNTk2QzQyMi44MzUgMTU2LjE1NiA0MjIuNTgzIDE1NS4xMTIgNDIyLjA3OSAxNTQuNDY0QzQyMS41OTkgMTUzLjc5MiA0MjAuNzQ3IDE1My40NTYgNDE5LjUyMyAxNTMuNDU2QzQxOC42NTkgMTUzLjQ1NiA0MTcuODkxIDE1My42NiA0MTcuMjE5IDE1NC4wNjhDNDE2LjU0NyAxNTQuNDc2IDQxNS44MDMgMTU1LjEgNDE0Ljk4NyAxNTUuOTRWMTY4SDQxMC44MTFaIi8+JiN4YTs8cGF0aCBmaWxsPSIjMjQyNTI2IiBkPSJNNDM5LjIxMyAxNjguNDMyQzQzOC4wODUgMTY4LjQzMiA0MzcuMDUzIDE2OC4yMjggNDM2LjExNyAxNjcuODJDNDM1LjE4MSAxNjcuMzg4IDQzNC4zNzcgMTY2Ljc3NiA0MzMuNzA1IDE2NS45ODRDNDMzLjA1NyAxNjUuMTkyIDQzMi41NTMgMTY0LjIzMiA0MzIuMTkzIDE2My4xMDRDNDMxLjgzMyAxNjEuOTUyIDQzMS42NTMgMTYwLjY0NCA0MzEuNjUzIDE1OS4xOEM0MzEuNjUzIDE1Ny43NCA0MzEuODY5IDE1Ni40NDQgNDMyLjMwMSAxNTUuMjkyQzQzMi43MzMgMTU0LjE0IDQzMy4zMDkgMTUzLjE2OCA0MzQuMDI5IDE1Mi4zNzZDNDM0Ljc3MyAxNTEuNTg0IDQzNS42MTMgMTUwLjk3MiA0MzYuNTQ5IDE1MC41NEM0MzcuNDg1IDE1MC4xMDggNDM4LjQ1NyAxNDkuODkyIDQzOS40NjUgMTQ5Ljg5MkM0NDAuNDczIDE0OS44OTIgNDQxLjM2MSAxNTAuMDcyIDQ0Mi4xMjkgMTUwLjQzMkM0NDIuODk3IDE1MC43OTIgNDQzLjYyOSAxNTEuMzA4IDQ0NC4zMjUgMTUxLjk4SDQ0NC40MzNMNDQ0LjIxNyAxNDguOTkyVjE0Mi41ODRINDQ4LjM5M1YxNjhINDQ0Ljk3M0w0NDQuNjQ5IDE2NS45NDhINDQ0LjU0MUM0NDMuODQ1IDE2Ni42NDQgNDQzLjAyOSAxNjcuMjMyIDQ0Mi4wOTMgMTY3LjcxMkM0NDEuMTgxIDE2OC4xOTIgNDQwLjIyMSAxNjguNDMyIDQzOS4yMTMgMTY4LjQzMlpNNDQwLjIyMSAxNjUuMDEyQzQ0MS42ODUgMTY1LjAxMiA0NDMuMDE3IDE2NC4zMDQgNDQ0LjIxNyAxNjIuODg4VjE1NC45MzJDNDQzLjU5MyAxNTQuMzMyIDQ0Mi45NjkgMTUzLjkxMiA0NDIuMzQ1IDE1My42NzJDNDQxLjcyMSAxNTMuNDMyIDQ0MS4wODUgMTUzLjMxMiA0NDAuNDM3IDE1My4zMTJDNDM5LjgxMyAxNTMuMzEyIDQzOS4yMjUgMTUzLjQ0NCA0MzguNjczIDE1My43MDhDNDM4LjE0NSAxNTMuOTcyIDQzNy42NzcgMTU0LjM1NiA0MzcuMjY5IDE1NC44NkM0MzYuODYxIDE1NS4zNCA0MzYuNTM3IDE1NS45NCA0MzYuMjk3IDE1Ni42NkM0MzYuMDU3IDE1Ny4zOCA0MzUuOTM3IDE1OC4yMDggNDM1LjkzNyAxNTkuMTQ0QzQzNS45MzcgMTYxLjA2NCA0MzYuMzA5IDE2Mi41MjggNDM3LjA1MyAxNjMuNTM2QzQzNy43OTcgMTY0LjUyIDQzOC44NTMgMTY1LjAxMiA0NDAuMjIxIDE2NS4wMTJaIi8+JiN4YTs8cGF0aCBmaWxsPSIjMjQyNTI2IiBkPSJNNDYyLjQzMSAxNTYuMTkyQzQ2MS4zOTkgMTU2LjE5MiA0NjAuNTQ3IDE1NS44NTYgNDU5Ljg3NSAxNTUuMTg0QzQ1OS4yMDMgMTU0LjQ4OCA0NTguODY3IDE1My42MTIgNDU4Ljg2NyAxNTIuNTU2QzQ1OC44NjcgMTUxLjUgNDU5LjIwMyAxNTAuNjM2IDQ1OS44NzUgMTQ5Ljk2NEM0NjAuNTQ3IDE0OS4yNjggNDYxLjM5OSAxNDguOTIgNDYyLjQzMSAxNDguOTJDNDYzLjQ2MyAxNDguOTIgNDY0LjMxNSAxNDkuMjY4IDQ2NC45ODcgMTQ5Ljk2NEM0NjUuNjU5IDE1MC42MzYgNDY1Ljk5NSAxNTEuNSA0NjUuOTk1IDE1Mi41NTZDNDY1Ljk5NSAxNTMuNjEyIDQ2NS42NTkgMTU0LjQ4OCA0NjQuOTg3IDE1NS4xODRDNDY0LjMxNSAxNTUuODU2IDQ2My40NjMgMTU2LjE5MiA0NjIuNDMxIDE1Ni4xOTJaTTQ2Mi40MzEgMTY4LjQzMkM0NjEuMzk5IDE2OC40MzIgNDYwLjU0NyAxNjguMDk2IDQ1OS44NzUgMTY3LjQyNEM0NTkuMjAzIDE2Ni43MjggNDU4Ljg2NyAxNjUuODUyIDQ1OC44NjcgMTY0Ljc5NkM0NTguODY3IDE2My43NCA0NTkuMjAzIDE2Mi44NzYgNDU5Ljg3NSAxNjIuMjA0QzQ2MC41NDcgMTYxLjUwOCA0NjEuMzk5IDE2MS4xNiA0NjIuNDMxIDE2MS4xNkM0NjMuNDYzIDE2MS4xNiA0NjQuMzE1IDE2MS41MDggNDY0Ljk4NyAxNjIuMjA0QzQ2NS42NTkgMTYyLjg3NiA0NjUuOTk1IDE2My43NCA0NjUuOTk1IDE2NC43OTZDNDY1Ljk5NSAxNjUuODUyIDQ2NS42NTkgMTY2LjcyOCA0NjQuOTg3IDE2Ny40MjRDNDY0LjMxNSAxNjguMDk2IDQ2My40NjMgMTY4LjQzMiA0NjIuNDMxIDE2OC40MzJaIi8+JiN4YTs8cGF0aCBmaWxsPSIjMjQyNTI2IiBkPSJNNTAwLjA4MyAxNjhWMTUwLjMyNEg1MDMuNTAzTDUwMy44NjMgMTU0LjMySDUwMy45NzFDNTA0Ljg4MyAxNTIuODggNTA1Ljk3NSAxNTEuNzg4IDUwNy4yNDcgMTUxLjA0NEM1MDguNTQzIDE1MC4yNzYgNTA5Ljk1OSAxNDkuODkyIDUxMS40OTUgMTQ5Ljg5MkM1MTIuMjE1IDE0OS44OTIgNTEyLjgyNyAxNDkuOTUyIDUxMy4zMzEgMTUwLjA3MkM1MTMuODU5IDE1MC4xNjggNTE0LjM4NyAxNTAuMzQ4IDUxNC45MTUgMTUwLjYxMkw1MTQuMDUxIDE1NC4xMDRDNTEzLjQ3NSAxNTMuOTEyIDUxMi45NTkgMTUzLjc4IDUxMi41MDMgMTUzLjcwOEM1MTIuMDcxIDE1My42MTIgNTExLjUxOSAxNTMuNTY0IDUxMC44NDcgMTUzLjU2NEM1MDkuNjIzIDE1My41NjQgNTA4LjQ0NyAxNTMuOTEyIDUwNy4zMTkgMTU0LjYwOEM1MDYuMTkxIDE1NS4zMDQgNTA1LjE3MSAxNTYuNTE2IDUwNC4yNTkgMTU4LjI0NFYxNjhINTAwLjA4M1oiLz4mI3hhOzxwYXRoIGZpbGw9IiMyNDI1MjYiIGQ9Ik01MjkuMTY5IDE2OC40MzJDNTI3LjgyNSAxNjguNDMyIDUyNi41NjUgMTY4LjIyOCA1MjUuMzg5IDE2Ny44MkM1MjQuMjEzIDE2Ny4zODggNTIzLjE4MSAxNjYuNzc2IDUyMi4yOTMgMTY1Ljk4NEM1MjEuNDI5IDE2NS4xOTIgNTIwLjc0NSAxNjQuMjIgNTIwLjI0MSAxNjMuMDY4QzUxOS43MzcgMTYxLjkxNiA1MTkuNDg1IDE2MC42MDggNTE5LjQ4NSAxNTkuMTQ0QzUxOS40ODUgMTU3LjcwNCA1MTkuNzM3IDE1Ni40MiA1MjAuMjQxIDE1NS4yOTJDNTIwLjc0NSAxNTQuMTQgNTIxLjQxNyAxNTMuMTY4IDUyMi4yNTcgMTUyLjM3NkM1MjMuMTIxIDE1MS41NiA1MjQuMDkzIDE1MC45NDggNTI1LjE3MyAxNTAuNTRDNTI2LjI3NyAxNTAuMTA4IDUyNy40MjkgMTQ5Ljg5MiA1MjguNjI5IDE0OS44OTJDNTI5Ljk0OSAxNDkuODkyIDUzMS4xMTMgMTUwLjEwOCA1MzIuMTIxIDE1MC41NEM1MzMuMTI5IDE1MC45NDggNTMzLjk4MSAxNTEuNTI0IDUzNC42NzcgMTUyLjI2OEM1MzUuMzczIDE1Mi45ODggNTM1LjkwMSAxNTMuODY0IDUzNi4yNjEgMTU0Ljg5NkM1MzYuNjIxIDE1NS45MjggNTM2LjgwMSAxNTcuMDU2IDUzNi44MDEgMTU4LjI4QzUzNi44MDEgMTU4LjY4OCA1MzYuNzc3IDE1OS4wODQgNTM2LjcyOSAxNTkuNDY4QzUzNi43MDUgMTU5LjgyOCA1MzYuNjY5IDE2MC4xMjggNTM2LjYyMSAxNjAuMzY4SDUyMy42MjVDNTIzLjg2NSAxNjIuMDI0IDUyNC41MjUgMTYzLjI0OCA1MjUuNjA1IDE2NC4wNEM1MjYuNjg1IDE2NC44MzIgNTI4LjA1MyAxNjUuMjI4IDUyOS43MDkgMTY1LjIyOEM1MzAuNjQ1IDE2NS4yMjggNTMxLjUwOSAxNjUuMDk2IDUzMi4zMDEgMTY0LjgzMkM1MzMuMDkzIDE2NC41NjggNTMzLjg4NSAxNjQuMjA4IDUzNC42NzcgMTYzLjc1Mkw1MzYuMDgxIDE2Ni4zNDRDNTM1LjE0NSAxNjYuOTY4IDUzNC4wNzcgMTY3LjQ3MiA1MzIuODc3IDE2Ny44NTZDNTMxLjcwMSAxNjguMjQgNTMwLjQ2NSAxNjguNDMyIDUyOS4xNjkgMTY4LjQzMlpNNTI4LjczNyAxNTMuMDk2QzUyNy41MTMgMTUzLjA5NiA1MjYuNDMzIDE1My40NTYgNTI1LjQ5NyAxNTQuMTc2QzUyNC41ODUgMTU0Ljg5NiA1MjMuOTk3IDE1NS45NzYgNTIzLjczMyAxNTcuNDE2SDUzMy4xMjlDNTMyLjk4NSAxNTUuOTc2IDUzMi41MjkgMTU0Ljg5NiA1MzEuNzYxIDE1NC4xNzZDNTMxLjAxNyAxNTMuNDU2IDUzMC4wMDkgMTUzLjA5NiA1MjguNzM3IDE1My4wOTZaIi8+JiN4YTs8cGF0aCBmaWxsPSIjMjQyNTI2IiBkPSJNNTQ4LjY0MyAxNjguNDMyQzU0Ny41MTUgMTY4LjQzMiA1NDYuNDgzIDE2OC4yMjggNTQ1LjU0NyAxNjcuODJDNTQ0LjYxMSAxNjcuMzg4IDU0My44MDcgMTY2Ljc3NiA1NDMuMTM1IDE2NS45ODRDNTQyLjQ4NyAxNjUuMTkyIDU0MS45ODMgMTY0LjIzMiA1NDEuNjIzIDE2My4xMDRDNTQxLjI2MyAxNjEuOTUyIDU0MS4wODMgMTYwLjY0NCA1NDEuMDgzIDE1OS4xOEM1NDEuMDgzIDE1Ny43NCA1NDEuMjk5IDE1Ni40NDQgNTQxLjczMSAxNTUuMjkyQzU0Mi4xNjMgMTU0LjE0IDU0Mi43MzkgMTUzLjE2OCA1NDMuNDU5IDE1Mi4zNzZDNTQ0LjIwMyAxNTEuNTg0IDU0NS4wNDMgMTUwLjk3MiA1NDUuOTc5IDE1MC41NEM1NDYuOTE1IDE1MC4xMDggNTQ3Ljg4NyAxNDkuODkyIDU0OC44OTUgMTQ5Ljg5MkM1NDkuOTAzIDE0OS44OTIgNTUwLjc5MSAxNTAuMDcyIDU1MS41NTkgMTUwLjQzMkM1NTIuMzI3IDE1MC43OTIgNTUzLjA1OSAxNTEuMzA4IDU1My43NTUgMTUxLjk4SDU1My44NjNMNTUzLjY0NyAxNDguOTkyVjE0Mi41ODRINTU3LjgyM1YxNjhINTU0LjQwM0w1NTQuMDc5IDE2NS45NDhINTUzLjk3MUM1NTMuMjc1IDE2Ni42NDQgNTUyLjQ1OSAxNjcuMjMyIDU1MS41MjMgMTY3LjcxMkM1NTAuNjExIDE2OC4xOTIgNTQ5LjY1MSAxNjguNDMyIDU0OC42NDMgMTY4LjQzMlpNNTQ5LjY1MSAxNjUuMDEyQzU1MS4xMTUgMTY1LjAxMiA1NTIuNDQ3IDE2NC4zMDQgNTUzLjY0NyAxNjIuODg4VjE1NC45MzJDNTUzLjAyMyAxNTQuMzMyIDU1Mi4zOTkgMTUzLjkxMiA1NTEuNzc1IDE1My42NzJDNTUxLjE1MSAxNTMuNDMyIDU1MC41MTUgMTUzLjMxMiA1NDkuODY3IDE1My4zMTJDNTQ5LjI0MyAxNTMuMzEyIDU0OC42NTUgMTUzLjQ0NCA1NDguMTAzIDE1My43MDhDNTQ3LjU3NSAxNTMuOTcyIDU0Ny4xMDcgMTU0LjM1NiA1NDYuNjk5IDE1NC44NkM1NDYuMjkxIDE1NS4zNCA1NDUuOTY3IDE1NS45NCA1NDUuNzI3IDE1Ni42NkM1NDUuNDg3IDE1Ny4zOCA1NDUuMzY3IDE1OC4yMDggNTQ1LjM2NyAxNTkuMTQ0QzU0NS4zNjcgMTYxLjA2NCA1NDUuNzM5IDE2Mi41MjggNTQ2LjQ4MyAxNjMuNTM2QzU0Ny4yMjcgMTY0LjUyIDU0OC4yODMgMTY1LjAxMiA1NDkuNjUxIDE2NS4wMTJaIi8+JiN4YTs8cGF0aCBmaWxsPSIjMjQyNTI2IiBkPSJNNTcxLjg2MSAxNTYuMTkyQzU3MC44MjkgMTU2LjE5MiA1NjkuOTc3IDE1NS44NTYgNTY5LjMwNSAxNTUuMTg0QzU2OC42MzMgMTU0LjQ4OCA1NjguMjk3IDE1My42MTIgNTY4LjI5NyAxNTIuNTU2QzU2OC4yOTcgMTUxLjUgNTY4LjYzMyAxNTAuNjM2IDU2OS4zMDUgMTQ5Ljk2NEM1NjkuOTc3IDE0OS4yNjggNTcwLjgyOSAxNDguOTIgNTcxLjg2MSAxNDguOTJDNTcyLjg5MyAxNDguOTIgNTczLjc0NSAxNDkuMjY4IDU3NC40MTcgMTQ5Ljk2NEM1NzUuMDg5IDE1MC42MzYgNTc1LjQyNSAxNTEuNSA1NzUuNDI1IDE1Mi41NTZDNTc1LjQyNSAxNTMuNjEyIDU3NS4wODkgMTU0LjQ4OCA1NzQuNDE3IDE1NS4xODRDNTczLjc0NSAxNTUuODU2IDU3Mi44OTMgMTU2LjE5MiA1NzEuODYxIDE1Ni4xOTJaTTU2OC45NDUgMTc1Ljc0TDU2Ny44NjUgMTczLjI1NkM1NzAuODY1IDE3Mi4wMzIgNTcyLjQwMSAxNzAuMTg0IDU3Mi40NzMgMTY3LjcxMkM1NzIuMzUzIDE2Ny43MzYgNTcyLjE4NSAxNjcuNzQ4IDU3MS45NjkgMTY3Ljc0OEM1NzEuMDU3IDE2Ny43NDggNTcwLjI2NSAxNjcuNDg0IDU2OS41OTMgMTY2Ljk1NkM1NjguOTIxIDE2Ni40MDQgNTY4LjU4NSAxNjUuNiA1NjguNTg1IDE2NC41NDRDNTY4LjU4NSAxNjMuNTM2IDU2OC45MjEgMTYyLjc1NiA1NjkuNTkzIDE2Mi4yMDRDNTcwLjI4OSAxNjEuNjI4IDU3MS4xMDUgMTYxLjM0IDU3Mi4wNDEgMTYxLjM0QzU3My4zMzcgMTYxLjM0IDU3NC4zMDkgMTYxLjgyIDU3NC45NTcgMTYyLjc4QzU3NS42MDUgMTYzLjc0IDU3NS45MjkgMTY1LjA2IDU3NS45MjkgMTY2Ljc0QzU3NS45MjkgMTY4Ljk0OCA1NzUuMzI5IDE3MC44MDggNTc0LjEyOSAxNzIuMzJDNTcyLjkyOSAxNzMuODU2IDU3MS4yMDEgMTc0Ljk5NiA1NjguOTQ1IDE3NS43NFoiLz4mI3hhOzxwYXRoIGZpbGw9IiMyNDI1MjYiIGQ9Ik0yNDUuMTU2IDIxOC40MzJDMjQzLjc2NCAyMTguNDMyIDI0Mi40NjggMjE4LjIyOCAyNDEuMjY4IDIxNy44MkMyNDAuMDkyIDIxNy40MTIgMjM5LjA2IDIxNi44MTIgMjM4LjE3MiAyMTYuMDJDMjM3LjMwOCAyMTUuMjI4IDIzNi42MjQgMjE0LjI1NiAyMzYuMTIgMjEzLjEwNEMyMzUuNjQgMjExLjk1MiAyMzUuNCAyMTAuNjQ0IDIzNS40IDIwOS4xOEMyMzUuNCAyMDcuNzE2IDIzNS42NjQgMjA2LjQwOCAyMzYuMTkyIDIwNS4yNTZDMjM2Ljc0NCAyMDQuMTA0IDIzNy40NzYgMjAzLjEzMiAyMzguMzg4IDIwMi4zNEMyMzkuMyAyMDEuNTQ4IDI0MC4zNjggMjAwLjk0OCAyNDEuNTkyIDIwMC41NEMyNDIuODE2IDIwMC4xMDggMjQ0LjEgMTk5Ljg5MiAyNDUuNDQ0IDE5OS44OTJDMjQ2Ljg4NCAxOTkuODkyIDI0OC4xNDQgMjAwLjEzMiAyNDkuMjI0IDIwMC42MTJDMjUwLjMyOCAyMDEuMDkyIDI1MS4yNTIgMjAxLjY4IDI1MS45OTYgMjAyLjM3NkwyNTAuMDE2IDIwNC45NjhDMjQ5LjMyIDIwNC40MTYgMjQ4LjYxMiAyMDMuOTk2IDI0Ny44OTIgMjAzLjcwOEMyNDcuMTk2IDIwMy40MiAyNDYuNDUyIDIwMy4yNzYgMjQ1LjY2IDIwMy4yNzZDMjQzLjg4NCAyMDMuMjc2IDI0Mi40NDQgMjAzLjgxNiAyNDEuMzQgMjA0Ljg5NkMyNDAuMjM2IDIwNS45NTIgMjM5LjY4NCAyMDcuMzggMjM5LjY4NCAyMDkuMThDMjM5LjY4NCAyMTAuMDY4IDIzOS44MjggMjEwLjg3MiAyNDAuMTE2IDIxMS41OTJDMjQwLjQwNCAyMTIuMzEyIDI0MC44IDIxMi45MzYgMjQxLjMwNCAyMTMuNDY0QzI0MS44MzIgMjEzLjk2OCAyNDIuNDU2IDIxNC4zNjQgMjQzLjE3NiAyMTQuNjUyQzI0My44OTYgMjE0LjkxNiAyNDQuNjg4IDIxNS4wNDggMjQ1LjU1MiAyMTUuMDQ4QzI0Ni41NiAyMTUuMDQ4IDI0Ny40NzIgMjE0Ljg1NiAyNDguMjg4IDIxNC40NzJDMjQ5LjEyOCAyMTQuMDg4IDI0OS44OTYgMjEzLjYzMiAyNTAuNTkyIDIxMy4xMDRMMjUyLjMyIDIxNS43NjhDMjUxLjI4OCAyMTYuNjU2IDI1MC4xNDggMjE3LjMyOCAyNDguOSAyMTcuNzg0QzI0Ny42NzYgMjE4LjIxNiAyNDYuNDI4IDIxOC40MzIgMjQ1LjE1NiAyMTguNDMyWiIvPiYjeGE7PHBhdGggZmlsbD0iIzI0MjUyNiIgZD0iTTI2NS40NTggMjE4LjQzMkMyNjQuMzA2IDIxOC40MzIgMjYzLjE5IDIxOC4yMjggMjYyLjExIDIxNy44MkMyNjEuMDMgMjE3LjQxMiAyNjAuMDgyIDIxNi44MTIgMjU5LjI2NiAyMTYuMDJDMjU4LjQ1IDIxNS4yMjggMjU3Ljc5IDIxNC4yNTYgMjU3LjI4NiAyMTMuMTA0QzI1Ni44MDYgMjExLjk1MiAyNTYuNTY2IDIxMC42NDQgMjU2LjU2NiAyMDkuMThDMjU2LjU2NiAyMDcuNzE2IDI1Ni44MDYgMjA2LjQwOCAyNTcuMjg2IDIwNS4yNTZDMjU3Ljc5IDIwNC4xMDQgMjU4LjQ1IDIwMy4xMzIgMjU5LjI2NiAyMDIuMzRDMjYwLjA4MiAyMDEuNTQ4IDI2MS4wMyAyMDAuOTQ4IDI2Mi4xMSAyMDAuNTRDMjYzLjE5IDIwMC4xMDggMjY0LjMwNiAxOTkuODkyIDI2NS40NTggMTk5Ljg5MkMyNjYuNjEgMTk5Ljg5MiAyNjcuNzI2IDIwMC4xMDggMjY4LjgwNiAyMDAuNTRDMjY5Ljg4NiAyMDAuOTQ4IDI3MC44MzQgMjAxLjU0OCAyNzEuNjUgMjAyLjM0QzI3Mi40NjYgMjAzLjEzMiAyNzMuMTE0IDIwNC4xMDQgMjczLjU5NCAyMDUuMjU2QzI3NC4wOTggMjA2LjQwOCAyNzQuMzUgMjA3LjcxNiAyNzQuMzUgMjA5LjE4QzI3NC4zNSAyMTAuNjQ0IDI3NC4wOTggMjExLjk1MiAyNzMuNTk0IDIxMy4xMDRDMjczLjExNCAyMTQuMjU2IDI3Mi40NjYgMjE1LjIyOCAyNzEuNjUgMjE2LjAyQzI3MC44MzQgMjE2LjgxMiAyNjkuODg2IDIxNy40MTIgMjY4LjgwNiAyMTcuODJDMjY3LjcyNiAyMTguMjI4IDI2Ni42MSAyMTguNDMyIDI2NS40NTggMjE4LjQzMlpNMjY1LjQ1OCAyMTUuMDQ4QzI2Ni44OTggMjE1LjA0OCAyNjguMDI2IDIxNC41MiAyNjguODQyIDIxMy40NjRDMjY5LjY1OCAyMTIuMzg0IDI3MC4wNjYgMjEwLjk1NiAyNzAuMDY2IDIwOS4xOEMyNzAuMDY2IDIwNy4zOCAyNjkuNjU4IDIwNS45NTIgMjY4Ljg0MiAyMDQuODk2QzI2OC4wMjYgMjAzLjgxNiAyNjYuODk4IDIwMy4yNzYgMjY1LjQ1OCAyMDMuMjc2QzI2NC4wMTggMjAzLjI3NiAyNjIuODkgMjAzLjgxNiAyNjIuMDc0IDIwNC44OTZDMjYxLjI1OCAyMDUuOTUyIDI2MC44NSAyMDcuMzggMjYwLjg1IDIwOS4xOEMyNjAuODUgMjEwLjk1NiAyNjEuMjU4IDIxMi4zODQgMjYyLjA3NCAyMTMuNDY0QzI2Mi44OSAyMTQuNTIgMjY0LjAxOCAyMTUuMDQ4IDI2NS40NTggMjE1LjA0OFoiLz4mI3hhOzxwYXRoIGZpbGw9IiMyNDI1MjYiIGQ9Ik0yOTAuOTggMjE4LjQzMkMyODguOTE2IDIxOC40MzIgMjg3LjM0NCAyMTcuODMyIDI4Ni4yNjQgMjE2LjYzMkMyODUuMjA4IDIxNS40MzIgMjg0LjY4IDIxMy43NCAyODQuNjggMjExLjU1NlYxOTUuODZIMjc4Ljc3NlYxOTIuNTg0SDI4OC44MlYyMTEuNzcyQzI4OC44MiAyMTIuOTcyIDI4OS4xMiAyMTMuODI0IDI4OS43MiAyMTQuMzI4QzI5MC4zNDQgMjE0LjgwOCAyOTEuMSAyMTUuMDQ4IDI5MS45ODggMjE1LjA0OEMyOTIuOTI0IDIxNS4wNDggMjkzLjkzMiAyMTQuODIgMjk1LjAxMiAyMTQuMzY0TDI5NS45ODQgMjE3LjQyNEMyOTUuMTIgMjE3Ljc2IDI5NC4zMjggMjE4LjAxMiAyOTMuNjA4IDIxOC4xOEMyOTIuODg4IDIxOC4zNDggMjkyLjAxMiAyMTguNDMyIDI5MC45OCAyMTguNDMyWiIvPiYjeGE7PHBhdGggZmlsbD0iIzI0MjUyNiIgZD0iTTMwOS4yMyAyMTguNDMyQzMwOC4wNzggMjE4LjQzMiAzMDYuOTYyIDIxOC4yMjggMzA1Ljg4MiAyMTcuODJDMzA0LjgwMiAyMTcuNDEyIDMwMy44NTQgMjE2LjgxMiAzMDMuMDM4IDIxNi4wMkMzMDIuMjIyIDIxNS4yMjggMzAxLjU2MiAyMTQuMjU2IDMwMS4wNTggMjEzLjEwNEMzMDAuNTc4IDIxMS45NTIgMzAwLjMzOCAyMTAuNjQ0IDMwMC4zMzggMjA5LjE4QzMwMC4zMzggMjA3LjcxNiAzMDAuNTc4IDIwNi40MDggMzAxLjA1OCAyMDUuMjU2QzMwMS41NjIgMjA0LjEwNCAzMDIuMjIyIDIwMy4xMzIgMzAzLjAzOCAyMDIuMzRDMzAzLjg1NCAyMDEuNTQ4IDMwNC44MDIgMjAwLjk0OCAzMDUuODgyIDIwMC41NEMzMDYuOTYyIDIwMC4xMDggMzA4LjA3OCAxOTkuODkyIDMwOS4yMyAxOTkuODkyQzMxMC4zODIgMTk5Ljg5MiAzMTEuNDk4IDIwMC4xMDggMzEyLjU3OCAyMDAuNTRDMzEzLjY1OCAyMDAuOTQ4IDMxNC42MDYgMjAxLjU0OCAzMTUuNDIyIDIwMi4zNEMzMTYuMjM4IDIwMy4xMzIgMzE2Ljg4NiAyMDQuMTA0IDMxNy4zNjYgMjA1LjI1NkMzMTcuODcgMjA2LjQwOCAzMTguMTIyIDIwNy43MTYgMzE4LjEyMiAyMDkuMThDMzE4LjEyMiAyMTAuNjQ0IDMxNy44NyAyMTEuOTUyIDMxNy4zNjYgMjEzLjEwNEMzMTYuODg2IDIxNC4yNTYgMzE2LjIzOCAyMTUuMjI4IDMxNS40MjIgMjE2LjAyQzMxNC42MDYgMjE2LjgxMiAzMTMuNjU4IDIxNy40MTIgMzEyLjU3OCAyMTcuODJDMzExLjQ5OCAyMTguMjI4IDMxMC4zODIgMjE4LjQzMiAzMDkuMjMgMjE4LjQzMlpNMzA5LjIzIDIxNS4wNDhDMzEwLjY3IDIxNS4wNDggMzExLjc5OCAyMTQuNTIgMzEyLjYxNCAyMTMuNDY0QzMxMy40MyAyMTIuMzg0IDMxMy44MzggMjEwLjk1NiAzMTMuODM4IDIwOS4xOEMzMTMuODM4IDIwNy4zOCAzMTMuNDMgMjA1Ljk1MiAzMTIuNjE0IDIwNC44OTZDMzExLjc5OCAyMDMuODE2IDMxMC42NyAyMDMuMjc2IDMwOS4yMyAyMDMuMjc2QzMwNy43OSAyMDMuMjc2IDMwNi42NjIgMjAzLjgxNiAzMDUuODQ2IDIwNC44OTZDMzA1LjAzIDIwNS45NTIgMzA0LjYyMiAyMDcuMzggMzA0LjYyMiAyMDkuMThDMzA0LjYyMiAyMTAuOTU2IDMwNS4wMyAyMTIuMzg0IDMwNS44NDYgMjEzLjQ2NEMzMDYuNjYyIDIxNC41MiAzMDcuNzkgMjE1LjA0OCAzMDkuMjMgMjE1LjA0OFoiLz4mI3hhOzxwYXRoIGZpbGw9IiMyNDI1MjYiIGQ9Ik0zMjQuOTk2IDIxOFYyMDAuMzI0SDMyOC40MTZMMzI4Ljc3NiAyMDQuMzJIMzI4Ljg4NEMzMjkuNzk2IDIwMi44OCAzMzAuODg4IDIwMS43ODggMzMyLjE2IDIwMS4wNDRDMzMzLjQ1NiAyMDAuMjc2IDMzNC44NzIgMTk5Ljg5MiAzMzYuNDA4IDE5OS44OTJDMzM3LjEyOCAxOTkuODkyIDMzNy43NCAxOTkuOTUyIDMzOC4yNDQgMjAwLjA3MkMzMzguNzcyIDIwMC4xNjggMzM5LjMgMjAwLjM0OCAzMzkuODI4IDIwMC42MTJMMzM4Ljk2NCAyMDQuMTA0QzMzOC4zODggMjAzLjkxMiAzMzcuODcyIDIwMy43OCAzMzcuNDE2IDIwMy43MDhDMzM2Ljk4NCAyMDMuNjEyIDMzNi40MzIgMjAzLjU2NCAzMzUuNzYgMjAzLjU2NEMzMzQuNTM2IDIwMy41NjQgMzMzLjM2IDIwMy45MTIgMzMyLjIzMiAyMDQuNjA4QzMzMS4xMDQgMjA1LjMwNCAzMzAuMDg0IDIwNi41MTYgMzI5LjE3MiAyMDguMjQ0VjIxOEgzMjQuOTk2WiIvPiYjeGE7PHBhdGggZmlsbD0iIzI0MjUyNiIgZD0iTTM1My4wMDIgMjA2LjE5MkMzNTEuOTcgMjA2LjE5MiAzNTEuMTE4IDIwNS44NTYgMzUwLjQ0NiAyMDUuMTg0QzM0OS43NzQgMjA0LjQ4OCAzNDkuNDM4IDIwMy42MTIgMzQ5LjQzOCAyMDIuNTU2QzM0OS40MzggMjAxLjUgMzQ5Ljc3NCAyMDAuNjM2IDM1MC40NDYgMTk5Ljk2NEMzNTEuMTE4IDE5OS4yNjggMzUxLjk3IDE5OC45MiAzNTMuMDAyIDE5OC45MkMzNTQuMDM0IDE5OC45MiAzNTQuODg2IDE5OS4yNjggMzU1LjU1OCAxOTkuOTY0QzM1Ni4yMyAyMDAuNjM2IDM1Ni41NjYgMjAxLjUgMzU2LjU2NiAyMDIuNTU2QzM1Ni41NjYgMjAzLjYxMiAzNTYuMjMgMjA0LjQ4OCAzNTUuNTU4IDIwNS4xODRDMzU0Ljg4NiAyMDUuODU2IDM1NC4wMzQgMjA2LjE5MiAzNTMuMDAyIDIwNi4xOTJaTTM1My4wMDIgMjE4LjQzMkMzNTEuOTcgMjE4LjQzMiAzNTEuMTE4IDIxOC4wOTYgMzUwLjQ0NiAyMTcuNDI0QzM0OS43NzQgMjE2LjcyOCAzNDkuNDM4IDIxNS44NTIgMzQ5LjQzOCAyMTQuNzk2QzM0OS40MzggMjEzLjc0IDM0OS43NzQgMjEyLjg3NiAzNTAuNDQ2IDIxMi4yMDRDMzUxLjExOCAyMTEuNTA4IDM1MS45NyAyMTEuMTYgMzUzLjAwMiAyMTEuMTZDMzU0LjAzNCAyMTEuMTYgMzU0Ljg4NiAyMTEuNTA4IDM1NS41NTggMjEyLjIwNEMzNTYuMjMgMjEyLjg3NiAzNTYuNTY2IDIxMy43NCAzNTYuNTY2IDIxNC43OTZDMzU2LjU2NiAyMTUuODUyIDM1Ni4yMyAyMTYuNzI4IDM1NS41NTggMjE3LjQyNEMzNTQuODg2IDIxOC4wOTYgMzU0LjAzNCAyMTguNDMyIDM1My4wMDIgMjE4LjQzMloiLz4mI3hhOzxwYXRoIGZpbGw9IiMyNDI1MjYiIGQ9Ik0zOTcuODE3IDIxOC40MzJDMzk2Ljk3NyAyMTguNDMyIDM5Ni4xMDEgMjE4LjIyOCAzOTUuMTg5IDIxNy44MkMzOTQuMjc3IDIxNy40MTIgMzkzLjQzNyAyMTYuODI0IDM5Mi42NjkgMjE2LjA1NkgzOTIuNTYxTDM5Mi4yMDEgMjE4SDM4OC45MjVWMTkyLjU4NEgzOTMuMTAxVjE5OS4xMzZMMzkyLjkyMSAyMDIuMjMySDM5My4wMjlDMzkzLjc3MyAyMDEuNTEyIDM5NC42MTMgMjAwLjk0OCAzOTUuNTQ5IDIwMC41NEMzOTYuNTA5IDIwMC4xMDggMzk3LjQ2OSAxOTkuODkyIDM5OC40MjkgMTk5Ljg5MkMzOTkuNTgxIDE5OS44OTIgNDAwLjYwMSAyMDAuMTA4IDQwMS40ODkgMjAwLjU0QzQwMi4zNzcgMjAwLjk0OCA0MDMuMTMzIDIwMS41NDggNDAzLjc1NyAyMDIuMzRDNDA0LjM4MSAyMDMuMTA4IDQwNC44NDkgMjA0LjA0NCA0MDUuMTYxIDIwNS4xNDhDNDA1LjQ5NyAyMDYuMjUyIDQwNS42NjUgMjA3LjQ4OCA0MDUuNjY1IDIwOC44NTZDNDA1LjY2NSAyMTAuMzY4IDQwNS40NDkgMjExLjcyNCA0MDUuMDE3IDIxMi45MjRDNDA0LjU4NSAyMTQuMSA0MDMuOTk3IDIxNS4wOTYgNDAzLjI1MyAyMTUuOTEyQzQwMi41MzMgMjE2LjcyOCA0MDEuNjkzIDIxNy4zNTIgNDAwLjczMyAyMTcuNzg0QzM5OS43OTcgMjE4LjIxNiAzOTguODI1IDIxOC40MzIgMzk3LjgxNyAyMTguNDMyWk0zOTYuOTg5IDIxNS4wMTJDMzk4LjIzNyAyMTUuMDEyIDM5OS4yODEgMjE0LjUwOCA0MDAuMTIxIDIxMy41QzQwMC45NjEgMjEyLjQ2OCA0MDEuMzgxIDIxMC45NDQgNDAxLjM4MSAyMDguOTI4QzQwMS4zODEgMjA3LjE1MiA0MDEuMDU3IDIwNS43NzIgNDAwLjQwOSAyMDQuNzg4QzM5OS43NjEgMjAzLjgwNCAzOTguNzE3IDIwMy4zMTIgMzk3LjI3NyAyMDMuMzEyQzM5Ni42MDUgMjAzLjMxMiAzOTUuOTIxIDIwMy40OCAzOTUuMjI1IDIwMy44MTZDMzk0LjUyOSAyMDQuMTUyIDM5My44MjEgMjA0LjY5MiAzOTMuMTAxIDIwNS40MzZWMjEzLjM5MkMzOTMuNzQ5IDIxMy45OTIgMzk0LjQyMSAyMTQuNDEyIDM5NS4xMTcgMjE0LjY1MkMzOTUuODEzIDIxNC44OTIgMzk2LjQzNyAyMTUuMDEyIDM5Ni45ODkgMjE1LjAxMloiLz4mI3hhOzxwYXRoIGZpbGw9IiMyNDI1MjYiIGQ9Ik00MTkuNzM5IDIxOC40MzJDNDE4LjM5NSAyMTguNDMyIDQxNy4xMzUgMjE4LjIyOCA0MTUuOTU5IDIxNy44MkM0MTQuNzgzIDIxNy4zODggNDEzLjc1MSAyMTYuNzc2IDQxMi44NjMgMjE1Ljk4NEM0MTEuOTk5IDIxNS4xOTIgNDExLjMxNSAyMTQuMjIgNDEwLjgxMSAyMTMuMDY4QzQxMC4zMDcgMjExLjkxNiA0MTAuMDU1IDIxMC42MDggNDEwLjA1NSAyMDkuMTQ0QzQxMC4wNTUgMjA3LjcwNCA0MTAuMzA3IDIwNi40MiA0MTAuODExIDIwNS4yOTJDNDExLjMxNSAyMDQuMTQgNDExLjk4NyAyMDMuMTY4IDQxMi44MjcgMjAyLjM3NkM0MTMuNjkxIDIwMS41NiA0MTQuNjYzIDIwMC45NDggNDE1Ljc0MyAyMDAuNTRDNDE2Ljg0NyAyMDAuMTA4IDQxNy45OTkgMTk5Ljg5MiA0MTkuMTk5IDE5OS44OTJDNDIwLjUxOSAxOTkuODkyIDQyMS42ODMgMjAwLjEwOCA0MjIuNjkxIDIwMC41NEM0MjMuNjk5IDIwMC45NDggNDI0LjU1MSAyMDEuNTI0IDQyNS4yNDcgMjAyLjI2OEM0MjUuOTQzIDIwMi45ODggNDI2LjQ3MSAyMDMuODY0IDQyNi44MzEgMjA0Ljg5NkM0MjcuMTkxIDIwNS45MjggNDI3LjM3MSAyMDcuMDU2IDQyNy4zNzEgMjA4LjI4QzQyNy4zNzEgMjA4LjY4OCA0MjcuMzQ3IDIwOS4wODQgNDI3LjI5OSAyMDkuNDY4QzQyNy4yNzUgMjA5LjgyOCA0MjcuMjM5IDIxMC4xMjggNDI3LjE5MSAyMTAuMzY4SDQxNC4xOTVDNDE0LjQzNSAyMTIuMDI0IDQxNS4wOTUgMjEzLjI0OCA0MTYuMTc1IDIxNC4wNEM0MTcuMjU1IDIxNC44MzIgNDE4LjYyMyAyMTUuMjI4IDQyMC4yNzkgMjE1LjIyOEM0MjEuMjE1IDIxNS4yMjggNDIyLjA3OSAyMTUuMDk2IDQyMi44NzEgMjE0LjgzMkM0MjMuNjYzIDIxNC41NjggNDI0LjQ1NSAyMTQuMjA4IDQyNS4yNDcgMjEzLjc1Mkw0MjYuNjUxIDIxNi4zNDRDNDI1LjcxNSAyMTYuOTY4IDQyNC42NDcgMjE3LjQ3MiA0MjMuNDQ3IDIxNy44NTZDNDIyLjI3MSAyMTguMjQgNDIxLjAzNSAyMTguNDMyIDQxOS43MzkgMjE4LjQzMlpNNDE5LjMwNyAyMDMuMDk2QzQxOC4wODMgMjAzLjA5NiA0MTcuMDAzIDIwMy40NTYgNDE2LjA2NyAyMDQuMTc2QzQxNS4xNTUgMjA0Ljg5NiA0MTQuNTY3IDIwNS45NzYgNDE0LjMwMyAyMDcuNDE2SDQyMy42OTlDNDIzLjU1NSAyMDUuOTc2IDQyMy4wOTkgMjA0Ljg5NiA0MjIuMzMxIDIwNC4xNzZDNDIxLjU4NyAyMDMuNDU2IDQyMC41NzkgMjAzLjA5NiA0MTkuMzA3IDIwMy4wOTZaIi8+JiN4YTs8cGF0aCBmaWxsPSIjMjQyNTI2IiBkPSJNNDQwLjQzNyAyMThWMjAzLjZINDMyLjc2OVYyMDAuMzI0SDQ0NC41NzdWMjE4SDQ0MC40MzdaTTQ0Mi4yMzcgMTk3LjA4NEM0NDEuMzk3IDE5Ny4wODQgNDQwLjY4OSAxOTYuODMyIDQ0MC4xMTMgMTk2LjMyOEM0MzkuNTYxIDE5NS44MjQgNDM5LjI4NSAxOTUuMTUyIDQzOS4yODUgMTk0LjMxMkM0MzkuMjg1IDE5My40NzIgNDM5LjU2MSAxOTIuOCA0NDAuMTEzIDE5Mi4yOTZDNDQwLjY4OSAxOTEuNzY4IDQ0MS4zOTcgMTkxLjUwNCA0NDIuMjM3IDE5MS41MDRDNDQzLjA3NyAxOTEuNTA0IDQ0My43NzMgMTkxLjc2OCA0NDQuMzI1IDE5Mi4yOTZDNDQ0LjkwMSAxOTIuOCA0NDUuMTg5IDE5My40NzIgNDQ1LjE4OSAxOTQuMzEyQzQ0NS4xODkgMTk1LjE1MiA0NDQuOTAxIDE5NS44MjQgNDQ0LjMyNSAxOTYuMzI4QzQ0My43NzMgMTk2LjgzMiA0NDMuMDc3IDE5Ny4wODQgNDQyLjIzNyAxOTcuMDg0WiIvPiYjeGE7PHBhdGggZmlsbD0iIzI0MjUyNiIgZD0iTTQ2MS45MjcgMjI1LjgxMkM0NjAuNzAzIDIyNS44MTIgNDU5LjU5OSAyMjUuNzE2IDQ1OC42MTUgMjI1LjUyNEM0NTcuNjMxIDIyNS4zMzIgNDU2Ljc3OSAyMjUuMDMyIDQ1Ni4wNTkgMjI0LjYyNEM0NTUuMzYzIDIyNC4yNCA0NTQuODIzIDIyMy43NDggNDU0LjQzOSAyMjMuMTQ4QzQ1NC4wNTUgMjIyLjU3MiA0NTMuODYzIDIyMS44ODggNDUzLjg2MyAyMjEuMDk2QzQ1My44NjMgMjE5LjY1NiA0NTQuNzk5IDIxOC40MiA0NTYuNjcxIDIxNy4zODhWMjE3LjI0NEM0NTYuMTkxIDIxNi45NTYgNDU1Ljc3MSAyMTYuNTg0IDQ1NS40MTEgMjE2LjEyOEM0NTUuMDUxIDIxNS42NDggNDU0Ljg3MSAyMTUuMDM2IDQ1NC44NzEgMjE0LjI5MkM0NTQuODcxIDIxMy43MTYgNDU1LjA2MyAyMTMuMTI4IDQ1NS40NDcgMjEyLjUyOEM0NTUuODMxIDIxMS45MjggNDU2LjM0NyAyMTEuNDEyIDQ1Ni45OTUgMjEwLjk4VjIxMC44MzZDNDU2LjM3MSAyMTAuMzggNDU1LjgzMSAyMDkuNzY4IDQ1NS4zNzUgMjA5QzQ1NC45NDMgMjA4LjIzMiA0NTQuNzI3IDIwNy4zMiA0NTQuNzI3IDIwNi4yNjRDNDU0LjcyNyAyMDUuMjU2IDQ1NC45MTkgMjA0LjM1NiA0NTUuMzAzIDIwMy41NjRDNDU1LjcxMSAyMDIuNzcyIDQ1Ni4yMzkgMjAyLjExMiA0NTYuODg3IDIwMS41ODRDNDU3LjU1OSAyMDEuMDMyIDQ1OC4zMjcgMjAwLjYxMiA0NTkuMTkxIDIwMC4zMjRDNDYwLjA3OSAyMDAuMDM2IDQ2MS4wMTUgMTk5Ljg5MiA0NjEuOTk5IDE5OS44OTJDNDYzLjAwNyAxOTkuODkyIDQ2My45MzEgMjAwLjAzNiA0NjQuNzcxIDIwMC4zMjRINDcyLjAwN1YyMDMuNDkySDQ2Ny45MzlDNDY4LjI1MSAyMDMuODI4IDQ2OC41MTUgMjA0LjI2IDQ2OC43MzEgMjA0Ljc4OEM0NjguOTcxIDIwNS4yOTIgNDY5LjA5MSAyMDUuODMyIDQ2OS4wOTEgMjA2LjQwOEM0NjkuMDkxIDIwNy4zOTIgNDY4Ljg5OSAyMDguMjU2IDQ2OC41MTUgMjA5QzQ2OC4xNTUgMjA5Ljc0NCA0NjcuNjUxIDIxMC4zNjggNDY3LjAwMyAyMTAuODcyQzQ2Ni4zNzkgMjExLjM3NiA0NjUuNjM1IDIxMS43NiA0NjQuNzcxIDIxMi4wMjRDNDYzLjkwNyAyMTIuMjg4IDQ2Mi45ODMgMjEyLjQyIDQ2MS45OTkgMjEyLjQyQzQ2MS4xNTkgMjEyLjQyIDQ2MC4yNTkgMjEyLjI1MiA0NTkuMjk5IDIxMS45MTZDNDU4LjU3OSAyMTIuMzQ4IDQ1OC4yMTkgMjEyLjkgNDU4LjIxOSAyMTMuNTcyQzQ1OC4yMTkgMjE0LjY3NiA0NTkuMzM1IDIxNS4yMjggNDYxLjU2NyAyMTUuMjI4SDQ2NS4xNjdDNDY3LjQ3MSAyMTUuMjI4IDQ2OS4xOTkgMjE1LjU2NCA0NzAuMzUxIDIxNi4yMzZDNDcxLjUyNyAyMTYuODg0IDQ3Mi4xMTUgMjE3Ljk4OCA0NzIuMTE1IDIxOS41NDhDNDcyLjExNSAyMjAuNDEyIDQ3MS44NzUgMjIxLjIyOCA0NzEuMzk1IDIyMS45OTZDNDcwLjkxNSAyMjIuNzY0IDQ3MC4yMzEgMjIzLjQyNCA0NjkuMzQzIDIyMy45NzZDNDY4LjQ3OSAyMjQuNTUyIDQ2Ny40MTEgMjI0Ljk5NiA0NjYuMTM5IDIyNS4zMDhDNDY0Ljg5MSAyMjUuNjQ0IDQ2My40ODcgMjI1LjgxMiA0NjEuOTI3IDIyNS44MTJaTTQ2MS45OTkgMjA5Ljc5MkM0NjIuOTExIDIwOS43OTIgNDYzLjY5MSAyMDkuNDkyIDQ2NC4zMzkgMjA4Ljg5MkM0NjUuMDExIDIwOC4yNjggNDY1LjM0NyAyMDcuMzkyIDQ2NS4zNDcgMjA2LjI2NEM0NjUuMzQ3IDIwNS4xODQgNDY1LjAxMSAyMDQuMzMyIDQ2NC4zMzkgMjAzLjcwOEM0NjMuNjkxIDIwMy4wODQgNDYyLjkxMSAyMDIuNzcyIDQ2MS45OTkgMjAyLjc3MkM0NjEuMDg3IDIwMi43NzIgNDYwLjI5NSAyMDMuMDg0IDQ1OS42MjMgMjAzLjcwOEM0NTguOTc1IDIwNC4zMzIgNDU4LjY1MSAyMDUuMTg0IDQ1OC42NTEgMjA2LjI2NEM0NTguNjUxIDIwNy4zOTIgNDU4Ljk3NSAyMDguMjY4IDQ1OS42MjMgMjA4Ljg5MkM0NjAuMjk1IDIwOS40OTIgNDYxLjA4NyAyMDkuNzkyIDQ2MS45OTkgMjA5Ljc5MlpNNDYyLjQzMSAyMjMuMDc2QzQ2My4yOTUgMjIzLjA3NiA0NjQuMDc1IDIyMi45OTIgNDY0Ljc3MSAyMjIuODI0QzQ2NS40NjcgMjIyLjY4IDQ2Ni4wNjcgMjIyLjQ3NiA0NjYuNTcxIDIyMi4yMTJDNDY3LjA3NSAyMjEuOTQ4IDQ2Ny40NTkgMjIxLjY0OCA0NjcuNzIzIDIyMS4zMTJDNDY3Ljk4NyAyMjAuOTc2IDQ2OC4xMTkgMjIwLjYxNiA0NjguMTE5IDIyMC4yMzJDNDY4LjExOSAyMTkuNTM2IDQ2Ny44MTkgMjE5LjA2OCA0NjcuMjE5IDIxOC44MjhDNDY2LjY0MyAyMTguNjEyIDQ2NS43NTUgMjE4LjUwNCA0NjQuNTU1IDIxOC41MDRINDYxLjc0N0M0NjAuNjE5IDIxOC41MDQgNDU5LjcxOSAyMTguNDIgNDU5LjA0NyAyMTguMjUyQzQ1OC40MjMgMjE4LjYxMiA0NTcuOTc5IDIxOC45ODQgNDU3LjcxNSAyMTkuMzY4QzQ1Ny40NTEgMjE5Ljc1MiA0NTcuMzE5IDIyMC4xNDggNDU3LjMxOSAyMjAuNTU2QzQ1Ny4zMTkgMjIxLjM0OCA0NTcuNzUxIDIyMS45NiA0NTguNjE1IDIyMi4zOTJDNDU5LjUwMyAyMjIuODQ4IDQ2MC43NzUgMjIzLjA3NiA0NjIuNDMxIDIyMy4wNzZaIi8+JiN4YTs8cGF0aCBmaWxsPSIjMjQyNTI2IiBkPSJNNDg1LjM5NyAyMTguNDMyQzQ4NC4wNTMgMjE4LjQzMiA0ODIuNzkzIDIxOC4yMjggNDgxLjYxNyAyMTcuODJDNDgwLjQ0MSAyMTcuMzg4IDQ3OS40MDkgMjE2Ljc3NiA0NzguNTIxIDIxNS45ODRDNDc3LjY1NyAyMTUuMTkyIDQ3Ni45NzMgMjE0LjIyIDQ3Ni40NjkgMjEzLjA2OEM0NzUuOTY1IDIxMS45MTYgNDc1LjcxMyAyMTAuNjA4IDQ3NS43MTMgMjA5LjE0NEM0NzUuNzEzIDIwNy43MDQgNDc1Ljk2NSAyMDYuNDIgNDc2LjQ2OSAyMDUuMjkyQzQ3Ni45NzMgMjA0LjE0IDQ3Ny42NDUgMjAzLjE2OCA0NzguNDg1IDIwMi4zNzZDNDc5LjM0OSAyMDEuNTYgNDgwLjMyMSAyMDAuOTQ4IDQ4MS40MDEgMjAwLjU0QzQ4Mi41MDUgMjAwLjEwOCA0ODMuNjU3IDE5OS44OTIgNDg0Ljg1NyAxOTkuODkyQzQ4Ni4xNzcgMTk5Ljg5MiA0ODcuMzQxIDIwMC4xMDggNDg4LjM0OSAyMDAuNTRDNDg5LjM1NyAyMDAuOTQ4IDQ5MC4yMDkgMjAxLjUyNCA0OTAuOTA1IDIwMi4yNjhDNDkxLjYwMSAyMDIuOTg4IDQ5Mi4xMjkgMjAzLjg2NCA0OTIuNDg5IDIwNC44OTZDNDkyLjg0OSAyMDUuOTI4IDQ5My4wMjkgMjA3LjA1NiA0OTMuMDI5IDIwOC4yOEM0OTMuMDI5IDIwOC42ODggNDkzLjAwNSAyMDkuMDg0IDQ5Mi45NTcgMjA5LjQ2OEM0OTIuOTMzIDIwOS44MjggNDkyLjg5NyAyMTAuMTI4IDQ5Mi44NDkgMjEwLjM2OEg0NzkuODUzQzQ4MC4wOTMgMjEyLjAyNCA0ODAuNzUzIDIxMy4yNDggNDgxLjgzMyAyMTQuMDRDNDgyLjkxMyAyMTQuODMyIDQ4NC4yODEgMjE1LjIyOCA0ODUuOTM3IDIxNS4yMjhDNDg2Ljg3MyAyMTUuMjI4IDQ4Ny43MzcgMjE1LjA5NiA0ODguNTI5IDIxNC44MzJDNDg5LjMyMSAyMTQuNTY4IDQ5MC4xMTMgMjE0LjIwOCA0OTAuOTA1IDIxMy43NTJMNDkyLjMwOSAyMTYuMzQ0QzQ5MS4zNzMgMjE2Ljk2OCA0OTAuMzA1IDIxNy40NzIgNDg5LjEwNSAyMTcuODU2QzQ4Ny45MjkgMjE4LjI0IDQ4Ni42OTMgMjE4LjQzMiA0ODUuMzk3IDIxOC40MzJaTTQ4NC45NjUgMjAzLjA5NkM0ODMuNzQxIDIwMy4wOTYgNDgyLjY2MSAyMDMuNDU2IDQ4MS43MjUgMjA0LjE3NkM0ODAuODEzIDIwNC44OTYgNDgwLjIyNSAyMDUuOTc2IDQ3OS45NjEgMjA3LjQxNkg0ODkuMzU3QzQ4OS4yMTMgMjA1Ljk3NiA0ODguNzU3IDIwNC44OTYgNDg3Ljk4OSAyMDQuMTc2QzQ4Ny4yNDUgMjAzLjQ1NiA0ODYuMjM3IDIwMy4wOTYgNDg0Ljk2NSAyMDMuMDk2WiIvPiYjeGE7PHBhdGggZmlsbD0iIzI0MjUyNiIgZD0iTTUwNi4yMDMgMjA2LjE5MkM1MDUuMTcxIDIwNi4xOTIgNTA0LjMxOSAyMDUuODU2IDUwMy42NDcgMjA1LjE4NEM1MDIuOTc1IDIwNC40ODggNTAyLjYzOSAyMDMuNjEyIDUwMi42MzkgMjAyLjU1NkM1MDIuNjM5IDIwMS41IDUwMi45NzUgMjAwLjYzNiA1MDMuNjQ3IDE5OS45NjRDNTA0LjMxOSAxOTkuMjY4IDUwNS4xNzEgMTk4LjkyIDUwNi4yMDMgMTk4LjkyQzUwNy4yMzUgMTk4LjkyIDUwOC4wODcgMTk5LjI2OCA1MDguNzU5IDE5OS45NjRDNTA5LjQzMSAyMDAuNjM2IDUwOS43NjcgMjAxLjUgNTA5Ljc2NyAyMDIuNTU2QzUwOS43NjcgMjAzLjYxMiA1MDkuNDMxIDIwNC40ODggNTA4Ljc1OSAyMDUuMTg0QzUwOC4wODcgMjA1Ljg1NiA1MDcuMjM1IDIwNi4xOTIgNTA2LjIwMyAyMDYuMTkyWk01MDMuMjg3IDIyNS43NEw1MDIuMjA3IDIyMy4yNTZDNTA1LjIwNyAyMjIuMDMyIDUwNi43NDMgMjIwLjE4NCA1MDYuODE1IDIxNy43MTJDNTA2LjY5NSAyMTcuNzM2IDUwNi41MjcgMjE3Ljc0OCA1MDYuMzExIDIxNy43NDhDNTA1LjM5OSAyMTcuNzQ4IDUwNC42MDcgMjE3LjQ4NCA1MDMuOTM1IDIxNi45NTZDNTAzLjI2MyAyMTYuNDA0IDUwMi45MjcgMjE1LjYgNTAyLjkyNyAyMTQuNTQ0QzUwMi45MjcgMjEzLjUzNiA1MDMuMjYzIDIxMi43NTYgNTAzLjkzNSAyMTIuMjA0QzUwNC42MzEgMjExLjYyOCA1MDUuNDQ3IDIxMS4zNCA1MDYuMzgzIDIxMS4zNEM1MDcuNjc5IDIxMS4zNCA1MDguNjUxIDIxMS44MiA1MDkuMjk5IDIxMi43OEM1MDkuOTQ3IDIxMy43NCA1MTAuMjcxIDIxNS4wNiA1MTAuMjcxIDIxNi43NEM1MTAuMjcxIDIxOC45NDggNTA5LjY3MSAyMjAuODA4IDUwOC40NzEgMjIyLjMyQzUwNy4yNzEgMjIzLjg1NiA1MDUuNTQzIDIyNC45OTYgNTAzLjI4NyAyMjUuNzRaIi8+JiN4YTs8cGF0aCBmaWxsPSIjMjQyNTI2IiBkPSJNMjQwLjk4IDI2OFYyNTMuNkgyMzYuMDg0VjI1MC41MDRMMjQwLjk4IDI1MC4zMjRWMjQ5LjM1MkMyNDAuOTggMjQ4LjMyIDI0MS4xMjQgMjQ3LjM2IDI0MS40MTIgMjQ2LjQ3MkMyNDEuNyAyNDUuNTg0IDI0Mi4xNDQgMjQ0LjgyOCAyNDIuNzQ0IDI0NC4yMDRDMjQzLjM2OCAyNDMuNTU2IDI0NC4xNDggMjQzLjA1MiAyNDUuMDg0IDI0Mi42OTJDMjQ2LjA0NCAyNDIuMzMyIDI0Ny4xNzIgMjQyLjE1MiAyNDguNDY4IDI0Mi4xNTJDMjQ5LjQyOCAyNDIuMTUyIDI1MC4zNCAyNDIuMjM2IDI1MS4yMDQgMjQyLjQwNEMyNTIuMDkyIDI0Mi41NzIgMjUyLjkzMiAyNDIuODEyIDI1My43MjQgMjQzLjEyNEwyNTIuODYgMjQ2LjE4NEMyNTIuMjEyIDI0NS45MiAyNTEuNTc2IDI0NS43MjggMjUwLjk1MiAyNDUuNjA4QzI1MC4zNTIgMjQ1LjQ4OCAyNDkuNjkyIDI0NS40MjggMjQ4Ljk3MiAyNDUuNDI4QzI0Ny42MDQgMjQ1LjQyOCAyNDYuNjA4IDI0NS43NjQgMjQ1Ljk4NCAyNDYuNDM2QzI0NS4zODQgMjQ3LjA4NCAyNDUuMDg0IDI0OC4wMzIgMjQ1LjA4NCAyNDkuMjhWMjUwLjMyNEgyNTEuODE2VjI1My42SDI0NS4wODRWMjY4SDI0MC45OFoiLz4mI3hhOzxwYXRoIGZpbGw9IiMyNDI1MjYiIGQ9Ik0yNjUuNDU4IDI2OC40MzJDMjY0LjMwNiAyNjguNDMyIDI2My4xOSAyNjguMjI4IDI2Mi4xMSAyNjcuODJDMjYxLjAzIDI2Ny40MTIgMjYwLjA4MiAyNjYuODEyIDI1OS4yNjYgMjY2LjAyQzI1OC40NSAyNjUuMjI4IDI1Ny43OSAyNjQuMjU2IDI1Ny4yODYgMjYzLjEwNEMyNTYuODA2IDI2MS45NTIgMjU2LjU2NiAyNjAuNjQ0IDI1Ni41NjYgMjU5LjE4QzI1Ni41NjYgMjU3LjcxNiAyNTYuODA2IDI1Ni40MDggMjU3LjI4NiAyNTUuMjU2QzI1Ny43OSAyNTQuMTA0IDI1OC40NSAyNTMuMTMyIDI1OS4yNjYgMjUyLjM0QzI2MC4wODIgMjUxLjU0OCAyNjEuMDMgMjUwLjk0OCAyNjIuMTEgMjUwLjU0QzI2My4xOSAyNTAuMTA4IDI2NC4zMDYgMjQ5Ljg5MiAyNjUuNDU4IDI0OS44OTJDMjY2LjYxIDI0OS44OTIgMjY3LjcyNiAyNTAuMTA4IDI2OC44MDYgMjUwLjU0QzI2OS44ODYgMjUwLjk0OCAyNzAuODM0IDI1MS41NDggMjcxLjY1IDI1Mi4zNEMyNzIuNDY2IDI1My4xMzIgMjczLjExNCAyNTQuMTA0IDI3My41OTQgMjU1LjI1NkMyNzQuMDk4IDI1Ni40MDggMjc0LjM1IDI1Ny43MTYgMjc0LjM1IDI1OS4xOEMyNzQuMzUgMjYwLjY0NCAyNzQuMDk4IDI2MS45NTIgMjczLjU5NCAyNjMuMTA0QzI3My4xMTQgMjY0LjI1NiAyNzIuNDY2IDI2NS4yMjggMjcxLjY1IDI2Ni4wMkMyNzAuODM0IDI2Ni44MTIgMjY5Ljg4NiAyNjcuNDEyIDI2OC44MDYgMjY3LjgyQzI2Ny43MjYgMjY4LjIyOCAyNjYuNjEgMjY4LjQzMiAyNjUuNDU4IDI2OC40MzJaTTI2NS40NTggMjY1LjA0OEMyNjYuODk4IDI2NS4wNDggMjY4LjAyNiAyNjQuNTIgMjY4Ljg0MiAyNjMuNDY0QzI2OS42NTggMjYyLjM4NCAyNzAuMDY2IDI2MC45NTYgMjcwLjA2NiAyNTkuMThDMjcwLjA2NiAyNTcuMzggMjY5LjY1OCAyNTUuOTUyIDI2OC44NDIgMjU0Ljg5NkMyNjguMDI2IDI1My44MTYgMjY2Ljg5OCAyNTMuMjc2IDI2NS40NTggMjUzLjI3NkMyNjQuMDE4IDI1My4yNzYgMjYyLjg5IDI1My44MTYgMjYyLjA3NCAyNTQuODk2QzI2MS4yNTggMjU1Ljk1MiAyNjAuODUgMjU3LjM4IDI2MC44NSAyNTkuMThDMjYwLjg1IDI2MC45NTYgMjYxLjI1OCAyNjIuMzg0IDI2Mi4wNzQgMjYzLjQ2NEMyNjIuODkgMjY0LjUyIDI2NC4wMTggMjY1LjA0OCAyNjUuNDU4IDI2NS4wNDhaIi8+JiN4YTs8cGF0aCBmaWxsPSIjMjQyNTI2IiBkPSJNMjc5LjQ5NiAyNjhWMjUwLjMyNEgyODIuOTE2TDI4My4yNCAyNTIuOTg4SDI4My4zODRDMjg0LjIyNCAyNTIuMTQ4IDI4NS4xNDggMjUxLjQyOCAyODYuMTU2IDI1MC44MjhDMjg3LjE4OCAyNTAuMjA0IDI4OC4zODggMjQ5Ljg5MiAyODkuNzU2IDI0OS44OTJDMjkxLjc5NiAyNDkuODkyIDI5My4yOTYgMjUwLjUxNiAyOTQuMjU2IDI1MS43NjRDMjk1LjIxNiAyNTIuOTg4IDI5NS42OTYgMjU0Ljc1MiAyOTUuNjk2IDI1Ny4wNTZWMjY4SDI5MS41MlYyNTcuNTk2QzI5MS41MiAyNTYuMTU2IDI5MS4yNjggMjU1LjExMiAyOTAuNzY0IDI1NC40NjRDMjkwLjI4NCAyNTMuNzkyIDI4OS40MzIgMjUzLjQ1NiAyODguMjA4IDI1My40NTZDMjg3LjM0NCAyNTMuNDU2IDI4Ni41NzYgMjUzLjY2IDI4NS45MDQgMjU0LjA2OEMyODUuMjMyIDI1NC40NzYgMjg0LjQ4OCAyNTUuMSAyODMuNjcyIDI1NS45NFYyNjhIMjc5LjQ5NloiLz4mI3hhOzxwYXRoIGZpbGw9IiMyNDI1MjYiIGQ9Ik0zMTIuNTA2IDI2OC40MzJDMzExLjE2MiAyNjguNDMyIDMxMC4wMjIgMjY4LjI1MiAzMDkuMDg2IDI2Ny44OTJDMzA4LjE3NCAyNjcuNTMyIDMwNy40MyAyNjcuMDI4IDMwNi44NTQgMjY2LjM4QzMwNi4zMDIgMjY1LjcwOCAzMDUuODk0IDI2NC45MDQgMzA1LjYzIDI2My45NjhDMzA1LjM5IDI2My4wMzIgMzA1LjI3IDI2MiAzMDUuMjcgMjYwLjg3MlYyNTMuNkgzMDAuNTU0VjI1MC41MDRMMzA1LjQ1IDI1MC4zMjRMMzA1Ljk5IDI0NC43OEgzMDkuNDFWMjUwLjMyNEgzMTcuNDc0VjI1My42SDMwOS40MVYyNjAuODcyQzMwOS40MSAyNjIuMzM2IDMwOS43MSAyNjMuNDE2IDMxMC4zMSAyNjQuMTEyQzMxMC45MzQgMjY0Ljc4NCAzMTIuMDAyIDI2NS4xMiAzMTMuNTE0IDI2NS4xMkMzMTQuMjU4IDI2NS4xMiAzMTQuOTQyIDI2NS4wNiAzMTUuNTY2IDI2NC45NEMzMTYuMTkgMjY0Ljc5NiAzMTYuNzkgMjY0LjYxNiAzMTcuMzY2IDI2NC40TDMxOC4xNTggMjY3LjQyNEMzMTcuMzY2IDI2Ny42ODggMzE2LjUxNCAyNjcuOTE2IDMxNS42MDIgMjY4LjEwOEMzMTQuNjkgMjY4LjMyNCAzMTMuNjU4IDI2OC40MzIgMzEyLjUwNiAyNjguNDMyWiIvPiYjeGE7PHBhdGggZmlsbD0iIzI0MjUyNiIgZD0iTTMyMy4xMjQgMjU3LjYzMlYyNTQuNjA4SDMzOS4xMDhWMjU3LjYzMkgzMjMuMTI0WiIvPiYjeGE7PHBhdGggZmlsbD0iIzI0MjUyNiIgZD0iTTM1My4xMSAyNjguNDMyQzM1MS40NTQgMjY4LjQzMiAzNDkuODcgMjY4LjE2OCAzNDguMzU4IDI2Ny42NEMzNDYuODQ2IDI2Ny4wODggMzQ1LjUzOCAyNjYuNDQgMzQ0LjQzNCAyNjUuNjk2TDM0Ni4yMzQgMjYzLjA2OEMzNDcuMzE0IDI2My43NjQgMzQ4LjQ1NCAyNjQuMzE2IDM0OS42NTQgMjY0LjcyNEMzNTAuODc4IDI2NS4xMDggMzUyLjIxIDI2NS4zIDM1My42NSAyNjUuM0MzNTQuODc0IDI2NS4zIDM1NS43NzQgMjY1LjA5NiAzNTYuMzUgMjY0LjY4OEMzNTYuOTUgMjY0LjI4IDM1Ny4yNSAyNjMuNzc2IDM1Ny4yNSAyNjMuMTc2QzM1Ny4yNSAyNjIuODg4IDM1Ny4xOSAyNjIuNjM2IDM1Ny4wNyAyNjIuNDJDMzU2Ljk1IDI2Mi4xOCAzNTYuNzEgMjYxLjk1MiAzNTYuMzUgMjYxLjczNkMzNTUuOTkgMjYxLjUyIDM1NS40ODYgMjYxLjMxNiAzNTQuODM4IDI2MS4xMjRDMzU0LjIxNCAyNjAuOTMyIDM1My4zODYgMjYwLjcyOCAzNTIuMzU0IDI2MC41MTJDMzQ5Ljk3OCAyNjAuMDMyIDM0OC4yMzggMjU5LjM2IDM0Ny4xMzQgMjU4LjQ5NkMzNDYuMDU0IDI1Ny42MzIgMzQ1LjUxNCAyNTYuNTI4IDM0NS41MTQgMjU1LjE4NEMzNDUuNTE0IDI1My42MjQgMzQ2LjE4NiAyNTIuMzUyIDM0Ny41MyAyNTEuMzY4QzM0OC44NzQgMjUwLjM4NCAzNTAuNzk0IDI0OS44OTIgMzUzLjI5IDI0OS44OTJDMzU0Ljc1NCAyNDkuODkyIDM1Ni4xMjIgMjUwLjEzMiAzNTcuMzk0IDI1MC42MTJDMzU4LjY2NiAyNTEuMDkyIDM1OS43NTggMjUxLjYzMiAzNjAuNjcgMjUyLjIzMkwzNTguNzYyIDI1NC43ODhDMzU3Ljg5OCAyNTQuMjM2IDM1Ni45NzQgMjUzLjgwNCAzNTUuOTkgMjUzLjQ5MkMzNTUuMDA2IDI1My4xOCAzNTMuOTg2IDI1My4wMjQgMzUyLjkzIDI1My4wMjRDMzUxLjc1NCAyNTMuMDI0IDM1MC45MTQgMjUzLjIxNiAzNTAuNDEgMjUzLjZDMzQ5LjkwNiAyNTMuOTYgMzQ5LjY1NCAyNTQuNDE2IDM0OS42NTQgMjU0Ljk2OEMzNDkuNjU0IDI1NS41OTIgMzUwLjAxNCAyNTYuMDYgMzUwLjczNCAyNTYuMzcyQzM1MS40NTQgMjU2LjY4NCAzNTIuNjMgMjU3LjAyIDM1NC4yNjIgMjU3LjM4QzM1NS42NzggMjU3LjY5MiAzNTYuODQyIDI1OC4wMjggMzU3Ljc1NCAyNTguMzg4QzM1OC42NjYgMjU4Ljc0OCAzNTkuMzg2IDI1OS4xNTYgMzU5LjkxNCAyNTkuNjEyQzM2MC40NjYgMjYwLjA0NCAzNjAuODUgMjYwLjUzNiAzNjEuMDY2IDI2MS4wODhDMzYxLjI4MiAyNjEuNjQgMzYxLjM5IDI2Mi4yNjQgMzYxLjM5IDI2Mi45NkMzNjEuMzkgMjYzLjcyOCAzNjEuMjEgMjY0LjQ0OCAzNjAuODUgMjY1LjEyQzM2MC40OSAyNjUuNzY4IDM1OS45NjIgMjY2LjM0NCAzNTkuMjY2IDI2Ni44NDhDMzU4LjU3IDI2Ny4zMjggMzU3LjcwNiAyNjcuNzEyIDM1Ni42NzQgMjY4QzM1NS42NDIgMjY4LjI4OCAzNTQuNDU0IDI2OC40MzIgMzUzLjExIDI2OC40MzJaIi8+JiN4YTs8cGF0aCBmaWxsPSIjMjQyNTI2IiBkPSJNMzc0Ljc3OSAyNjhWMjUzLjZIMzY3LjExMVYyNTAuMzI0SDM3OC45MTlWMjY4SDM3NC43NzlaTTM3Ni41NzkgMjQ3LjA4NEMzNzUuNzM5IDI0Ny4wODQgMzc1LjAzMSAyNDYuODMyIDM3NC40NTUgMjQ2LjMyOEMzNzMuOTAzIDI0NS44MjQgMzczLjYyNyAyNDUuMTUyIDM3My42MjcgMjQ0LjMxMkMzNzMuNjI3IDI0My40NzIgMzczLjkwMyAyNDIuOCAzNzQuNDU1IDI0Mi4yOTZDMzc1LjAzMSAyNDEuNzY4IDM3NS43MzkgMjQxLjUwNCAzNzYuNTc5IDI0MS41MDRDMzc3LjQxOSAyNDEuNTA0IDM3OC4xMTUgMjQxLjc2OCAzNzguNjY3IDI0Mi4yOTZDMzc5LjI0MyAyNDIuOCAzNzkuNTMxIDI0My40NzIgMzc5LjUzMSAyNDQuMzEyQzM3OS41MzEgMjQ1LjE1MiAzNzkuMjQzIDI0NS44MjQgMzc4LjY2NyAyNDYuMzI4QzM3OC4xMTUgMjQ2LjgzMiAzNzcuNDE5IDI0Ny4wODQgMzc2LjU3OSAyNDcuMDg0WiIvPiYjeGE7PHBhdGggZmlsbD0iIzI0MjUyNiIgZD0iTTM4OC41MjkgMjY4VjI2NS43NjhMMzk5LjE0OSAyNTMuNkgzODkuNzE3VjI1MC4zMjRINDA0Ljk4MVYyNTIuNTJMMzk0LjMyNSAyNjQuNjg4SDQwNS4yNjlWMjY4SDM4OC41MjlaIi8+JiN4YTs8cGF0aCBmaWxsPSIjMjQyNTI2IiBkPSJNNDE5LjczOSAyNjguNDMyQzQxOC4zOTUgMjY4LjQzMiA0MTcuMTM1IDI2OC4yMjggNDE1Ljk1OSAyNjcuODJDNDE0Ljc4MyAyNjcuMzg4IDQxMy43NTEgMjY2Ljc3NiA0MTIuODYzIDI2NS45ODRDNDExLjk5OSAyNjUuMTkyIDQxMS4zMTUgMjY0LjIyIDQxMC44MTEgMjYzLjA2OEM0MTAuMzA3IDI2MS45MTYgNDEwLjA1NSAyNjAuNjA4IDQxMC4wNTUgMjU5LjE0NEM0MTAuMDU1IDI1Ny43MDQgNDEwLjMwNyAyNTYuNDIgNDEwLjgxMSAyNTUuMjkyQzQxMS4zMTUgMjU0LjE0IDQxMS45ODcgMjUzLjE2OCA0MTIuODI3IDI1Mi4zNzZDNDEzLjY5MSAyNTEuNTYgNDE0LjY2MyAyNTAuOTQ4IDQxNS43NDMgMjUwLjU0QzQxNi44NDcgMjUwLjEwOCA0MTcuOTk5IDI0OS44OTIgNDE5LjE5OSAyNDkuODkyQzQyMC41MTkgMjQ5Ljg5MiA0MjEuNjgzIDI1MC4xMDggNDIyLjY5MSAyNTAuNTRDNDIzLjY5OSAyNTAuOTQ4IDQyNC41NTEgMjUxLjUyNCA0MjUuMjQ3IDI1Mi4yNjhDNDI1Ljk0MyAyNTIuOTg4IDQyNi40NzEgMjUzLjg2NCA0MjYuODMxIDI1NC44OTZDNDI3LjE5MSAyNTUuOTI4IDQyNy4zNzEgMjU3LjA1NiA0MjcuMzcxIDI1OC4yOEM0MjcuMzcxIDI1OC42ODggNDI3LjM0NyAyNTkuMDg0IDQyNy4yOTkgMjU5LjQ2OEM0MjcuMjc1IDI1OS44MjggNDI3LjIzOSAyNjAuMTI4IDQyNy4xOTEgMjYwLjM2OEg0MTQuMTk1QzQxNC40MzUgMjYyLjAyNCA0MTUuMDk1IDI2My4yNDggNDE2LjE3NSAyNjQuMDRDNDE3LjI1NSAyNjQuODMyIDQxOC42MjMgMjY1LjIyOCA0MjAuMjc5IDI2NS4yMjhDNDIxLjIxNSAyNjUuMjI4IDQyMi4wNzkgMjY1LjA5NiA0MjIuODcxIDI2NC44MzJDNDIzLjY2MyAyNjQuNTY4IDQyNC40NTUgMjY0LjIwOCA0MjUuMjQ3IDI2My43NTJMNDI2LjY1MSAyNjYuMzQ0QzQyNS43MTUgMjY2Ljk2OCA0MjQuNjQ3IDI2Ny40NzIgNDIzLjQ0NyAyNjcuODU2QzQyMi4yNzEgMjY4LjI0IDQyMS4wMzUgMjY4LjQzMiA0MTkuNzM5IDI2OC40MzJaTTQxOS4zMDcgMjUzLjA5NkM0MTguMDgzIDI1My4wOTYgNDE3LjAwMyAyNTMuNDU2IDQxNi4wNjcgMjU0LjE3NkM0MTUuMTU1IDI1NC44OTYgNDE0LjU2NyAyNTUuOTc2IDQxNC4zMDMgMjU3LjQxNkg0MjMuNjk5QzQyMy41NTUgMjU1Ljk3NiA0MjMuMDk5IDI1NC44OTYgNDIyLjMzMSAyNTQuMTc2QzQyMS41ODcgMjUzLjQ1NiA0MjAuNTc5IDI1My4wOTYgNDE5LjMwNyAyNTMuMDk2WiIvPiYjeGE7PHBhdGggZmlsbD0iIzI0MjUyNiIgZD0iTTQ0MC41NDUgMjU2LjE5MkM0MzkuNTEzIDI1Ni4xOTIgNDM4LjY2MSAyNTUuODU2IDQzNy45ODkgMjU1LjE4NEM0MzcuMzE3IDI1NC40ODggNDM2Ljk4MSAyNTMuNjEyIDQzNi45ODEgMjUyLjU1NkM0MzYuOTgxIDI1MS41IDQzNy4zMTcgMjUwLjYzNiA0MzcuOTg5IDI0OS45NjRDNDM4LjY2MSAyNDkuMjY4IDQzOS41MTMgMjQ4LjkyIDQ0MC41NDUgMjQ4LjkyQzQ0MS41NzcgMjQ4LjkyIDQ0Mi40MjkgMjQ5LjI2OCA0NDMuMTAxIDI0OS45NjRDNDQzLjc3MyAyNTAuNjM2IDQ0NC4xMDkgMjUxLjUgNDQ0LjEwOSAyNTIuNTU2QzQ0NC4xMDkgMjUzLjYxMiA0NDMuNzczIDI1NC40ODggNDQzLjEwMSAyNTUuMTg0QzQ0Mi40MjkgMjU1Ljg1NiA0NDEuNTc3IDI1Ni4xOTIgNDQwLjU0NSAyNTYuMTkyWk00NDAuNTQ1IDI2OC40MzJDNDM5LjUxMyAyNjguNDMyIDQzOC42NjEgMjY4LjA5NiA0MzcuOTg5IDI2Ny40MjRDNDM3LjMxNyAyNjYuNzI4IDQzNi45ODEgMjY1Ljg1MiA0MzYuOTgxIDI2NC43OTZDNDM2Ljk4MSAyNjMuNzQgNDM3LjMxNyAyNjIuODc2IDQzNy45ODkgMjYyLjIwNEM0MzguNjYxIDI2MS41MDggNDM5LjUxMyAyNjEuMTYgNDQwLjU0NSAyNjEuMTZDNDQxLjU3NyAyNjEuMTYgNDQyLjQyOSAyNjEuNTA4IDQ0My4xMDEgMjYyLjIwNEM0NDMuNzczIDI2Mi44NzYgNDQ0LjEwOSAyNjMuNzQgNDQ0LjEwOSAyNjQuNzk2QzQ0NC4xMDkgMjY1Ljg1MiA0NDMuNzczIDI2Ni43MjggNDQzLjEwMSAyNjcuNDI0QzQ0Mi40MjkgMjY4LjA5NiA0NDEuNTc3IDI2OC40MzIgNDQwLjU0NSAyNjguNDMyWiIvPiYjeGE7PHBhdGggZmlsbD0iIzI0MjUyNiIgZD0iTTQ3Ni42ODUgMjY4VjI2NC42MTZINDgzLjA1N1YyNDkuNTY4SDQ3Ny45ODFWMjQ2Ljk3NkM0NzguNzAxIDI0Ni44OCA0NzkuMzQ5IDI0Ni43NzIgNDc5LjkyNSAyNDYuNjUyQzQ4MC41MDEgMjQ2LjUwOCA0ODEuMDI5IDI0Ni4zNjQgNDgxLjUwOSAyNDYuMjJDNDgyLjAxMyAyNDYuMDc2IDQ4Mi40ODEgMjQ1LjkwOCA0ODIuOTEzIDI0NS43MTZDNDgzLjM0NSAyNDUuNTI0IDQ4My43NjUgMjQ1LjMyIDQ4NC4xNzMgMjQ1LjEwNEg0ODcuMTk3VjI2NC42MTZINDkyLjgxM1YyNjhINDc2LjY4NVoiLz4mI3hhOzxwYXRoIGZpbGw9IiMyNDI1MjYiIGQ9Ik01MDYuMjAzIDI2OC40MzJDNTA1LjE3MSAyNjguNDMyIDUwNC4zMTkgMjY4LjA5NiA1MDMuNjQ3IDI2Ny40MjRDNTAyLjk3NSAyNjYuNzI4IDUwMi42MzkgMjY1Ljg1MiA1MDIuNjM5IDI2NC43OTZDNTAyLjYzOSAyNjMuNzQgNTAyLjk3NSAyNjIuODc2IDUwMy42NDcgMjYyLjIwNEM1MDQuMzE5IDI2MS41MDggNTA1LjE3MSAyNjEuMTYgNTA2LjIwMyAyNjEuMTZDNTA3LjIzNSAyNjEuMTYgNTA4LjA4NyAyNjEuNTA4IDUwOC43NTkgMjYyLjIwNEM1MDkuNDMxIDI2Mi44NzYgNTA5Ljc2NyAyNjMuNzQgNTA5Ljc2NyAyNjQuNzk2QzUwOS43NjcgMjY1Ljg1MiA1MDkuNDMxIDI2Ni43MjggNTA4Ljc1OSAyNjcuNDI0QzUwOC4wODcgMjY4LjA5NiA1MDcuMjM1IDI2OC40MzIgNTA2LjIwMyAyNjguNDMyWiIvPiYjeGE7PHBhdGggZmlsbD0iIzI0MjUyNiIgZD0iTTUxOS42MjkgMjY4VjI2NS41ODhDNTIxLjQyOSAyNjQuMDUyIDUyMy4wMzcgMjYyLjY0OCA1MjQuNDUzIDI2MS4zNzZDNTI1Ljg2OSAyNjAuMDggNTI3LjA2OSAyNTguODggNTI4LjA1MyAyNTcuNzc2QzUyOS4wNjEgMjU2LjY3MiA1MjkuODI5IDI1NS42NCA1MzAuMzU3IDI1NC42OEM1MzAuODg1IDI1My43MiA1MzEuMTQ5IDI1Mi43OTYgNTMxLjE0OSAyNTEuOTA4QzUzMS4xNDkgMjUwLjY4NCA1MzAuNzc3IDI0OS43MjQgNTMwLjAzMyAyNDkuMDI4QzUyOS4yODkgMjQ4LjMwOCA1MjguMTk3IDI0Ny45NDggNTI2Ljc1NyAyNDcuOTQ4QzUyNS43NDkgMjQ3Ljk0OCA1MjQuODI1IDI0OC4yIDUyMy45ODUgMjQ4LjcwNEM1MjMuMTY5IDI0OS4yMDggNTIyLjQxMyAyNDkuODA4IDUyMS43MTcgMjUwLjUwNEw1MTkuNDQ5IDI0OC4yQzUyMC41NTMgMjQ3LjA3MiA1MjEuNzE3IDI0Ni4yMDggNTIyLjk0MSAyNDUuNjA4QzUyNC4xNjUgMjQ0Ljk4NCA1MjUuNjE3IDI0NC42NzIgNTI3LjI5NyAyNDQuNjcyQzUyOC40NzMgMjQ0LjY3MiA1MjkuNTQxIDI0NC44NCA1MzAuNTAxIDI0NS4xNzZDNTMxLjQ2MSAyNDUuNTEyIDUzMi4yNzcgMjQ1Ljk5MiA1MzIuOTQ5IDI0Ni42MTZDNTMzLjY0NSAyNDcuMjE2IDUzNC4xNzMgMjQ3Ljk0OCA1MzQuNTMzIDI0OC44MTJDNTM0LjkxNyAyNDkuNjc2IDUzNS4xMDkgMjUwLjYzNiA1MzUuMTA5IDI1MS42OTJDNTM1LjEwOSAyNTIuNyA1MzQuODU3IDI1My43MzIgNTM0LjM1MyAyNTQuNzg4QzUzMy44NzMgMjU1LjgyIDUzMy4yMTMgMjU2Ljg3NiA1MzIuMzczIDI1Ny45NTZDNTMxLjUzMyAyNTkuMDEyIDUzMC41MjUgMjYwLjEwNCA1MjkuMzQ5IDI2MS4yMzJDNTI4LjE5NyAyNjIuMzYgNTI2Ljk2MSAyNjMuNTI0IDUyNS42NDEgMjY0LjcyNEM1MjYuMzEzIDI2NC42NzYgNTI3LjAyMSAyNjQuNjI4IDUyNy43NjUgMjY0LjU4QzUyOC41MDkgMjY0LjUwOCA1MjkuMTkzIDI2NC40NzIgNTI5LjgxNyAyNjQuNDcySDUzNi4yOTdWMjY4SDUxOS42MjlaIi8+JiN4YTs8cGF0aCBmaWxsPSIjMjQyNTI2IiBkPSJNNTQzLjg1NSAyNjhWMjUwLjMyNEg1NDcuMjc1TDU0Ny42MzUgMjU0LjMySDU0Ny43NDNDNTQ4LjY1NSAyNTIuODggNTQ5Ljc0NyAyNTEuNzg4IDU1MS4wMTkgMjUxLjA0NEM1NTIuMzE1IDI1MC4yNzYgNTUzLjczMSAyNDkuODkyIDU1NS4yNjcgMjQ5Ljg5MkM1NTUuOTg3IDI0OS44OTIgNTU2LjU5OSAyNDkuOTUyIDU1Ny4xMDMgMjUwLjA3MkM1NTcuNjMxIDI1MC4xNjggNTU4LjE1OSAyNTAuMzQ4IDU1OC42ODcgMjUwLjYxMkw1NTcuODIzIDI1NC4xMDRDNTU3LjI0NyAyNTMuOTEyIDU1Ni43MzEgMjUzLjc4IDU1Ni4yNzUgMjUzLjcwOEM1NTUuODQzIDI1My42MTIgNTU1LjI5MSAyNTMuNTY0IDU1NC42MTkgMjUzLjU2NEM1NTMuMzk1IDI1My41NjQgNTUyLjIxOSAyNTMuOTEyIDU1MS4wOTEgMjU0LjYwOEM1NDkuOTYzIDI1NS4zMDQgNTQ4Ljk0MyAyNTYuNTE2IDU0OC4wMzEgMjU4LjI0NFYyNjhINTQzLjg1NVoiLz4mI3hhOzxwYXRoIGZpbGw9IiMyNDI1MjYiIGQ9Ik01NzIuOTQxIDI2OC40MzJDNTcxLjU5NyAyNjguNDMyIDU3MC4zMzcgMjY4LjIyOCA1NjkuMTYxIDI2Ny44MkM1NjcuOTg1IDI2Ny4zODggNTY2Ljk1MyAyNjYuNzc2IDU2Ni4wNjUgMjY1Ljk4NEM1NjUuMjAxIDI2NS4xOTIgNTY0LjUxNyAyNjQuMjIgNTY0LjAxMyAyNjMuMDY4QzU2My41MDkgMjYxLjkxNiA1NjMuMjU3IDI2MC42MDggNTYzLjI1NyAyNTkuMTQ0QzU2My4yNTcgMjU3LjcwNCA1NjMuNTA5IDI1Ni40MiA1NjQuMDEzIDI1NS4yOTJDNTY0LjUxNyAyNTQuMTQgNTY1LjE4OSAyNTMuMTY4IDU2Ni4wMjkgMjUyLjM3NkM1NjYuODkzIDI1MS41NiA1NjcuODY1IDI1MC45NDggNTY4Ljk0NSAyNTAuNTRDNTcwLjA0OSAyNTAuMTA4IDU3MS4yMDEgMjQ5Ljg5MiA1NzIuNDAxIDI0OS44OTJDNTczLjcyMSAyNDkuODkyIDU3NC44ODUgMjUwLjEwOCA1NzUuODkzIDI1MC41NEM1NzYuOTAxIDI1MC45NDggNTc3Ljc1MyAyNTEuNTI0IDU3OC40NDkgMjUyLjI2OEM1NzkuMTQ1IDI1Mi45ODggNTc5LjY3MyAyNTMuODY0IDU4MC4wMzMgMjU0Ljg5NkM1ODAuMzkzIDI1NS45MjggNTgwLjU3MyAyNTcuMDU2IDU4MC41NzMgMjU4LjI4QzU4MC41NzMgMjU4LjY4OCA1ODAuNTQ5IDI1OS4wODQgNTgwLjUwMSAyNTkuNDY4QzU4MC40NzcgMjU5LjgyOCA1ODAuNDQxIDI2MC4xMjggNTgwLjM5MyAyNjAuMzY4SDU2Ny4zOTdDNTY3LjYzNyAyNjIuMDI0IDU2OC4yOTcgMjYzLjI0OCA1NjkuMzc3IDI2NC4wNEM1NzAuNDU3IDI2NC44MzIgNTcxLjgyNSAyNjUuMjI4IDU3My40ODEgMjY1LjIyOEM1NzQuNDE3IDI2NS4yMjggNTc1LjI4MSAyNjUuMDk2IDU3Ni4wNzMgMjY0LjgzMkM1NzYuODY1IDI2NC41NjggNTc3LjY1NyAyNjQuMjA4IDU3OC40NDkgMjYzLjc1Mkw1NzkuODUzIDI2Ni4zNDRDNTc4LjkxNyAyNjYuOTY4IDU3Ny44NDkgMjY3LjQ3MiA1NzYuNjQ5IDI2Ny44NTZDNTc1LjQ3MyAyNjguMjQgNTc0LjIzNyAyNjguNDMyIDU3Mi45NDEgMjY4LjQzMlpNNTcyLjUwOSAyNTMuMDk2QzU3MS4yODUgMjUzLjA5NiA1NzAuMjA1IDI1My40NTYgNTY5LjI2OSAyNTQuMTc2QzU2OC4zNTcgMjU0Ljg5NiA1NjcuNzY5IDI1NS45NzYgNTY3LjUwNSAyNTcuNDE2SDU3Ni45MDFDNTc2Ljc1NyAyNTUuOTc2IDU3Ni4zMDEgMjU0Ljg5NiA1NzUuNTMzIDI1NC4xNzZDNTc0Ljc4OSAyNTMuNDU2IDU3My43ODEgMjUzLjA5NiA1NzIuNTA5IDI1My4wOTZaIi8+JiN4YTs8cGF0aCBmaWxsPSIjMjQyNTI2IiBkPSJNNTg0LjYwMyAyNjhWMjUwLjMyNEg1ODcuODA3TDU4OC4xMzEgMjUyLjU1Nkg1ODguMjM5QzU4OC42MjMgMjUxLjc4OCA1ODkuMTE1IDI1MS4xNTIgNTg5LjcxNSAyNTAuNjQ4QzU5MC4zMTUgMjUwLjE0NCA1OTEuMTMxIDI0OS44OTIgNTkyLjE2MyAyNDkuODkyQzU5My44MTkgMjQ5Ljg5MiA1OTQuODg3IDI1MC44NzYgNTk1LjM2NyAyNTIuODQ0QzU5NS43NzUgMjUxLjk4IDU5Ni4yOTEgMjUxLjI3MiA1OTYuOTE1IDI1MC43MkM1OTcuNTM5IDI1MC4xNjggNTk4LjM2NyAyNDkuODkyIDU5OS4zOTkgMjQ5Ljg5MkM2MDAuNjQ3IDI0OS44OTIgNjAxLjYwNyAyNTAuMzg0IDYwMi4yNzkgMjUxLjM2OEM2MDIuOTc1IDI1Mi4zMjggNjAzLjMyMyAyNTMuNjk2IDYwMy4zMjMgMjU1LjQ3MlYyNjhINTk5LjMyN1YyNTUuNzZDNTk5LjMyNyAyNTQuMiA1OTguODU5IDI1My40MiA1OTcuOTIzIDI1My40MkM1OTcuNDQzIDI1My40MiA1OTcuMDM1IDI1My42MTIgNTk2LjY5OSAyNTMuOTk2QzU5Ni4zODcgMjU0LjM1NiA1OTYuMDUxIDI1NC45MDggNTk1LjY5MSAyNTUuNjUyVjI2OEg1OTIuMjM1VjI1NS43NkM1OTIuMjM1IDI1NC45OTIgNTkyLjEyNyAyNTQuNDE2IDU5MS45MTEgMjU0LjAzMkM1OTEuNjk1IDI1My42MjQgNTkxLjMzNSAyNTMuNDIgNTkwLjgzMSAyNTMuNDJDNTkwLjM1MSAyNTMuNDIgNTg5Ljk0MyAyNTMuNjEyIDU4OS42MDcgMjUzLjk5NkM1ODkuMjk1IDI1NC4zNTYgNTg4Ljk3MSAyNTQuOTA4IDU4OC42MzUgMjU1LjY1MlYyNjhINTg0LjYwM1oiLz4mI3hhOzxwYXRoIGZpbGw9IiMyNDI1MjYiIGQ9Ik02MTUuNjMzIDI1Ni4xOTJDNjE0LjYwMSAyNTYuMTkyIDYxMy43NDkgMjU1Ljg1NiA2MTMuMDc3IDI1NS4xODRDNjEyLjQwNSAyNTQuNDg4IDYxMi4wNjkgMjUzLjYxMiA2MTIuMDY5IDI1Mi41NTZDNjEyLjA2OSAyNTEuNSA2MTIuNDA1IDI1MC42MzYgNjEzLjA3NyAyNDkuOTY0QzYxMy43NDkgMjQ5LjI2OCA2MTQuNjAxIDI0OC45MiA2MTUuNjMzIDI0OC45MkM2MTYuNjY1IDI0OC45MiA2MTcuNTE3IDI0OS4yNjggNjE4LjE4OSAyNDkuOTY0QzYxOC44NjEgMjUwLjYzNiA2MTkuMTk3IDI1MS41IDYxOS4xOTcgMjUyLjU1NkM2MTkuMTk3IDI1My42MTIgNjE4Ljg2MSAyNTQuNDg4IDYxOC4xODkgMjU1LjE4NEM2MTcuNTE3IDI1NS44NTYgNjE2LjY2NSAyNTYuMTkyIDYxNS42MzMgMjU2LjE5MlpNNjEyLjcxNyAyNzUuNzRMNjExLjYzNyAyNzMuMjU2QzYxNC42MzcgMjcyLjAzMiA2MTYuMTczIDI3MC4xODQgNjE2LjI0NSAyNjcuNzEyQzYxNi4xMjUgMjY3LjczNiA2MTUuOTU3IDI2Ny43NDggNjE1Ljc0MSAyNjcuNzQ4QzYxNC44MjkgMjY3Ljc0OCA2MTQuMDM3IDI2Ny40ODQgNjEzLjM2NSAyNjYuOTU2QzYxMi42OTMgMjY2LjQwNCA2MTIuMzU3IDI2NS42IDYxMi4zNTcgMjY0LjU0NEM2MTIuMzU3IDI2My41MzYgNjEyLjY5MyAyNjIuNzU2IDYxMy4zNjUgMjYyLjIwNEM2MTQuMDYxIDI2MS42MjggNjE0Ljg3NyAyNjEuMzQgNjE1LjgxMyAyNjEuMzRDNjE3LjEwOSAyNjEuMzQgNjE4LjA4MSAyNjEuODIgNjE4LjcyOSAyNjIuNzhDNjE5LjM3NyAyNjMuNzQgNjE5LjcwMSAyNjUuMDYgNjE5LjcwMSAyNjYuNzRDNjE5LjcwMSAyNjguOTQ4IDYxOS4xMDEgMjcwLjgwOCA2MTcuOTAxIDI3Mi4zMkM2MTYuNzAxIDI3My44NTYgNjE0Ljk3MyAyNzQuOTk2IDYxMi43MTcgMjc1Ljc0WiIvPiYjeGE7PHBhdGggZmlsbD0iIzI0MjUyNiIgZD0iTTE5Mi42NzIgMzIzLjQ3MlYzMjEuMjA0SDE5NC4zMjhDMTk1LjE0NCAzMjEuMjA0IDE5NS44MTYgMzIxLjE1NiAxOTYuMzQ0IDMyMS4wNkMxOTYuODcyIDMyMC45NjQgMTk3LjI5MiAzMjAuNzk2IDE5Ny42MDQgMzIwLjU1NkMxOTcuOTE2IDMyMC4zNCAxOTguMTIgMzIwLjA1MiAxOTguMjE2IDMxOS42OTJDMTk4LjMzNiAzMTkuMzMyIDE5OC4zOTYgMzE4Ljg3NiAxOTguMzk2IDMxOC4zMjRDMTk4LjM5NiAzMTcuMjY4IDE5OC4zNiAzMTYuMjYgMTk4LjI4OCAzMTUuM0MxOTguMjQgMzE0LjM0IDE5OC4yMTYgMzEzLjI4NCAxOTguMjE2IDMxMi4xMzJDMTk4LjIxNiAzMTAuODYgMTk4LjQ1NiAzMDkuOTI0IDE5OC45MzYgMzA5LjMyNEMxOTkuNDQgMzA4LjcgMjAwLjM0IDMwOC4yOCAyMDEuNjM2IDMwOC4wNjRWMzA3LjkyQzIwMC4zNCAzMDcuNzA0IDE5OS40NCAzMDcuMjk2IDE5OC45MzYgMzA2LjY5NkMxOTguNDU2IDMwNi4wNzIgMTk4LjIxNiAzMDUuMTI0IDE5OC4yMTYgMzAzLjg1MkMxOTguMjE2IDMwMi43NDggMTk4LjI0IDMwMS42OTIgMTk4LjI4OCAzMDAuNjg0QzE5OC4zNiAyOTkuNjc2IDE5OC4zOTYgMjk4LjY2OCAxOTguMzk2IDI5Ny42NkMxOTguMzk2IDI5Ny4xMzIgMTk4LjMzNiAyOTYuNjg4IDE5OC4yMTYgMjk2LjMyOEMxOTguMTIgMjk1Ljk0NCAxOTcuOTE2IDI5NS42NDQgMTk3LjYwNCAyOTUuNDI4QzE5Ny4yOTIgMjk1LjE4OCAxOTYuODcyIDI5NS4wMiAxOTYuMzQ0IDI5NC45MjRDMTk1LjgxNiAyOTQuODI4IDE5NS4xNDQgMjk0Ljc4IDE5NC4zMjggMjk0Ljc4SDE5Mi42NzJWMjkyLjUxMkgxOTUuMTU2QzE5Ni4zMDggMjkyLjUxMiAxOTcuMjkyIDI5Mi41OTYgMTk4LjEwOCAyOTIuNzY0QzE5OC45NDggMjkyLjkwOCAxOTkuNjQ0IDI5My4xNzIgMjAwLjE5NiAyOTMuNTU2QzIwMC43NDggMjkzLjk0IDIwMS4xNTYgMjk0LjQ1NiAyMDEuNDIgMjk1LjEwNEMyMDEuNjg0IDI5NS43MjggMjAxLjgxNiAyOTYuNTIgMjAxLjgxNiAyOTcuNDhDMjAxLjgxNiAyOTguNzI4IDIwMS43NTYgMjk5Ljg1NiAyMDEuNjM2IDMwMC44NjRDMjAxLjUxNiAzMDEuODQ4IDIwMS40NTYgMzAyLjkwNCAyMDEuNDU2IDMwNC4wMzJDMjAxLjQ1NiAzMDQuMzY4IDIwMS41MjggMzA0LjY5MiAyMDEuNjcyIDMwNS4wMDRDMjAxLjgxNiAzMDUuMzE2IDIwMi4wOCAzMDUuNjA0IDIwMi40NjQgMzA1Ljg2OEMyMDIuODQ4IDMwNi4xMDggMjAzLjM2NCAzMDYuMzEyIDIwNC4wMTIgMzA2LjQ4QzIwNC42ODQgMzA2LjY0OCAyMDUuNTI0IDMwNi43MzIgMjA2LjUzMiAzMDYuNzMyVjMwOS4yNTJDMjA1LjUyNCAzMDkuMjUyIDIwNC42ODQgMzA5LjMzNiAyMDQuMDEyIDMwOS41MDRDMjAzLjM2NCAzMDkuNjcyIDIwMi44NDggMzA5Ljg4OCAyMDIuNDY0IDMxMC4xNTJDMjAyLjA4IDMxMC4zOTIgMjAxLjgxNiAzMTAuNjggMjAxLjY3MiAzMTEuMDE2QzIwMS41MjggMzExLjMyOCAyMDEuNDU2IDMxMS42NCAyMDEuNDU2IDMxMS45NTJDMjAxLjQ1NiAzMTIuNTUyIDIwMS40NjggMzEzLjExNiAyMDEuNDkyIDMxMy42NDRDMjAxLjU0IDMxNC4xNDggMjAxLjU4OCAzMTQuNjUyIDIwMS42MzYgMzE1LjE1NkMyMDEuNjg0IDMxNS42NiAyMDEuNzIgMzE2LjE4OCAyMDEuNzQ0IDMxNi43NEMyMDEuNzkyIDMxNy4yNjggMjAxLjgxNiAzMTcuODU2IDIwMS44MTYgMzE4LjUwNEMyMDEuODE2IDMxOS40NjQgMjAxLjY4NCAzMjAuMjU2IDIwMS40MiAzMjAuODhDMjAxLjE1NiAzMjEuNTI4IDIwMC43NDggMzIyLjA0NCAyMDAuMTk2IDMyMi40MjhDMTk5LjY0NCAzMjIuODEyIDE5OC45NDggMzIzLjA3NiAxOTguMTA4IDMyMy4yMkMxOTcuMjkyIDMyMy4zODggMTk2LjMwOCAzMjMuNDcyIDE5NS4xNTYgMzIzLjQ3MkgxOTIuNjcyWiIvPiYjeGE7PHBhdGggZmlsbD0iYmxhY2siIGQ9Ik0xOTkuNjQ2IDc5LjM1MzZDMTk5Ljg0MiA3OS41NDg4IDIwMC4xNTggNzkuNTQ4OCAyMDAuMzU0IDc5LjM1MzZMMjAzLjUzNiA3Ni4xNzE2QzIwMy43MzEgNzUuOTc2MyAyMDMuNzMxIDc1LjY1OTcgMjAzLjUzNiA3NS40NjQ1QzIwMy4zNCA3NS4yNjkyIDIwMy4wMjQgNzUuMjY5MiAyMDIuODI4IDc1LjQ2NDVMMjAwIDc4LjI5MjlMMTk3LjE3MiA3NS40NjQ1QzE5Ni45NzYgNzUuMjY5MiAxOTYuNjYgNzUuMjY5MiAxOTYuNDY0IDc1LjQ2NDVDMTk2LjI2OSA3NS42NTk3IDE5Ni4yNjkgNzUuOTc2MyAxOTYuNDY0IDc2LjE3MTZMMTk5LjY0NiA3OS4zNTM2Wk0xOTkuNSA1N0wxOTkuNSA3OUwyMDAuNSA3OUwyMDAuNSA1N0wxOTkuNSA1N1oiLz4mI3hhOzxwYXRoIGZpbGw9IiMzNzQwRkYiIGQ9Ik0yMTAuOTE0IDY2LjAxNTZDMjEwLjkxNCA2NS41NzI5IDIxMC43NTggNjUuMjM0NCAyMTAuNDQ1IDY1QzIxMC4xMzMgNjQuNzYwNCAyMDkuNTcgNjQuNTEwNCAyMDguNzU4IDY0LjI1QzIwNy45NDUgNjMuOTg0NCAyMDcuMzAyIDYzLjcyNCAyMDYuODI4IDYzLjQ2ODhDMjA1LjUzNiA2Mi43NzA4IDIwNC44OTEgNjEuODMwNyAyMDQuODkxIDYwLjY0ODRDMjA0Ljg5MSA2MC4wMzM5IDIwNS4wNjIgNTkuNDg3IDIwNS40MDYgNTkuMDA3OEMyMDUuNzU1IDU4LjUyMzQgMjA2LjI1MyA1OC4xNDU4IDIwNi44OTggNTcuODc1QzIwNy41NDkgNTcuNjA0MiAyMDguMjc5IDU3LjQ2ODggMjA5LjA4NiA1Ny40Njg4QzIwOS44OTggNTcuNDY4OCAyMTAuNjIyIDU3LjYxNzIgMjExLjI1OCA1Ny45MTQxQzIxMS44OTMgNTguMjA1NyAyMTIuMzg1IDU4LjYxOTggMjEyLjczNCA1OS4xNTYyQzIxMy4wODkgNTkuNjkyNyAyMTMuMjY2IDYwLjMwMjEgMjEzLjI2NiA2MC45ODQ0SDIxMC45MjJDMjEwLjkyMiA2MC40NjM1IDIxMC43NTggNjAuMDU5OSAyMTAuNDMgNTkuNzczNEMyMTAuMTAyIDU5LjQ4MTggMjA5LjY0MSA1OS4zMzU5IDIwOS4wNDcgNTkuMzM1OUMyMDguNDc0IDU5LjMzNTkgMjA4LjAyOSA1OS40NTgzIDIwNy43MTEgNTkuNzAzMUMyMDcuMzkzIDU5Ljk0MjcgMjA3LjIzNCA2MC4yNjA0IDIwNy4yMzQgNjAuNjU2MkMyMDcuMjM0IDYxLjAyNiAyMDcuNDE5IDYxLjMzNTkgMjA3Ljc4OSA2MS41ODU5QzIwOC4xNjQgNjEuODM1OSAyMDguNzE0IDYyLjA3MDMgMjA5LjQzOCA2Mi4yODkxQzIxMC43NzEgNjIuNjkwMSAyMTEuNzQyIDYzLjE4NzUgMjEyLjM1MiA2My43ODEyQzIxMi45NjEgNjQuMzc1IDIxMy4yNjYgNjUuMTE0NiAyMTMuMjY2IDY2QzIxMy4yNjYgNjYuOTg0NCAyMTIuODkzIDY3Ljc1NzggMjEyLjE0OCA2OC4zMjAzQzIxMS40MDQgNjguODc3NiAyMTAuNDAxIDY5LjE1NjIgMjA5LjE0MSA2OS4xNTYyQzIwOC4yNjYgNjkuMTU2MiAyMDcuNDY5IDY4Ljk5NzQgMjA2Ljc1IDY4LjY3OTdDMjA2LjAzMSA2OC4zNTY4IDIwNS40ODIgNjcuOTE2NyAyMDUuMTAyIDY3LjM1OTRDMjA0LjcyNyA2Ni44MDIxIDIwNC41MzkgNjYuMTU2MiAyMDQuNTM5IDY1LjQyMTlIMjA2Ljg5MUMyMDYuODkxIDY2LjY3NzEgMjA3LjY0MSA2Ny4zMDQ3IDIwOS4xNDEgNjcuMzA0N0MyMDkuNjk4IDY3LjMwNDcgMjEwLjEzMyA2Ny4xOTI3IDIxMC40NDUgNjYuOTY4OEMyMTAuNzU4IDY2LjczOTYgMjEwLjkxNCA2Ni40MjE5IDIxMC45MTQgNjYuMDE1NloiLz4mI3hhOzxwYXRoIGZpbGw9IiMzNzQwRkYiIGQ9Ik0yMTguOTAyIDY5LjE1NjJDMjE3LjY2MiA2OS4xNTYyIDIxNi42NTIgNjguNzc2IDIxNS44NyA2OC4wMTU2QzIxNS4wOTQgNjcuMjU1MiAyMTQuNzA2IDY2LjI0MjIgMjE0LjcwNiA2NC45NzY2VjY0Ljc1NzhDMjE0LjcwNiA2My45MDg5IDIxNC44NyA2My4xNTEgMjE1LjE5OCA2Mi40ODQ0QzIxNS41MjcgNjEuODEyNSAyMTUuOTkgNjEuMjk2OSAyMTYuNTg5IDYwLjkzNzVDMjE3LjE5MyA2MC41NzI5IDIxNy44ODEgNjAuMzkwNiAyMTguNjUyIDYwLjM5MDZDMjE5LjgwOCA2MC4zOTA2IDIyMC43MTcgNjAuNzU1MiAyMjEuMzc4IDYxLjQ4NDRDMjIyLjA0NSA2Mi4yMTM1IDIyMi4zNzggNjMuMjQ3NCAyMjIuMzc4IDY0LjU4NTlWNjUuNTA3OEgyMTYuOTk1QzIxNy4wNjggNjYuMDU5OSAyMTcuMjg3IDY2LjUwMjYgMjE3LjY1MiA2Ni44MzU5QzIxOC4wMjEgNjcuMTY5MyAyMTguNDg4IDY3LjMzNTkgMjE5LjA1IDY3LjMzNTlDMjE5LjkyIDY3LjMzNTkgMjIwLjU5OSA2Ny4wMjA4IDIyMS4wODkgNjYuMzkwNkwyMjIuMTk4IDY3LjYzMjhDMjIxLjg2IDY4LjExMiAyMjEuNDAyIDY4LjQ4NyAyMjAuODIzIDY4Ljc1NzhDMjIwLjI0NSA2OS4wMjM0IDIxOS42MDUgNjkuMTU2MiAyMTguOTAyIDY5LjE1NjJaTTIxOC42NDQgNjIuMjE4OEMyMTguMTk2IDYyLjIxODggMjE3LjgzMSA2Mi4zNjk4IDIxNy41NSA2Mi42NzE5QzIxNy4yNzQgNjIuOTc0IDIxNy4wOTcgNjMuNDA2MiAyMTcuMDE5IDYzLjk2ODhIMjIwLjE1OVY2My43ODkxQzIyMC4xNDkgNjMuMjg5MSAyMjAuMDE0IDYyLjkwMzYgMjE5Ljc1MyA2Mi42MzI4QzIxOS40OTMgNjIuMzU2OCAyMTkuMTIzIDYyLjIxODggMjE4LjY0NCA2Mi4yMTg4WiIvPiYjeGE7PHBhdGggZmlsbD0iIzM3NDBGRiIgZD0iTTIyNi4zNSA2OUgyMjQuMDg0VjU3SDIyNi4zNVY2OVoiLz4mI3hhOzxwYXRoIGZpbGw9IiMzNzQwRkYiIGQ9Ik0yMzIuNDA4IDY5LjE1NjJDMjMxLjE2OCA2OS4xNTYyIDIzMC4xNTggNjguNzc2IDIyOS4zNzcgNjguMDE1NkMyMjguNjAxIDY3LjI1NTIgMjI4LjIxMiA2Ni4yNDIyIDIyOC4yMTIgNjQuOTc2NlY2NC43NTc4QzIyOC4yMTIgNjMuOTA4OSAyMjguMzc3IDYzLjE1MSAyMjguNzA1IDYyLjQ4NDRDMjI5LjAzMyA2MS44MTI1IDIyOS40OTYgNjEuMjk2OSAyMzAuMDk1IDYwLjkzNzVDMjMwLjY5OSA2MC41NzI5IDIzMS4zODcgNjAuMzkwNiAyMzIuMTU4IDYwLjM5MDZDMjMzLjMxNCA2MC4zOTA2IDIzNC4yMjMgNjAuNzU1MiAyMzQuODg0IDYxLjQ4NDRDMjM1LjU1MSA2Mi4yMTM1IDIzNS44ODQgNjMuMjQ3NCAyMzUuODg0IDY0LjU4NTlWNjUuNTA3OEgyMzAuNTAyQzIzMC41NzQgNjYuMDU5OSAyMzAuNzkzIDY2LjUwMjYgMjMxLjE1OCA2Ni44MzU5QzIzMS41MjggNjcuMTY5MyAyMzEuOTk0IDY3LjMzNTkgMjMyLjU1NiA2Ny4zMzU5QzIzMy40MjYgNjcuMzM1OSAyMzQuMTA2IDY3LjAyMDggMjM0LjU5NSA2Ni4zOTA2TDIzNS43MDUgNjcuNjMyOEMyMzUuMzY2IDY4LjExMiAyMzQuOTA4IDY4LjQ4NyAyMzQuMzMgNjguNzU3OEMyMzMuNzUyIDY5LjAyMzQgMjMzLjExMSA2OS4xNTYyIDIzMi40MDggNjkuMTU2MlpNMjMyLjE1IDYyLjIxODhDMjMxLjcwMiA2Mi4yMTg4IDIzMS4zMzcgNjIuMzY5OCAyMzEuMDU2IDYyLjY3MTlDMjMwLjc4IDYyLjk3NCAyMzAuNjAzIDYzLjQwNjIgMjMwLjUyNSA2My45Njg4SDIzMy42NjZWNjMuNzg5MUMyMzMuNjU1IDYzLjI4OTEgMjMzLjUyIDYyLjkwMzYgMjMzLjI1OSA2Mi42MzI4QzIzMi45OTkgNjIuMzU2OCAyMzIuNjI5IDYyLjIxODggMjMyLjE1IDYyLjIxODhaIi8+JiN4YTs8cGF0aCBmaWxsPSIjMzc0MEZGIiBkPSJNMjQwLjk4OSA2Ny4zMzU5QzI0MS40MDYgNjcuMzM1OSAyNDEuNzQ0IDY3LjIyMTQgMjQyLjAwNSA2Ni45OTIyQzI0Mi4yNjUgNjYuNzYzIDI0Mi40MDEgNjYuNDU4MyAyNDIuNDExIDY2LjA3ODFIMjQ0LjUyOEMyNDQuNTIzIDY2LjY1MSAyNDQuMzY3IDY3LjE3NzEgMjQ0LjA1OSA2Ny42NTYyQzI0My43NTIgNjguMTMwMiAyNDMuMzMgNjguNSAyNDIuNzk0IDY4Ljc2NTZDMjQyLjI2MiA2OS4wMjYgMjQxLjY3NCA2OS4xNTYyIDI0MS4wMjggNjkuMTU2MkMyMzkuODIgNjkuMTU2MiAyMzguODY3IDY4Ljc3MzQgMjM4LjE2OSA2OC4wMDc4QzIzNy40NzEgNjcuMjM3IDIzNy4xMjIgNjYuMTc0NSAyMzcuMTIyIDY0LjgyMDNWNjQuNjcxOUMyMzcuMTIyIDYzLjM2OTggMjM3LjQ2OCA2Mi4zMzA3IDIzOC4xNjEgNjEuNTU0N0MyMzguODU0IDYwLjc3ODYgMjM5LjgwNCA2MC4zOTA2IDI0MS4wMTIgNjAuMzkwNkMyNDIuMDcgNjAuMzkwNiAyNDIuOTE2IDYwLjY5MjcgMjQzLjU1MiA2MS4yOTY5QzI0NC4xOTIgNjEuODk1OCAyNDQuNTE4IDYyLjY5NTMgMjQ0LjUyOCA2My42OTUzSDI0Mi40MTFDMjQyLjQwMSA2My4yNTc4IDI0Mi4yNjUgNjIuOTAzNiAyNDIuMDA1IDYyLjYzMjhDMjQxLjc0NCA2Mi4zNTY4IDI0MS40MDEgNjIuMjE4OCAyNDAuOTczIDYyLjIxODhDMjQwLjQ0NyA2Mi4yMTg4IDI0MC4wNDkgNjIuNDExNSAyMzkuNzc4IDYyLjc5NjlDMjM5LjUxMiA2My4xNzcxIDIzOS4zOCA2My43OTY5IDIzOS4zOCA2NC42NTYyVjY0Ljg5MDZDMjM5LjM4IDY1Ljc2MDQgMjM5LjUxMiA2Ni4zODU0IDIzOS43NzggNjYuNzY1NkMyNDAuMDQ0IDY3LjE0NTggMjQwLjQ0NyA2Ny4zMzU5IDI0MC45ODkgNjcuMzM1OVoiLz4mI3hhOzxwYXRoIGZpbGw9IiMzNzQwRkYiIGQ9Ik0yNDguODIgNTguNDY4OFY2MC41NDY5SDI1MC4yNjZWNjIuMjAzMUgyNDguODJWNjYuNDIxOUMyNDguODIgNjYuNzM0NCAyNDguODggNjYuOTU4MyAyNDkgNjcuMDkzOEMyNDkuMTIgNjcuMjI5MiAyNDkuMzQ5IDY3LjI5NjkgMjQ5LjY4OCA2Ny4yOTY5QzI0OS45MzggNjcuMjk2OSAyNTAuMTU5IDY3LjI3ODYgMjUwLjM1MiA2Ny4yNDIyVjY4Ljk1MzFDMjQ5LjkwOSA2OS4wODg1IDI0OS40NTMgNjkuMTU2MiAyNDguOTg0IDY5LjE1NjJDMjQ3LjQwMSA2OS4xNTYyIDI0Ni41OTQgNjguMzU2OCAyNDYuNTYyIDY2Ljc1NzhWNjIuMjAzMUgyNDUuMzI4VjYwLjU0NjlIMjQ2LjU2MlY1OC40Njg4SDI0OC44MloiLz4mI3hhOzxwYXRoIGZpbGw9IiMzNzQwRkYiIGQ9Ik0yNTEuMjM4IDY0LjY5NTNDMjUxLjIzOCA2My44NTY4IDI1MS4zOTkgNjMuMTA5NCAyNTEuNzIyIDYyLjQ1MzFDMjUyLjA0NSA2MS43OTY5IDI1Mi41MDggNjEuMjg5MSAyNTMuMTEzIDYwLjkyOTdDMjUzLjcyMiA2MC41NzAzIDI1NC40MjggNjAuMzkwNiAyNTUuMjMgNjAuMzkwNkMyNTYuMzcgNjAuMzkwNiAyNTcuMyA2MC43Mzk2IDI1OC4wMTkgNjEuNDM3NUMyNTguNzQzIDYyLjEzNTQgMjU5LjE0NiA2My4wODMzIDI1OS4yMyA2NC4yODEyTDI1OS4yNDUgNjQuODU5NEMyNTkuMjQ1IDY2LjE1NjIgMjU4Ljg4MyA2Ny4xOTc5IDI1OC4xNTkgNjcuOTg0NEMyNTcuNDM1IDY4Ljc2NTYgMjU2LjQ2NCA2OS4xNTYyIDI1NS4yNDUgNjkuMTU2MkMyNTQuMDI3IDY5LjE1NjIgMjUzLjA1MyA2OC43NjU2IDI1Mi4zMjMgNjcuOTg0NEMyNTEuNTk5IDY3LjIwMzEgMjUxLjIzOCA2Ni4xNDA2IDI1MS4yMzggNjQuNzk2OVY2NC42OTUzWk0yNTMuNDk1IDY0Ljg1OTRDMjUzLjQ5NSA2NS42NjE1IDI1My42NDYgNjYuMjc2IDI1My45NDggNjYuNzAzMUMyNTQuMjUxIDY3LjEyNSAyNTQuNjgzIDY3LjMzNTkgMjU1LjI0NSA2Ny4zMzU5QzI1NS43OTIgNjcuMzM1OSAyNTYuMjE5IDY3LjEyNzYgMjU2LjUyNyA2Ni43MTA5QzI1Ni44MzQgNjYuMjg5MSAyNTYuOTg4IDY1LjYxNzIgMjU2Ljk4OCA2NC42OTUzQzI1Ni45ODggNjMuOTA4OSAyNTYuODM0IDYzLjI5OTUgMjU2LjUyNyA2Mi44NjcyQzI1Ni4yMTkgNjIuNDM0OSAyNTUuNzg3IDYyLjIxODggMjU1LjIzIDYyLjIxODhDMjU0LjY3OCA2Mi4yMTg4IDI1NC4yNTEgNjIuNDM0OSAyNTMuOTQ4IDYyLjg2NzJDMjUzLjY0NiA2My4yOTQzIDI1My40OTUgNjMuOTU4MyAyNTMuNDk1IDY0Ljg1OTRaIi8+JiN4YTs8cGF0aCBmaWxsPSIjMzc0MEZGIiBkPSJNMjY1LjY4NiA2Mi42NjQxQzI2NS4zNzkgNjIuNjIyNCAyNjUuMTA4IDYyLjYwMTYgMjY0Ljg3MyA2Mi42MDE2QzI2NC4wMTkgNjIuNjAxNiAyNjMuNDU5IDYyLjg5MDYgMjYzLjE5NCA2My40Njg4VjY5SDI2MC45MzZWNjAuNTQ2OUgyNjMuMDY5TDI2My4xMzEgNjEuNTU0N0MyNjMuNTg0IDYwLjc3ODYgMjY0LjIxMiA2MC4zOTA2IDI2NS4wMTQgNjAuMzkwNkMyNjUuMjY0IDYwLjM5MDYgMjY1LjQ5OCA2MC40MjQ1IDI2NS43MTcgNjAuNDkyMkwyNjUuNjg2IDYyLjY2NDFaIi8+JiN4YTs8cGF0aCBmaWxsPSIjMzc0MEZGIiBkPSJNODguMDE1NiAyMTJWMjAwLjYyNUg5MS41MTU2QzkyLjUxNTYgMjAwLjYyNSA5My40MDg5IDIwMC44NTIgOTQuMTk1MyAyMDEuMzA1Qzk0Ljk4NyAyMDEuNzUzIDk1LjYwNDIgMjAyLjM5MyA5Ni4wNDY5IDIwMy4yMjdDOTYuNDg5NiAyMDQuMDU1IDk2LjcxMDkgMjA0Ljk5NyA5Ni43MTA5IDIwNi4wNTVWMjA2LjU3OEM5Ni43MTA5IDIwNy42MzUgOTYuNDkyMiAyMDguNTc2IDk2LjA1NDcgMjA5LjM5OEM5NS42MjI0IDIxMC4yMjEgOTUuMDEwNCAyMTAuODU5IDk0LjIxODggMjExLjMxMkM5My40MjcxIDIxMS43NjYgOTIuNTMzOSAyMTEuOTk1IDkxLjUzOTEgMjEySDg4LjAxNTZaTTkwLjM1OTQgMjAyLjUyM1YyMTAuMTE3SDkxLjQ5MjJDOTIuNDA4OSAyMTAuMTE3IDkzLjEwOTQgMjA5LjgxOCA5My41OTM4IDIwOS4yMTlDOTQuMDc4MSAyMDguNjIgOTQuMzI1NSAyMDcuNzYzIDk0LjMzNTkgMjA2LjY0OFYyMDYuMDQ3Qzk0LjMzNTkgMjA0Ljg5MSA5NC4wOTY0IDIwNC4wMTYgOTMuNjE3MiAyMDMuNDIyQzkzLjEzOCAyMDIuODIzIDkyLjQzNzUgMjAyLjUyMyA5MS41MTU2IDIwMi41MjNIOTAuMzU5NFoiLz4mI3hhOzxwYXRoIGZpbGw9IiMzNzQwRkYiIGQ9Ik0xMDIuNDY0IDIxMi4xNTZDMTAxLjIyNCAyMTIuMTU2IDEwMC4yMTQgMjExLjc3NiA5OS40MzI4IDIxMS4wMTZDOTguNjU2OCAyMTAuMjU1IDk4LjI2ODggMjA5LjI0MiA5OC4yNjg4IDIwNy45NzdWMjA3Ljc1OEM5OC4yNjg4IDIwNi45MDkgOTguNDMyOCAyMDYuMTUxIDk4Ljc2MDkgMjA1LjQ4NEM5OS4wODkxIDIwNC44MTIgOTkuNTUyNiAyMDQuMjk3IDEwMC4xNTIgMjAzLjkzOEMxMDAuNzU2IDIwMy41NzMgMTAxLjQ0MyAyMDMuMzkxIDEwMi4yMTQgMjAzLjM5MUMxMDMuMzcgMjAzLjM5MSAxMDQuMjc5IDIwMy43NTUgMTA0Ljk0MSAyMDQuNDg0QzEwNS42MDcgMjA1LjIxNCAxMDUuOTQxIDIwNi4yNDcgMTA1Ljk0MSAyMDcuNTg2VjIwOC41MDhIMTAwLjU1OEMxMDAuNjMxIDIwOS4wNiAxMDAuODQ5IDIwOS41MDMgMTAxLjIxNCAyMDkuODM2QzEwMS41ODQgMjEwLjE2OSAxMDIuMDUgMjEwLjMzNiAxMDIuNjEzIDIxMC4zMzZDMTAzLjQ4MiAyMTAuMzM2IDEwNC4xNjIgMjEwLjAyMSAxMDQuNjUyIDIwOS4zOTFMMTA1Ljc2MSAyMTAuNjMzQzEwNS40MjIgMjExLjExMiAxMDQuOTY0IDIxMS40ODcgMTA0LjM4NiAyMTEuNzU4QzEwMy44MDggMjEyLjAyMyAxMDMuMTY3IDIxMi4xNTYgMTAyLjQ2NCAyMTIuMTU2Wk0xMDIuMjA2IDIwNS4yMTlDMTAxLjc1OCAyMDUuMjE5IDEwMS4zOTQgMjA1LjM3IDEwMS4xMTMgMjA1LjY3MkMxMDAuODM2IDIwNS45NzQgMTAwLjY1OSAyMDYuNDA2IDEwMC41ODEgMjA2Ljk2OUgxMDMuNzIyVjIwNi43ODlDMTAzLjcxMSAyMDYuMjg5IDEwMy41NzYgMjA1LjkwNCAxMDMuMzE2IDIwNS42MzNDMTAzLjA1NSAyMDUuMzU3IDEwMi42ODUgMjA1LjIxOSAxMDIuMjA2IDIwNS4yMTlaIi8+JiN4YTs8cGF0aCBmaWxsPSIjMzc0MEZGIiBkPSJNMTExLjA0NSAyMTAuMzM2QzExMS40NjIgMjEwLjMzNiAxMTEuODAxIDIxMC4yMjEgMTEyLjA2MSAyMDkuOTkyQzExMi4zMjEgMjA5Ljc2MyAxMTIuNDU3IDIwOS40NTggMTEyLjQ2NyAyMDkuMDc4SDExNC41ODRDMTE0LjU3OSAyMDkuNjUxIDExNC40MjMgMjEwLjE3NyAxMTQuMTE2IDIxMC42NTZDMTEzLjgwOCAyMTEuMTMgMTEzLjM4NiAyMTEuNSAxMTIuODUgMjExLjc2NkMxMTIuMzE5IDIxMi4wMjYgMTExLjczIDIxMi4xNTYgMTExLjA4NCAyMTIuMTU2QzEwOS44NzYgMjEyLjE1NiAxMDguOTIzIDIxMS43NzMgMTA4LjIyNSAyMTEuMDA4QzEwNy41MjcgMjEwLjIzNyAxMDcuMTc4IDIwOS4xNzQgMTA3LjE3OCAyMDcuODJWMjA3LjY3MkMxMDcuMTc4IDIwNi4zNyAxMDcuNTI0IDIwNS4zMzEgMTA4LjIxNyAyMDQuNTU1QzEwOC45MSAyMDMuNzc5IDEwOS44NiAyMDMuMzkxIDExMS4wNjkgMjAzLjM5MUMxMTIuMTI2IDIwMy4zOTEgMTEyLjk3MiAyMDMuNjkzIDExMy42MDggMjA0LjI5N0MxMTQuMjQ4IDIwNC44OTYgMTE0LjU3NCAyMDUuNjk1IDExNC41ODQgMjA2LjY5NUgxMTIuNDY3QzExMi40NTcgMjA2LjI1OCAxMTIuMzIxIDIwNS45MDQgMTEyLjA2MSAyMDUuNjMzQzExMS44MDEgMjA1LjM1NyAxMTEuNDU3IDIwNS4yMTkgMTExLjAzIDIwNS4yMTlDMTEwLjUwNCAyMDUuMjE5IDExMC4xMDUgMjA1LjQxMSAxMDkuODM0IDIwNS43OTdDMTA5LjU2OSAyMDYuMTc3IDEwOS40MzYgMjA2Ljc5NyAxMDkuNDM2IDIwNy42NTZWMjA3Ljg5MUMxMDkuNDM2IDIwOC43NiAxMDkuNTY5IDIwOS4zODUgMTA5LjgzNCAyMDkuNzY2QzExMC4xIDIxMC4xNDYgMTEwLjUwNCAyMTAuMzM2IDExMS4wNDUgMjEwLjMzNloiLz4mI3hhOzxwYXRoIGZpbGw9IiMzNzQwRkYiIGQ9Ik0xMTguNTU2IDIxMkgxMTYuMjkxVjIwMEgxMTguNTU2VjIxMloiLz4mI3hhOzxwYXRoIGZpbGw9IiMzNzQwRkYiIGQ9Ik0xMjUuNjIyIDIxMkMxMjUuNTE4IDIxMS43OTcgMTI1LjQ0MiAyMTEuNTQ0IDEyNS4zOTUgMjExLjI0MkMxMjQuODQ4IDIxMS44NTIgMTI0LjEzOCAyMTIuMTU2IDEyMy4yNjMgMjEyLjE1NkMxMjIuNDM0IDIxMi4xNTYgMTIxLjc0NyAyMTEuOTE3IDEyMS4yIDIxMS40MzhDMTIwLjY1OCAyMTAuOTU4IDEyMC4zODggMjEwLjM1NCAxMjAuMzg4IDIwOS42MjVDMTIwLjM4OCAyMDguNzI5IDEyMC43MTggMjA4LjA0MiAxMjEuMzggMjA3LjU2MkMxMjIuMDQ2IDIwNy4wODMgMTIzLjAwNyAyMDYuODQxIDEyNC4yNjMgMjA2LjgzNkgxMjUuMzAyVjIwNi4zNTJDMTI1LjMwMiAyMDUuOTYxIDEyNS4yIDIwNS42NDggMTI0Ljk5NyAyMDUuNDE0QzEyNC43OTkgMjA1LjE4IDEyNC40ODQgMjA1LjA2MiAxMjQuMDUyIDIwNS4wNjJDMTIzLjY3MSAyMDUuMDYyIDEyMy4zNzIgMjA1LjE1NCAxMjMuMTUzIDIwNS4zMzZDMTIyLjk0IDIwNS41MTggMTIyLjgzMyAyMDUuNzY4IDEyMi44MzMgMjA2LjA4NkgxMjAuNTc1QzEyMC41NzUgMjA1LjU5NiAxMjAuNzI2IDIwNS4xNDMgMTIxLjAyOCAyMDQuNzI3QzEyMS4zMyAyMDQuMzEgMTIxLjc1NyAyMDMuOTg0IDEyMi4zMDkgMjAzLjc1QzEyMi44NjEgMjAzLjUxIDEyMy40ODEgMjAzLjM5MSAxMjQuMTY5IDIwMy4zOTFDMTI1LjIxIDIwMy4zOTEgMTI2LjAzNiAyMDMuNjU0IDEyNi42NDUgMjA0LjE4QzEyNy4yNiAyMDQuNzAxIDEyNy41NjcgMjA1LjQzNSAxMjcuNTY3IDIwNi4zODNWMjEwLjA0N0MxMjcuNTcyIDIxMC44NDkgMTI3LjY4NCAyMTEuNDU2IDEyNy45MDMgMjExLjg2N1YyMTJIMTI1LjYyMlpNMTIzLjc1NSAyMTAuNDNDMTI0LjA4OCAyMTAuNDMgMTI0LjM5NSAyMTAuMzU3IDEyNC42NzcgMjEwLjIxMUMxMjQuOTU4IDIxMC4wNiAxMjUuMTY2IDIwOS44NTkgMTI1LjMwMiAyMDkuNjA5VjIwOC4xNTZIMTI0LjQ1OEMxMjMuMzI4IDIwOC4xNTYgMTIyLjcyNiAyMDguNTQ3IDEyMi42NTMgMjA5LjMyOEwxMjIuNjQ1IDIwOS40NjFDMTIyLjY0NSAyMDkuNzQyIDEyMi43NDQgMjA5Ljk3NCAxMjIuOTQyIDIxMC4xNTZDMTIzLjE0IDIxMC4zMzkgMTIzLjQxMSAyMTAuNDMgMTIzLjc1NSAyMTAuNDNaIi8+JiN4YTs8cGF0aCBmaWxsPSIjMzc0MEZGIiBkPSJNMTM0LjM1MiAyMDUuNjY0QzEzNC4wNDQgMjA1LjYyMiAxMzMuNzczIDIwNS42MDIgMTMzLjUzOSAyMDUuNjAyQzEzMi42ODUgMjA1LjYwMiAxMzIuMTI1IDIwNS44OTEgMTMxLjg1OSAyMDYuNDY5VjIxMkgxMjkuNjAyVjIwMy41NDdIMTMxLjczNEwxMzEuNzk3IDIwNC41NTVDMTMyLjI1IDIwMy43NzkgMTMyLjg3OCAyMDMuMzkxIDEzMy42OCAyMDMuMzkxQzEzMy45MyAyMDMuMzkxIDEzNC4xNjQgMjAzLjQyNCAxMzQuMzgzIDIwMy40OTJMMTM0LjM1MiAyMDUuNjY0WiIvPiYjeGE7PHBhdGggZmlsbD0iIzM3NDBGRiIgZD0iTTE0MC40MDkgMjEyQzE0MC4zMDUgMjExLjc5NyAxNDAuMjMgMjExLjU0NCAxNDAuMTgzIDIxMS4yNDJDMTM5LjYzNiAyMTEuODUyIDEzOC45MjUgMjEyLjE1NiAxMzguMDUgMjEyLjE1NkMxMzcuMjIyIDIxMi4xNTYgMTM2LjUzNCAyMTEuOTE3IDEzNS45ODcgMjExLjQzOEMxMzUuNDQ2IDIxMC45NTggMTM1LjE3NSAyMTAuMzU0IDEzNS4xNzUgMjA5LjYyNUMxMzUuMTc1IDIwOC43MjkgMTM1LjUwNiAyMDguMDQyIDEzNi4xNjcgMjA3LjU2MkMxMzYuODM0IDIwNy4wODMgMTM3Ljc5NSAyMDYuODQxIDEzOS4wNSAyMDYuODM2SDE0MC4wODlWMjA2LjM1MkMxNDAuMDg5IDIwNS45NjEgMTM5Ljk4NyAyMDUuNjQ4IDEzOS43ODQgMjA1LjQxNEMxMzkuNTg2IDIwNS4xOCAxMzkuMjcxIDIwNS4wNjIgMTM4LjgzOSAyMDUuMDYyQzEzOC40NTkgMjA1LjA2MiAxMzguMTU5IDIwNS4xNTQgMTM3Ljk0MSAyMDUuMzM2QzEzNy43MjcgMjA1LjUxOCAxMzcuNjIgMjA1Ljc2OCAxMzcuNjIgMjA2LjA4NkgxMzUuMzYyQzEzNS4zNjIgMjA1LjU5NiAxMzUuNTE0IDIwNS4xNDMgMTM1LjgxNiAyMDQuNzI3QzEzNi4xMTggMjA0LjMxIDEzNi41NDUgMjAzLjk4NCAxMzcuMDk3IDIwMy43NUMxMzcuNjQ5IDIwMy41MSAxMzguMjY5IDIwMy4zOTEgMTM4Ljk1NiAyMDMuMzkxQzEzOS45OTggMjAzLjM5MSAxNDAuODIzIDIwMy42NTQgMTQxLjQzMyAyMDQuMThDMTQyLjA0NyAyMDQuNzAxIDE0Mi4zNTUgMjA1LjQzNSAxNDIuMzU1IDIwNi4zODNWMjEwLjA0N0MxNDIuMzYgMjEwLjg0OSAxNDIuNDcyIDIxMS40NTYgMTQyLjY5MSAyMTEuODY3VjIxMkgxNDAuNDA5Wk0xMzguNTQyIDIxMC40M0MxMzguODc2IDIxMC40MyAxMzkuMTgzIDIxMC4zNTcgMTM5LjQ2NCAyMTAuMjExQzEzOS43NDUgMjEwLjA2IDEzOS45NTQgMjA5Ljg1OSAxNDAuMDg5IDIwOS42MDlWMjA4LjE1NkgxMzkuMjQ1QzEzOC4xMTUgMjA4LjE1NiAxMzcuNTE0IDIwOC41NDcgMTM3LjQ0MSAyMDkuMzI4TDEzNy40MzMgMjA5LjQ2MUMxMzcuNDMzIDIwOS43NDIgMTM3LjUzMiAyMDkuOTc0IDEzNy43MyAyMTAuMTU2QzEzNy45MjggMjEwLjMzOSAxMzguMTk4IDIxMC40MyAxMzguNTQyIDIxMC40M1oiLz4mI3hhOzxwYXRoIGZpbGw9IiMzNzQwRkYiIGQ9Ik0xNDcuMDkyIDIwMS40NjlWMjAzLjU0N0gxNDguNTM3VjIwNS4yMDNIMTQ3LjA5MlYyMDkuNDIyQzE0Ny4wOTIgMjA5LjczNCAxNDcuMTUyIDIwOS45NTggMTQ3LjI3MiAyMTAuMDk0QzE0Ny4zOTIgMjEwLjIyOSAxNDcuNjIxIDIxMC4yOTcgMTQ3Ljk1OSAyMTAuMjk3QzE0OC4yMDkgMjEwLjI5NyAxNDguNDMxIDIxMC4yNzkgMTQ4LjYyMyAyMTAuMjQyVjIxMS45NTNDMTQ4LjE4MSAyMTIuMDg5IDE0Ny43MjUgMjEyLjE1NiAxNDcuMjU2IDIxMi4xNTZDMTQ1LjY3MyAyMTIuMTU2IDE0NC44NjYgMjExLjM1NyAxNDQuODM0IDIwOS43NThWMjA1LjIwM0gxNDMuNlYyMDMuNTQ3SDE0NC44MzRWMjAxLjQ2OUgxNDcuMDkyWiIvPiYjeGE7PHBhdGggZmlsbD0iIzM3NDBGRiIgZD0iTTE1Mi40NzggMjEySDE1MC4yMTNWMjAzLjU0N0gxNTIuNDc4VjIxMlpNMTUwLjA4IDIwMS4zNTlDMTUwLjA4IDIwMS4wMjEgMTUwLjE5MiAyMDAuNzQyIDE1MC40MTYgMjAwLjUyM0MxNTAuNjQ1IDIwMC4zMDUgMTUwLjk1NSAyMDAuMTk1IDE1MS4zNDUgMjAwLjE5NUMxNTEuNzMxIDIwMC4xOTUgMTUyLjAzOCAyMDAuMzA1IDE1Mi4yNjcgMjAwLjUyM0MxNTIuNDk2IDIwMC43NDIgMTUyLjYxMSAyMDEuMDIxIDE1Mi42MTEgMjAxLjM1OUMxNTIuNjExIDIwMS43MDMgMTUyLjQ5NCAyMDEuOTg0IDE1Mi4yNTkgMjAyLjIwM0MxNTIuMDMgMjAyLjQyMiAxNTEuNzI2IDIwMi41MzEgMTUxLjM0NSAyMDIuNTMxQzE1MC45NjUgMjAyLjUzMSAxNTAuNjU4IDIwMi40MjIgMTUwLjQyMyAyMDIuMjAzQzE1MC4xOTQgMjAxLjk4NCAxNTAuMDggMjAxLjcwMyAxNTAuMDggMjAxLjM1OVoiLz4mI3hhOzxwYXRoIGZpbGw9IiMzNzQwRkYiIGQ9Ik0xNTQuMjk0IDIwNy42OTVDMTU0LjI5NCAyMDYuODU3IDE1NC40NTUgMjA2LjEwOSAxNTQuNzc4IDIwNS40NTNDMTU1LjEwMSAyMDQuNzk3IDE1NS41NjUgMjA0LjI4OSAxNTYuMTY5IDIwMy45M0MxNTYuNzc4IDIwMy41NyAxNTcuNDg0IDIwMy4zOTEgMTU4LjI4NiAyMDMuMzkxQzE1OS40MjcgMjAzLjM5MSAxNjAuMzU2IDIwMy43NCAxNjEuMDc1IDIwNC40MzhDMTYxLjc5OSAyMDUuMTM1IDE2Mi4yMDMgMjA2LjA4MyAxNjIuMjg2IDIwNy4yODFMMTYyLjMwMiAyMDcuODU5QzE2Mi4zMDIgMjA5LjE1NiAxNjEuOTQgMjEwLjE5OCAxNjEuMjE2IDIxMC45ODRDMTYwLjQ5MiAyMTEuNzY2IDE1OS41MiAyMTIuMTU2IDE1OC4zMDIgMjEyLjE1NkMxNTcuMDgzIDIxMi4xNTYgMTU2LjEwOSAyMTEuNzY2IDE1NS4zOCAyMTAuOTg0QzE1NC42NTYgMjEwLjIwMyAxNTQuMjk0IDIwOS4xNDEgMTU0LjI5NCAyMDcuNzk3VjIwNy42OTVaTTE1Ni41NTIgMjA3Ljg1OUMxNTYuNTUyIDIwOC42NjEgMTU2LjcwMyAyMDkuMjc2IDE1Ny4wMDUgMjA5LjcwM0MxNTcuMzA3IDIxMC4xMjUgMTU3LjczOSAyMTAuMzM2IDE1OC4zMDIgMjEwLjMzNkMxNTguODQ4IDIxMC4zMzYgMTU5LjI3NiAyMTAuMTI4IDE1OS41ODMgMjA5LjcxMUMxNTkuODkgMjA5LjI4OSAxNjAuMDQ0IDIwOC42MTcgMTYwLjA0NCAyMDcuNjk1QzE2MC4wNDQgMjA2LjkwOSAxNTkuODkgMjA2LjI5OSAxNTkuNTgzIDIwNS44NjdDMTU5LjI3NiAyMDUuNDM1IDE1OC44NDMgMjA1LjIxOSAxNTguMjg2IDIwNS4yMTlDMTU3LjczNCAyMDUuMjE5IDE1Ny4zMDcgMjA1LjQzNSAxNTcuMDA1IDIwNS44NjdDMTU2LjcwMyAyMDYuMjk0IDE1Ni41NTIgMjA2Ljk1OCAxNTYuNTUyIDIwNy44NTlaIi8+JiN4YTs8cGF0aCBmaWxsPSIjMzc0MEZGIiBkPSJNMTY2LjA3IDIwMy41NDdMMTY2LjE0MSAyMDQuNTIzQzE2Ni43NDUgMjAzLjc2OCAxNjcuNTU1IDIwMy4zOTEgMTY4LjU3IDIwMy4zOTFDMTY5LjQ2NiAyMDMuMzkxIDE3MC4xMzMgMjAzLjY1NCAxNzAuNTcgMjA0LjE4QzE3MS4wMDggMjA0LjcwNiAxNzEuMjMyIDIwNS40OTIgMTcxLjI0MiAyMDYuNTM5VjIxMkgxNjguOTg0VjIwNi41OTRDMTY4Ljk4NCAyMDYuMTE1IDE2OC44OCAyMDUuNzY4IDE2OC42NzIgMjA1LjU1NUMxNjguNDY0IDIwNS4zMzYgMTY4LjExNyAyMDUuMjI3IDE2Ny42MzMgMjA1LjIyN0MxNjYuOTk3IDIwNS4yMjcgMTY2LjUyMSAyMDUuNDk3IDE2Ni4yMDMgMjA2LjAzOVYyMTJIMTYzLjk0NVYyMDMuNTQ3SDE2Ni4wN1oiLz4mI3hhOzxwYXRoIGZpbGw9IiMzNzQwRkYiIGQ9Ik0yMzQuMzU5IDM0My45OTJWMzQ4SDIzMi4wMTZWMzM2LjYyNUgyMzYuNDUzQzIzNy4zMDcgMzM2LjYyNSAyMzguMDU3IDMzNi43ODEgMjM4LjcwMyAzMzcuMDk0QzIzOS4zNTQgMzM3LjQwNiAyMzkuODU0IDMzNy44NTIgMjQwLjIwMyAzMzguNDNDMjQwLjU1MiAzMzkuMDAzIDI0MC43MjcgMzM5LjY1NiAyNDAuNzI3IDM0MC4zOTFDMjQwLjcyNyAzNDEuNTA1IDI0MC4zNDQgMzQyLjM4NSAyMzkuNTc4IDM0My4wMzFDMjM4LjgxOCAzNDMuNjcyIDIzNy43NjMgMzQzLjk5MiAyMzYuNDE0IDM0My45OTJIMjM0LjM1OVpNMjM0LjM1OSAzNDIuMDk0SDIzNi40NTNDMjM3LjA3MyAzNDIuMDk0IDIzNy41NDQgMzQxLjk0OCAyMzcuODY3IDM0MS42NTZDMjM4LjE5NSAzNDEuMzY1IDIzOC4zNTkgMzQwLjk0OCAyMzguMzU5IDM0MC40MDZDMjM4LjM1OSAzMzkuODQ5IDIzOC4xOTUgMzM5LjM5OCAyMzcuODY3IDMzOS4wNTVDMjM3LjUzOSAzMzguNzExIDIzNy4wODYgMzM4LjUzNCAyMzYuNTA4IDMzOC41MjNIMjM0LjM1OVYzNDIuMDk0WiIvPiYjeGE7PHBhdGggZmlsbD0iIzM3NDBGRiIgZD0iTTI0Ny4yNDUgMzQxLjY2NEMyNDYuOTM4IDM0MS42MjIgMjQ2LjY2NyAzNDEuNjAyIDI0Ni40MzMgMzQxLjYwMkMyNDUuNTc5IDM0MS42MDIgMjQ1LjAxOSAzNDEuODkxIDI0NC43NTMgMzQyLjQ2OVYzNDhIMjQyLjQ5NVYzMzkuNTQ3SDI0NC42MjhMMjQ0LjY5MSAzNDAuNTU1QzI0NS4xNDQgMzM5Ljc3OSAyNDUuNzcxIDMzOS4zOTEgMjQ2LjU3MyAzMzkuMzkxQzI0Ni44MjMgMzM5LjM5MSAyNDcuMDU4IDMzOS40MjQgMjQ3LjI3NyAzMzkuNDkyTDI0Ny4yNDUgMzQxLjY2NFoiLz4mI3hhOzxwYXRoIGZpbGw9IiMzNzQwRkYiIGQ9Ik0yNDguMDA2IDM0My42OTVDMjQ4LjAwNiAzNDIuODU3IDI0OC4xNjggMzQyLjEwOSAyNDguNDkxIDM0MS40NTNDMjQ4LjgxNCAzNDAuNzk3IDI0OS4yNzcgMzQwLjI4OSAyNDkuODgxIDMzOS45M0MyNTAuNDkxIDMzOS41NyAyNTEuMTk2IDMzOS4zOTEgMjUxLjk5OCAzMzkuMzkxQzI1My4xMzkgMzM5LjM5MSAyNTQuMDY5IDMzOS43NCAyNTQuNzg4IDM0MC40MzhDMjU1LjUxMSAzNDEuMTM1IDI1NS45MTUgMzQyLjA4MyAyNTUuOTk4IDM0My4yODFMMjU2LjAxNCAzNDMuODU5QzI1Ni4wMTQgMzQ1LjE1NiAyNTUuNjUyIDM0Ni4xOTggMjU0LjkyOCAzNDYuOTg0QzI1NC4yMDQgMzQ3Ljc2NiAyNTMuMjMzIDM0OC4xNTYgMjUyLjAxNCAzNDguMTU2QzI1MC43OTUgMzQ4LjE1NiAyNDkuODIxIDM0Ny43NjYgMjQ5LjA5MiAzNDYuOTg0QzI0OC4zNjggMzQ2LjIwMyAyNDguMDA2IDM0NS4xNDEgMjQ4LjAwNiAzNDMuNzk3VjM0My42OTVaTTI1MC4yNjQgMzQzLjg1OUMyNTAuMjY0IDM0NC42NjEgMjUwLjQxNSAzNDUuMjc2IDI1MC43MTcgMzQ1LjcwM0MyNTEuMDE5IDM0Ni4xMjUgMjUxLjQ1MiAzNDYuMzM2IDI1Mi4wMTQgMzQ2LjMzNkMyNTIuNTYxIDM0Ni4zMzYgMjUyLjk4OCAzNDYuMTI4IDI1My4yOTUgMzQ1LjcxMUMyNTMuNjAzIDM0NS4yODkgMjUzLjc1NiAzNDQuNjE3IDI1My43NTYgMzQzLjY5NUMyNTMuNzU2IDM0Mi45MDkgMjUzLjYwMyAzNDIuMjk5IDI1My4yOTUgMzQxLjg2N0MyNTIuOTg4IDM0MS40MzUgMjUyLjU1NiAzNDEuMjE5IDI1MS45OTggMzQxLjIxOUMyNTEuNDQ2IDM0MS4yMTkgMjUxLjAxOSAzNDEuNDM1IDI1MC43MTcgMzQxLjg2N0MyNTAuNDE1IDM0Mi4yOTQgMjUwLjI2NCAzNDIuOTU4IDI1MC4yNjQgMzQzLjg1OVoiLz4mI3hhOzxwYXRoIGZpbGw9IiMzNzQwRkYiIGQ9Ik0yNjUuMzE0IDM0My44NTJDMjY1LjMxNCAzNDUuMTU0IDI2NS4wMTcgMzQ2LjE5OCAyNjQuNDIzIDM0Ni45ODRDMjYzLjgzNSAzNDcuNzY2IDI2My4wMzggMzQ4LjE1NiAyNjIuMDMzIDM0OC4xNTZDMjYxLjE3OSAzNDguMTU2IDI2MC40ODkgMzQ3Ljg1OSAyNTkuOTYyIDM0Ny4yNjZWMzUxLjI1SDI1Ny43MDVWMzM5LjU0N0gyNTkuNzk4TDI1OS44NzcgMzQwLjM3NUMyNjAuNDIzIDMzOS43MTkgMjYxLjEzNyAzMzkuMzkxIDI2Mi4wMTcgMzM5LjM5MUMyNjMuMDU5IDMzOS4zOTEgMjYzLjg2OSAzMzkuNzc2IDI2NC40NDcgMzQwLjU0N0MyNjUuMDI1IDM0MS4zMTggMjY1LjMxNCAzNDIuMzggMjY1LjMxNCAzNDMuNzM0VjM0My44NTJaTTI2My4wNTYgMzQzLjY4OEMyNjMuMDU2IDM0Mi45MDEgMjYyLjkxNiAzNDIuMjk0IDI2Mi42MzQgMzQxLjg2N0MyNjIuMzU4IDM0MS40NCAyNjEuOTU1IDM0MS4yMjcgMjYxLjQyMyAzNDEuMjI3QzI2MC43MTUgMzQxLjIyNyAyNjAuMjI4IDM0MS40OTcgMjU5Ljk2MiAzNDIuMDM5VjM0NS41QzI2MC4yMzkgMzQ2LjA1NyAyNjAuNzMxIDM0Ni4zMzYgMjYxLjQzOSAzNDYuMzM2QzI2Mi41MTcgMzQ2LjMzNiAyNjMuMDU2IDM0NS40NTMgMjYzLjA1NiAzNDMuNjg4WiIvPiYjeGE7PHBhdGggZmlsbD0iIzM3NDBGRiIgZD0iTTI3MC45MTEgMzQ4LjE1NkMyNjkuNjcxIDM0OC4xNTYgMjY4LjY2MSAzNDcuNzc2IDI2Ny44OCAzNDcuMDE2QzI2Ny4xMDQgMzQ2LjI1NSAyNjYuNzE2IDM0NS4yNDIgMjY2LjcxNiAzNDMuOTc3VjM0My43NThDMjY2LjcxNiAzNDIuOTA5IDI2Ni44OCAzNDIuMTUxIDI2Ny4yMDggMzQxLjQ4NEMyNjcuNTM2IDM0MC44MTIgMjY3Ljk5OSAzNDAuMjk3IDI2OC41OTggMzM5LjkzOEMyNjkuMjAzIDMzOS41NzMgMjY5Ljg5IDMzOS4zOTEgMjcwLjY2MSAzMzkuMzkxQzI3MS44MTcgMzM5LjM5MSAyNzIuNzI2IDMzOS43NTUgMjczLjM4NyAzNDAuNDg0QzI3NC4wNTQgMzQxLjIxNCAyNzQuMzg3IDM0Mi4yNDcgMjc0LjM4NyAzNDMuNTg2VjM0NC41MDhIMjY5LjAwNUMyNjkuMDc4IDM0NS4wNiAyNjkuMjk2IDM0NS41MDMgMjY5LjY2MSAzNDUuODM2QzI3MC4wMzEgMzQ2LjE2OSAyNzAuNDk3IDM0Ni4zMzYgMjcxLjA1OSAzNDYuMzM2QzI3MS45MjkgMzQ2LjMzNiAyNzIuNjA5IDM0Ni4wMjEgMjczLjA5OCAzNDUuMzkxTDI3NC4yMDggMzQ2LjYzM0MyNzMuODY5IDM0Ny4xMTIgMjczLjQxMSAzNDcuNDg3IDI3Mi44MzMgMzQ3Ljc1OEMyNzIuMjU1IDM0OC4wMjMgMjcxLjYxNCAzNDguMTU2IDI3MC45MTEgMzQ4LjE1NlpNMjcwLjY1MyAzNDEuMjE5QzI3MC4yMDUgMzQxLjIxOSAyNjkuODQxIDM0MS4zNyAyNjkuNTU5IDM0MS42NzJDMjY5LjI4MyAzNDEuOTc0IDI2OS4xMDYgMzQyLjQwNiAyNjkuMDI4IDM0Mi45NjlIMjcyLjE2OVYzNDIuNzg5QzI3Mi4xNTggMzQyLjI4OSAyNzIuMDIzIDM0MS45MDQgMjcxLjc2MiAzNDEuNjMzQzI3MS41MDIgMzQxLjM1NyAyNzEuMTMyIDM0MS4yMTkgMjcwLjY1MyAzNDEuMjE5WiIvPiYjeGE7PHBhdGggZmlsbD0iIzM3NDBGRiIgZD0iTTI4MC43MjcgMzQxLjY2NEMyODAuNDE5IDM0MS42MjIgMjgwLjE0OCAzNDEuNjAyIDI3OS45MTQgMzQxLjYwMkMyNzkuMDYgMzQxLjYwMiAyNzguNSAzNDEuODkxIDI3OC4yMzQgMzQyLjQ2OVYzNDhIMjc1Ljk3N1YzMzkuNTQ3SDI3OC4xMDlMMjc4LjE3MiAzNDAuNTU1QzI3OC42MjUgMzM5Ljc3OSAyNzkuMjUzIDMzOS4zOTEgMjgwLjA1NSAzMzkuMzkxQzI4MC4zMDUgMzM5LjM5MSAyODAuNTM5IDMzOS40MjQgMjgwLjc1OCAzMzkuNDkyTDI4MC43MjcgMzQxLjY2NFoiLz4mI3hhOzxwYXRoIGZpbGw9IiMzNzQwRkYiIGQ9Ik0yODUuMjE0IDMzNy40NjlWMzM5LjU0N0gyODYuNjU5VjM0MS4yMDNIMjg1LjIxNFYzNDUuNDIyQzI4NS4yMTQgMzQ1LjczNCAyODUuMjc0IDM0NS45NTggMjg1LjM5NCAzNDYuMDk0QzI4NS41MTQgMzQ2LjIyOSAyODUuNzQzIDM0Ni4yOTcgMjg2LjA4MSAzNDYuMjk3QzI4Ni4zMzEgMzQ2LjI5NyAyODYuNTUzIDM0Ni4yNzkgMjg2Ljc0NSAzNDYuMjQyVjM0Ny45NTNDMjg2LjMwMyAzNDguMDg5IDI4NS44NDcgMzQ4LjE1NiAyODUuMzc4IDM0OC4xNTZDMjgzLjc5NSAzNDguMTU2IDI4Mi45ODggMzQ3LjM1NyAyODIuOTU2IDM0NS43NThWMzQxLjIwM0gyODEuNzIyVjMzOS41NDdIMjgyLjk1NlYzMzcuNDY5SDI4NS4yMTRaIi8+JiN4YTs8cGF0aCBmaWxsPSIjMzc0MEZGIiBkPSJNMjkxLjM3MyAzNDQuODA1TDI5Mi45MzYgMzM5LjU0N0gyOTUuMzU4TDI5MS45NTkgMzQ5LjMxMkwyOTEuNzcyIDM0OS43NThDMjkxLjI2NyAzNTAuODYyIDI5MC40MzMgMzUxLjQxNCAyODkuMjcyIDM1MS40MTRDMjg4Ljk0NCAzNTEuNDE0IDI4OC42MSAzNTEuMzY1IDI4OC4yNzIgMzUxLjI2NlYzNDkuNTU1TDI4OC42MTYgMzQ5LjU2MkMyODkuMDQzIDM0OS41NjIgMjg5LjM2IDM0OS40OTcgMjg5LjU2OSAzNDkuMzY3QzI4OS43ODIgMzQ5LjIzNyAyODkuOTQ5IDM0OS4wMjEgMjkwLjA2OSAzNDguNzE5TDI5MC4zMzQgMzQ4LjAyM0wyODcuMzczIDMzOS41NDdIMjg5LjgwM0wyOTEuMzczIDM0NC44MDVaIi8+JiN4YTs8cGF0aCBmaWxsPSIjMzc0MEZGIiBkPSJNNDYzLjIxOSAzNDUuMThMNDY1Ljc5NyAzMzYuNjI1SDQ2OC40MDZMNDY0LjQ0NSAzNDhINDYyTDQ1OC4wNTUgMzM2LjYyNUg0NjAuNjU2TDQ2My4yMTkgMzQ1LjE4WiIvPiYjeGE7PHBhdGggZmlsbD0iIzM3NDBGRiIgZD0iTTQ3NC4xNzUgMzQ4QzQ3NC4wNzEgMzQ3Ljc5NyA0NzMuOTk1IDM0Ny41NDQgNDczLjk0OCAzNDcuMjQyQzQ3My40MDIgMzQ3Ljg1MiA0NzIuNjkxIDM0OC4xNTYgNDcxLjgxNiAzNDguMTU2QzQ3MC45ODcgMzQ4LjE1NiA0NzAuMyAzNDcuOTE3IDQ2OS43NTMgMzQ3LjQzOEM0NjkuMjExIDM0Ni45NTggNDY4Ljk0MSAzNDYuMzU0IDQ2OC45NDEgMzQ1LjYyNUM0NjguOTQxIDM0NC43MjkgNDY5LjI3MSAzNDQuMDQyIDQ2OS45MzMgMzQzLjU2MkM0NzAuNTk5IDM0My4wODMgNDcxLjU2IDM0Mi44NDEgNDcyLjgxNiAzNDIuODM2SDQ3My44NTVWMzQyLjM1MkM0NzMuODU1IDM0MS45NjEgNDczLjc1MyAzNDEuNjQ4IDQ3My41NSAzNDEuNDE0QzQ3My4zNTIgMzQxLjE4IDQ3My4wMzcgMzQxLjA2MiA0NzIuNjA1IDM0MS4wNjJDNDcyLjIyNCAzNDEuMDYyIDQ3MS45MjUgMzQxLjE1NCA0NzEuNzA2IDM0MS4zMzZDNDcxLjQ5MyAzNDEuNTE4IDQ3MS4zODYgMzQxLjc2OCA0NzEuMzg2IDM0Mi4wODZINDY5LjEyOEM0NjkuMTI4IDM0MS41OTYgNDY5LjI3OSAzNDEuMTQzIDQ2OS41ODEgMzQwLjcyN0M0NjkuODgzIDM0MC4zMSA0NzAuMzEgMzM5Ljk4NCA0NzAuODYyIDMzOS43NUM0NzEuNDE1IDMzOS41MSA0NzIuMDM0IDMzOS4zOTEgNDcyLjcyMiAzMzkuMzkxQzQ3My43NjQgMzM5LjM5MSA0NzQuNTg5IDMzOS42NTQgNDc1LjE5OCAzNDAuMThDNDc1LjgxMyAzNDAuNzAxIDQ3Ni4xMiAzNDEuNDM1IDQ3Ni4xMiAzNDIuMzgzVjM0Ni4wNDdDNDc2LjEyNiAzNDYuODQ5IDQ3Ni4yMzcgMzQ3LjQ1NiA0NzYuNDU2IDM0Ny44NjdWMzQ4SDQ3NC4xNzVaTTQ3Mi4zMDggMzQ2LjQzQzQ3Mi42NDEgMzQ2LjQzIDQ3Mi45NDggMzQ2LjM1NyA0NzMuMjMgMzQ2LjIxMUM0NzMuNTExIDM0Ni4wNiA0NzMuNzE5IDM0NS44NTkgNDczLjg1NSAzNDUuNjA5VjM0NC4xNTZINDczLjAxMUM0NzEuODgxIDM0NC4xNTYgNDcxLjI3OSAzNDQuNTQ3IDQ3MS4yMDYgMzQ1LjMyOEw0NzEuMTk4IDM0NS40NjFDNDcxLjE5OCAzNDUuNzQyIDQ3MS4yOTcgMzQ1Ljk3NCA0NzEuNDk1IDM0Ni4xNTZDNDcxLjY5MyAzNDYuMzM5IDQ3MS45NjQgMzQ2LjQzIDQ3Mi4zMDggMzQ2LjQzWiIvPiYjeGE7PHBhdGggZmlsbD0iIzM3NDBGRiIgZD0iTTQ4MC41MzggMzQ4SDQ3OC4yNzJWMzM2SDQ4MC41MzhWMzQ4WiIvPiYjeGE7PHBhdGggZmlsbD0iIzM3NDBGRiIgZD0iTTQ4Ny43NjcgMzQ3LjE0MUM0ODcuMjEgMzQ3LjgxOCA0ODYuNDM5IDM0OC4xNTYgNDg1LjQ1NSAzNDguMTU2QzQ4NC41NDggMzQ4LjE1NiA0ODMuODU2IDM0Ny44OTYgNDgzLjM3NyAzNDcuMzc1QzQ4Mi45MDMgMzQ2Ljg1NCA0ODIuNjYgMzQ2LjA5MSA0ODIuNjUgMzQ1LjA4NlYzMzkuNTQ3SDQ4NC45MDhWMzQ1LjAwOEM0ODQuOTA4IDM0NS44ODggNDg1LjMwOSAzNDYuMzI4IDQ4Ni4xMTEgMzQ2LjMyOEM0ODYuODc3IDM0Ni4zMjggNDg3LjQwMyAzNDYuMDYyIDQ4Ny42ODkgMzQ1LjUzMVYzMzkuNTQ3SDQ4OS45NTVWMzQ4SDQ4Ny44M0w0ODcuNzY3IDM0Ny4xNDFaIi8+JiN4YTs8cGF0aCBmaWxsPSIjMzc0MEZGIiBkPSJNNDk1Ljg0OCAzNDguMTU2QzQ5NC42MDkgMzQ4LjE1NiA0OTMuNTk4IDM0Ny43NzYgNDkyLjgxNyAzNDcuMDE2QzQ5Mi4wNDEgMzQ2LjI1NSA0OTEuNjUzIDM0NS4yNDIgNDkxLjY1MyAzNDMuOTc3VjM0My43NThDNDkxLjY1MyAzNDIuOTA5IDQ5MS44MTcgMzQyLjE1MSA0OTIuMTQ1IDM0MS40ODRDNDkyLjQ3MyAzNDAuODEyIDQ5Mi45MzcgMzQwLjI5NyA0OTMuNTM2IDMzOS45MzhDNDk0LjE0IDMzOS41NzMgNDk0LjgyOCAzMzkuMzkxIDQ5NS41OTggMzM5LjM5MUM0OTYuNzU1IDMzOS4zOTEgNDk3LjY2NCAzMzkuNzU1IDQ5OC4zMjUgMzQwLjQ4NEM0OTguOTkyIDM0MS4yMTQgNDk5LjMyNSAzNDIuMjQ3IDQ5OS4zMjUgMzQzLjU4NlYzNDQuNTA4SDQ5My45NDJDNDk0LjAxNSAzNDUuMDYgNDk0LjIzNCAzNDUuNTAzIDQ5NC41OTggMzQ1LjgzNkM0OTQuOTY4IDM0Ni4xNjkgNDk1LjQzNCAzNDYuMzM2IDQ5NS45OTcgMzQ2LjMzNkM0OTYuODY3IDM0Ni4zMzYgNDk3LjU0NiAzNDYuMDIxIDQ5OC4wMzYgMzQ1LjM5MUw0OTkuMTQ1IDM0Ni42MzNDNDk4LjgwNyAzNDcuMTEyIDQ5OC4zNDggMzQ3LjQ4NyA0OTcuNzcgMzQ3Ljc1OEM0OTcuMTkyIDM0OC4wMjMgNDk2LjU1MiAzNDguMTU2IDQ5NS44NDggMzQ4LjE1NlpNNDk1LjU5MSAzNDEuMjE5QzQ5NS4xNDMgMzQxLjIxOSA0OTQuNzc4IDM0MS4zNyA0OTQuNDk3IDM0MS42NzJDNDk0LjIyMSAzNDEuOTc0IDQ5NC4wNDQgMzQyLjQwNiA0OTMuOTY2IDM0Mi45NjlINDk3LjEwNlYzNDIuNzg5QzQ5Ny4wOTYgMzQyLjI4OSA0OTYuOTYgMzQxLjkwNCA0OTYuNyAzNDEuNjMzQzQ5Ni40NCAzNDEuMzU3IDQ5Ni4wNyAzNDEuMjE5IDQ5NS41OTEgMzQxLjIxOVoiLz4mI3hhOzxwYXRoIGZpbGw9ImJsYWNrIiBkPSJNMjA4LjM1NCAyMDcuMzU0QzIwOC41NDkgMjA3LjE1OCAyMDguNTQ5IDIwNi44NDIgMjA4LjM1NCAyMDYuNjQ2TDIwNS4xNzIgMjAzLjQ2NEMyMDQuOTc2IDIwMy4yNjkgMjA0LjY2IDIwMy4yNjkgMjA0LjQ2NCAyMDMuNDY0QzIwNC4yNjkgMjAzLjY2IDIwNC4yNjkgMjAzLjk3NiAyMDQuNDY0IDIwNC4xNzJMMjA3LjI5MyAyMDdMMjA0LjQ2NCAyMDkuODI4QzIwNC4yNjkgMjEwLjAyNCAyMDQuMjY5IDIxMC4zNCAyMDQuNDY0IDIxMC41MzZDMjA0LjY2IDIxMC43MzEgMjA0Ljk3NiAyMTAuNzMxIDIwNS4xNzIgMjEwLjUzNkwyMDguMzU0IDIwNy4zNTRaTTE3NiAyMDcuNUgyMDhWMjA2LjVIMTc2VjIwNy41WiIvPiYjeGE7PHBhdGggZmlsbD0iYmxhY2siIGQ9Ik0yMjguMzU0IDIzMS42NDZDMjI4LjE1OCAyMzEuNDUxIDIyNy44NDIgMjMxLjQ1MSAyMjcuNjQ2IDIzMS42NDZMMjI0LjQ2NCAyMzQuODI4QzIyNC4yNjkgMjM1LjAyNCAyMjQuMjY5IDIzNS4zNCAyMjQuNDY0IDIzNS41MzZDMjI0LjY2IDIzNS43MzEgMjI0Ljk3NiAyMzUuNzMxIDIyNS4xNzIgMjM1LjUzNkwyMjggMjMyLjcwN0wyMzAuODI4IDIzNS41MzZDMjMxLjAyNCAyMzUuNzMxIDIzMS4zNCAyMzUuNzMxIDIzMS41MzYgMjM1LjUzNkMyMzEuNzMxIDIzNS4zNCAyMzEuNzMxIDIzNS4wMjQgMjMxLjUzNiAyMzQuODI4TDIyOC4zNTQgMjMxLjY0NlpNMjI4LjUgMzQ4TDIyOC41IDIzMkwyMjcuNSAyMzJMMjI3LjUgMzQ4TDIyOC41IDM0OFoiLz4mI3hhOzxwYXRoIGZpbGw9ImJsYWNrIiBkPSJNNDU1LjM1NCAyMzEuNjQ2QzQ1NS4xNTggMjMxLjQ1MSA0NTQuODQyIDIzMS40NTEgNDU0LjY0NiAyMzEuNjQ2TDQ1MS40NjQgMjM0LjgyOEM0NTEuMjY5IDIzNS4wMjQgNDUxLjI2OSAyMzUuMzQgNDUxLjQ2NCAyMzUuNTM2QzQ1MS42NiAyMzUuNzMxIDQ1MS45NzYgMjM1LjczMSA0NTIuMTcyIDIzNS41MzZMNDU1IDIzMi43MDdMNDU3LjgyOCAyMzUuNTM2QzQ1OC4wMjQgMjM1LjczMSA0NTguMzQgMjM1LjczMSA0NTguNTM2IDIzNS41MzZDNDU4LjczMSAyMzUuMzQgNDU4LjczMSAyMzUuMDI0IDQ1OC41MzYgMjM0LjgyOEw0NTUuMzU0IDIzMS42NDZaTTQ1NS41IDM0OEw0NTUuNSAyMzJMNDU0LjUgMjMyTDQ1NC41IDM0OEw0NTUuNSAzNDhaIi8+JiN4YTs8L3N2Zz4=;imageBackground=default;" vertex="1" parent="1">
          <mxGeometry x="110" y="1570" width="600.89" height="321" as="geometry" />
        </mxCell>
      </root>
    </mxGraphModel>
  </diagram>
</mxfile>
